<svg xmlns="http://www.w3.org/2000/svg" xmlns:xlink="http://www.w3.org/1999/xlink" width="500" zoomAndPan="magnify" viewBox="0 0 375 149.999998" height="200" preserveAspectRatio="xMidYMid meet" version="1.0"><defs><g/><clipPath id="fd68cb8303"><path d="M 1.0625 0.472656 L 186.03125 0.472656 L 186.03125 109.253906 L 1.0625 109.253906 Z M 1.0625 0.472656 " clip-rule="nonzero"/></clipPath><clipPath id="163c2dfde3"><path d="M 16.953125 93.320312 C 27.203125 103.59375 40.824219 109.253906 55.316406 109.253906 C 64.757812 109.253906 74.0625 106.78125 82.222656 102.101562 C 84.851562 100.59375 87.34375 98.867188 89.679688 96.949219 C 80.90625 88.300781 77.03125 78.445312 75.324219 71.660156 C 75.195312 71.175781 75.070312 70.683594 74.957031 70.199219 C 74.667969 68.972656 74.417969 67.78125 74.1875 66.605469 C 70.09375 73.195312 63.050781 77.125 55.316406 77.125 C 43.074219 77.125 33.113281 67.136719 33.113281 54.863281 C 33.113281 42.585938 43.074219 32.601562 55.316406 32.601562 C 60.640625 32.601562 65.703125 34.660156 69.609375 38.109375 C 72.527344 40.691406 74.796875 44.042969 76.035156 47.898438 C 77.019531 50.972656 77.605469 54.664062 78.226562 58.574219 C 78.753906 61.902344 79.296875 65.34375 80.15625 68.964844 C 80.261719 69.417969 80.375 69.871094 80.496094 70.320312 C 83.757812 83.328125 91.039062 90.816406 93.644531 93.351562 C 95.34375 95.082031 97.171875 96.703125 99.109375 98.191406 C 103.359375 101.457031 108.097656 104.046875 113.113281 105.902344 C 119.054688 108.097656 125.390625 109.253906 131.777344 109.253906 C 146.269531 109.253906 159.894531 103.59375 170.140625 93.320312 C 180.386719 83.050781 186.03125 69.390625 186.03125 54.863281 C 186.03125 40.335938 180.386719 26.675781 170.140625 16.402344 C 159.894531 6.128906 146.269531 0.472656 131.777344 0.472656 C 122.335938 0.472656 113.03125 2.945312 104.871094 7.625 C 102.21875 9.144531 99.703125 10.886719 97.351562 12.824219 C 106.941406 22.183594 110.757812 32.722656 112.1875 38.257812 C 112.605469 39.703125 112.964844 41.128906 113.285156 42.53125 C 117.425781 36.296875 124.277344 32.601562 131.777344 32.601562 C 144.019531 32.601562 153.984375 42.585938 153.984375 54.863281 C 153.984375 67.136719 144.019531 77.125 131.777344 77.125 C 123.703125 77.125 116.609375 72.839844 113.113281 66.257812 C 112.335938 64.796875 111.734375 63.222656 111.339844 61.558594 C 110.761719 59.109375 110.332031 56.398438 109.875 53.527344 C 109.203125 49.289062 108.449219 44.539062 107.035156 39.671875 C 106.132812 36.148438 103.042969 25.722656 93.390625 16.429688 C 91.445312 14.476562 89.335938 12.660156 87.082031 10.992188 C 81.730469 7.042969 75.832031 4.160156 69.609375 2.421875 C 64.988281 1.132812 60.199219 0.472656 55.316406 0.472656 C 40.824219 0.472656 27.203125 6.128906 16.953125 16.402344 C 6.707031 26.675781 1.0625 40.335938 1.0625 54.863281 C 1.0625 69.390625 6.707031 83.050781 16.953125 93.320312 Z M 16.953125 93.320312 " clip-rule="nonzero"/></clipPath><clipPath id="12c43f061b"><path d="M 16.953125 93.320312 C 27.203125 103.59375 40.824219 109.253906 55.316406 109.253906 C 64.757812 109.253906 74.0625 106.78125 82.222656 102.101562 C 84.851562 100.59375 87.34375 98.867188 89.679688 96.949219 C 80.90625 88.300781 77.03125 78.445312 75.324219 71.660156 C 75.195312 71.175781 75.070312 70.683594 74.957031 70.199219 C 74.667969 68.972656 74.417969 67.78125 74.1875 66.605469 C 70.09375 73.195312 63.050781 77.125 55.316406 77.125 C 43.074219 77.125 33.113281 67.136719 33.113281 54.863281 C 33.113281 42.585938 43.074219 32.601562 55.316406 32.601562 C 60.640625 32.601562 65.703125 34.660156 69.609375 38.109375 C 72.527344 40.691406 74.796875 44.042969 76.035156 47.898438 C 77.019531 50.972656 77.605469 54.664062 78.226562 58.574219 C 78.753906 61.902344 79.296875 65.34375 80.15625 68.964844 C 80.261719 69.417969 80.375 69.871094 80.496094 70.320312 C 83.757812 83.328125 91.039062 90.816406 93.644531 93.351562 C 95.34375 95.082031 97.171875 96.703125 99.109375 98.191406 C 103.359375 101.457031 108.097656 104.046875 113.113281 105.902344 C 119.054688 108.097656 125.390625 109.253906 131.777344 109.253906 C 146.269531 109.253906 159.894531 103.59375 170.140625 93.320312 C 180.386719 83.050781 186.03125 69.390625 186.03125 54.863281 C 186.03125 40.335938 180.386719 26.675781 170.140625 16.402344 C 159.894531 6.128906 146.269531 0.472656 131.777344 0.472656 C 122.335938 0.472656 113.03125 2.945312 104.871094 7.625 C 102.21875 9.144531 99.703125 10.886719 97.351562 12.824219 C 106.941406 22.183594 110.757812 32.722656 112.1875 38.257812 C 112.605469 39.703125 112.964844 41.128906 113.285156 42.53125 C 117.425781 36.296875 124.277344 32.601562 131.777344 32.601562 C 144.019531 32.601562 153.984375 42.585938 153.984375 54.863281 C 153.984375 67.136719 144.019531 77.125 131.777344 77.125 C 123.703125 77.125 116.609375 72.839844 113.113281 66.257812 C 112.335938 64.796875 111.734375 63.222656 111.339844 61.558594 C 110.761719 59.109375 110.332031 56.398438 109.875 53.527344 C 109.203125 49.289062 108.449219 44.539062 107.035156 39.671875 C 106.132812 36.148438 103.042969 25.722656 93.390625 16.429688 C 91.445312 14.476562 89.335938 12.660156 87.082031 10.992188 C 81.730469 7.042969 75.832031 4.160156 69.609375 2.421875 C 64.988281 1.132812 60.199219 0.472656 55.316406 0.472656 C 40.824219 0.472656 27.203125 6.128906 16.953125 16.402344 C 6.707031 26.675781 1.0625 40.335938 1.0625 54.863281 C 1.0625 69.390625 6.707031 83.050781 16.953125 93.320312 " clip-rule="nonzero"/></clipPath><radialGradient gradientTransform="matrix(0.99874, 0, 0, 1.00126, -12.762058, 58.559745)" gradientUnits="userSpaceOnUse" r="255.34337" cx="0" id="a306ac5349" cy="0" fx="0" fy="0"><stop stop-opacity="1" stop-color="rgb(34.118652%, 74.119568%, 66.268921%)" offset="0"/><stop stop-opacity="1" stop-color="rgb(34.118652%, 74.108887%, 66.279602%)" offset="0.0625"/><stop stop-opacity="1" stop-color="rgb(34.112549%, 73.907471%, 66.479492%)" offset="0.0742188"/><stop stop-opacity="1" stop-color="rgb(33.917236%, 73.521423%, 66.670227%)" offset="0.078125"/><stop stop-opacity="1" stop-color="rgb(33.729553%, 73.135376%, 66.862488%)" offset="0.0820312"/><stop stop-opacity="1" stop-color="rgb(33.729553%, 72.753906%, 67.056274%)" offset="0.0859375"/><stop stop-opacity="1" stop-color="rgb(33.54187%, 72.557068%, 67.242432%)" offset="0.0898438"/><stop stop-opacity="1" stop-color="rgb(33.34198%, 72.187805%, 67.437744%)" offset="0.09375"/><stop stop-opacity="1" stop-color="rgb(33.155823%, 71.618652%, 67.622375%)" offset="0.0976562"/><stop stop-opacity="1" stop-color="rgb(32.96051%, 71.194458%, 67.840576%)" offset="0.101562"/><stop stop-opacity="1" stop-color="rgb(32.939148%, 70.960999%, 68.061829%)" offset="0.105469"/><stop stop-opacity="1" stop-color="rgb(32.925415%, 70.751953%, 68.238831%)" offset="0.109375"/><stop stop-opacity="1" stop-color="rgb(32.720947%, 70.370483%, 68.247986%)" offset="0.113281"/><stop stop-opacity="1" stop-color="rgb(32.344055%, 69.984436%, 68.443298%)" offset="0.117188"/><stop stop-opacity="1" stop-color="rgb(32.159424%, 69.599915%, 68.629456%)" offset="0.121094"/><stop stop-opacity="1" stop-color="rgb(32.159424%, 69.218445%, 68.818665%)" offset="0.125"/><stop stop-opacity="1" stop-color="rgb(32.159424%, 68.836975%, 69.013977%)" offset="0.128906"/><stop stop-opacity="1" stop-color="rgb(31.973267%, 68.457031%, 69.200134%)" offset="0.132812"/><stop stop-opacity="1" stop-color="rgb(31.773376%, 68.070984%, 69.395447%)" offset="0.136719"/><stop stop-opacity="1" stop-color="rgb(31.587219%, 67.684937%, 69.40918%)" offset="0.140625"/><stop stop-opacity="1" stop-color="rgb(31.370544%, 67.449951%, 69.604492%)" offset="0.144531"/><stop stop-opacity="1" stop-color="rgb(31.152344%, 67.216492%, 69.816589%)" offset="0.148438"/><stop stop-opacity="1" stop-color="rgb(30.979919%, 66.835022%, 70.016479%)" offset="0.152344"/><stop stop-opacity="1" stop-color="rgb(30.97229%, 66.448975%, 70.199585%)" offset="0.15625"/><stop stop-opacity="1" stop-color="rgb(30.776978%, 66.062927%, 70.202637%)" offset="0.160156"/><stop stop-opacity="1" stop-color="rgb(30.589294%, 65.682983%, 70.394897%)" offset="0.164062"/><stop stop-opacity="1" stop-color="rgb(30.589294%, 65.301514%, 70.587158%)" offset="0.167969"/><stop stop-opacity="1" stop-color="rgb(30.404663%, 64.920044%, 70.588684%)" offset="0.171875"/><stop stop-opacity="1" stop-color="rgb(30.209351%, 64.535522%, 70.768738%)" offset="0.175781"/><stop stop-opacity="1" stop-color="rgb(30.198669%, 64.324951%, 70.96405%)" offset="0.179688"/><stop stop-opacity="1" stop-color="rgb(30.023193%, 64.138794%, 70.979309%)" offset="0.183594"/><stop stop-opacity="1" stop-color="rgb(29.803467%, 63.728333%, 71.174622%)" offset="0.1875"/><stop stop-opacity="1" stop-color="rgb(29.58374%, 63.299561%, 71.369934%)" offset="0.191406"/><stop stop-opacity="1" stop-color="rgb(29.40979%, 62.918091%, 71.380615%)" offset="0.195312"/><stop stop-opacity="1" stop-color="rgb(29.40979%, 62.532043%, 71.574402%)" offset="0.199219"/><stop stop-opacity="1" stop-color="rgb(29.408264%, 62.147522%, 71.760559%)" offset="0.203125"/><stop stop-opacity="1" stop-color="rgb(29.216003%, 61.959839%, 71.957397%)" offset="0.207031"/><stop stop-opacity="1" stop-color="rgb(29.022217%, 61.772156%, 72.155762%)" offset="0.210938"/><stop stop-opacity="1" stop-color="rgb(28.83606%, 61.393738%, 72.158813%)" offset="0.214844"/><stop stop-opacity="1" stop-color="rgb(28.640747%, 61.00769%, 72.158813%)" offset="0.21875"/><stop stop-opacity="1" stop-color="rgb(28.62854%, 60.623169%, 72.332764%)" offset="0.222656"/><stop stop-opacity="1" stop-color="rgb(28.433228%, 60.192871%, 72.528076%)" offset="0.226562"/><stop stop-opacity="1" stop-color="rgb(28.239441%, 59.762573%, 72.549438%)" offset="0.230469"/><stop stop-opacity="1" stop-color="rgb(28.224182%, 59.396362%, 72.563171%)" offset="0.234375"/><stop stop-opacity="1" stop-color="rgb(28.024292%, 59.210205%, 72.756958%)" offset="0.238281"/><stop stop-opacity="1" stop-color="rgb(27.839661%, 59.005737%, 72.938538%)" offset="0.242188"/><stop stop-opacity="1" stop-color="rgb(27.839661%, 58.61969%, 72.938538%)" offset="0.246094"/><stop stop-opacity="1" stop-color="rgb(27.648926%, 58.23822%, 72.938538%)" offset="0.25"/><stop stop-opacity="1" stop-color="rgb(27.453613%, 57.858276%, 73.124695%)" offset="0.253906"/><stop stop-opacity="1" stop-color="rgb(27.267456%, 57.472229%, 73.320007%)" offset="0.257812"/><stop stop-opacity="1" stop-color="rgb(27.073669%, 57.086182%, 73.329163%)" offset="0.261719"/><stop stop-opacity="1" stop-color="rgb(27.059937%, 56.877136%, 73.329163%)" offset="0.265625"/><stop stop-opacity="1" stop-color="rgb(27.038574%, 56.642151%, 73.529053%)" offset="0.269531"/><stop stop-opacity="1" stop-color="rgb(26.843262%, 56.236267%, 73.728943%)" offset="0.273438"/><stop stop-opacity="1" stop-color="rgb(26.657104%, 55.854797%, 73.728943%)" offset="0.277344"/><stop stop-opacity="1" stop-color="rgb(26.457214%, 55.473328%, 73.731995%)" offset="0.28125"/><stop stop-opacity="1" stop-color="rgb(26.269531%, 55.091858%, 73.925781%)" offset="0.289062"/><stop stop-opacity="1" stop-color="rgb(26.269531%, 54.711914%, 74.118042%)" offset="0.292969"/><stop stop-opacity="1" stop-color="rgb(26.0849%, 54.330444%, 74.119568%)" offset="0.296875"/><stop stop-opacity="1" stop-color="rgb(25.889587%, 53.9505%, 74.119568%)" offset="0.300781"/><stop stop-opacity="1" stop-color="rgb(25.683594%, 53.569031%, 74.313354%)" offset="0.304688"/><stop stop-opacity="1" stop-color="rgb(25.489807%, 53.138733%, 74.508667%)" offset="0.3125"/><stop stop-opacity="1" stop-color="rgb(25.474548%, 52.708435%, 74.508667%)" offset="0.316406"/><stop stop-opacity="1" stop-color="rgb(25.279236%, 52.328491%, 74.508667%)" offset="0.320312"/><stop stop-opacity="1" stop-color="rgb(24.90387%, 51.947021%, 74.703979%)" offset="0.324219"/><stop stop-opacity="1" stop-color="rgb(24.708557%, 51.565552%, 74.899292%)" offset="0.332031"/><stop stop-opacity="1" stop-color="rgb(24.708557%, 51.184082%, 74.899292%)" offset="0.335938"/><stop stop-opacity="1" stop-color="rgb(24.708557%, 50.804138%, 74.899292%)" offset="0.339844"/><stop stop-opacity="1" stop-color="rgb(24.525452%, 50.422668%, 74.899292%)" offset="0.34375"/><stop stop-opacity="1" stop-color="rgb(24.325562%, 50.216675%, 74.899292%)" offset="0.347656"/><stop stop-opacity="1" stop-color="rgb(24.285889%, 49.975586%, 75.094604%)" offset="0.351562"/><stop stop-opacity="1" stop-color="rgb(24.090576%, 49.562073%, 75.289917%)" offset="0.355469"/><stop stop-opacity="1" stop-color="rgb(23.910522%, 49.186707%, 75.289917%)" offset="0.359375"/><stop stop-opacity="1" stop-color="rgb(23.71521%, 48.809814%, 75.289917%)" offset="0.367188"/><stop stop-opacity="1" stop-color="rgb(23.529053%, 48.429871%, 75.289917%)" offset="0.371094"/><stop stop-opacity="1" stop-color="rgb(23.529053%, 48.043823%, 75.289917%)" offset="0.375"/><stop stop-opacity="1" stop-color="rgb(23.529053%, 47.657776%, 75.289917%)" offset="0.378906"/><stop stop-opacity="1" stop-color="rgb(23.529053%, 47.276306%, 75.289917%)" offset="0.382812"/><stop stop-opacity="1" stop-color="rgb(23.352051%, 47.073364%, 75.469971%)" offset="0.386719"/><stop stop-opacity="1" stop-color="rgb(23.156738%, 46.887207%, 75.669861%)" offset="0.390625"/><stop stop-opacity="1" stop-color="rgb(22.944641%, 46.492004%, 75.689697%)" offset="0.394531"/><stop stop-opacity="1" stop-color="rgb(22.749329%, 46.252441%, 75.689697%)" offset="0.398438"/><stop stop-opacity="1" stop-color="rgb(22.749329%, 46.044922%, 75.689697%)" offset="0.402344"/><stop stop-opacity="1" stop-color="rgb(22.741699%, 45.663452%, 75.689697%)" offset="0.40625"/><stop stop-opacity="1" stop-color="rgb(22.541809%, 45.283508%, 75.689697%)" offset="0.410156"/><stop stop-opacity="1" stop-color="rgb(22.349548%, 44.900513%, 75.689697%)" offset="0.414062"/><stop stop-opacity="1" stop-color="rgb(22.721863%, 44.520569%, 75.500488%)" offset="0.421875"/><stop stop-opacity="1" stop-color="rgb(23.840332%, 44.140625%, 75.120544%)" offset="0.425781"/><stop stop-opacity="1" stop-color="rgb(25.3479%, 43.759155%, 74.563599%)" offset="0.429688"/><stop stop-opacity="1" stop-color="rgb(26.705933%, 43.377686%, 73.988342%)" offset="0.433594"/><stop stop-opacity="1" stop-color="rgb(28.219604%, 42.948914%, 73.338318%)" offset="0.4375"/><stop stop-opacity="1" stop-color="rgb(29.730225%, 42.514038%, 72.692871%)" offset="0.441406"/><stop stop-opacity="1" stop-color="rgb(31.071472%, 42.127991%, 72.111511%)" offset="0.445312"/><stop stop-opacity="1" stop-color="rgb(32.40509%, 41.746521%, 71.540833%)" offset="0.449219"/><stop stop-opacity="1" stop-color="rgb(33.753967%, 41.366577%, 70.965576%)" offset="0.453125"/><stop stop-opacity="1" stop-color="rgb(35.287476%, 40.98053%, 70.394897%)" offset="0.457031"/><stop stop-opacity="1" stop-color="rgb(36.628723%, 40.406799%, 69.822693%)" offset="0.460938"/><stop stop-opacity="1" stop-color="rgb(37.779236%, 39.831543%, 69.241333%)" offset="0.464844"/><stop stop-opacity="1" stop-color="rgb(39.109802%, 39.442444%, 68.673706%)" offset="0.46875"/><stop stop-opacity="1" stop-color="rgb(40.457153%, 39.057922%, 68.093872%)" offset="0.472656"/><stop stop-opacity="1" stop-color="rgb(41.967773%, 38.600159%, 67.448425%)" offset="0.476562"/><stop stop-opacity="1" stop-color="rgb(43.475342%, 37.974548%, 66.804504%)" offset="0.480469"/><stop stop-opacity="1" stop-color="rgb(44.818115%, 37.402344%, 66.209412%)" offset="0.484375"/><stop stop-opacity="1" stop-color="rgb(46.147156%, 36.82251%, 65.452576%)" offset="0.488281"/><stop stop-opacity="1" stop-color="rgb(47.299194%, 36.25946%, 64.884949%)" offset="0.492188"/><stop stop-opacity="1" stop-color="rgb(48.641968%, 35.879517%, 64.305115%)" offset="0.496094"/><stop stop-opacity="1" stop-color="rgb(49.984741%, 35.302734%, 63.728333%)" offset="0.5"/><stop stop-opacity="1" stop-color="rgb(51.132202%, 34.7229%, 63.162231%)" offset="0.503906"/><stop stop-opacity="1" stop-color="rgb(52.461243%, 34.155273%, 62.580872%)" offset="0.507812"/><stop stop-opacity="1" stop-color="rgb(53.808594%, 33.575439%, 62.010193%)" offset="0.511719"/><stop stop-opacity="1" stop-color="rgb(54.974365%, 33.003235%, 61.433411%)" offset="0.515625"/><stop stop-opacity="1" stop-color="rgb(56.291199%, 32.356262%, 60.784912%)" offset="0.519531"/><stop stop-opacity="1" stop-color="rgb(57.780457%, 31.703186%, 60.139465%)" offset="0.523438"/><stop stop-opacity="1" stop-color="rgb(59.106445%, 31.132507%, 59.562683%)" offset="0.527344"/><stop stop-opacity="1" stop-color="rgb(60.25238%, 30.549622%, 58.992004%)" offset="0.53125"/><stop stop-opacity="1" stop-color="rgb(61.404419%, 29.782104%, 58.407593%)" offset="0.535156"/><stop stop-opacity="1" stop-color="rgb(62.750244%, 29.016113%, 57.641602%)" offset="0.539062"/><stop stop-opacity="1" stop-color="rgb(64.094543%, 28.442383%, 57.063293%)" offset="0.542969"/><stop stop-opacity="1" stop-color="rgb(65.24353%, 27.871704%, 56.680298%)" offset="0.546875"/><stop stop-opacity="1" stop-color="rgb(66.390991%, 27.110291%, 56.1203%)" offset="0.550781"/><stop stop-opacity="1" stop-color="rgb(67.54303%, 26.344299%, 55.363464%)" offset="0.554688"/><stop stop-opacity="1" stop-color="rgb(68.690491%, 25.749207%, 54.768372%)" offset="0.558594"/><stop stop-opacity="1" stop-color="rgb(69.984436%, 25.083923%, 54.122925%)" offset="0.5625"/><stop stop-opacity="1" stop-color="rgb(71.279907%, 24.243164%, 53.477478%)" offset="0.566406"/><stop stop-opacity="1" stop-color="rgb(72.427368%, 23.477173%, 52.897644%)" offset="0.570312"/><stop stop-opacity="1" stop-color="rgb(73.58551%, 22.709656%, 52.337646%)" offset="0.574219"/><stop stop-opacity="1" stop-color="rgb(74.932861%, 21.94519%, 51.950073%)" offset="0.578125"/><stop stop-opacity="1" stop-color="rgb(76.269531%, 21.376038%, 51.371765%)" offset="0.582031"/><stop stop-opacity="1" stop-color="rgb(77.229309%, 20.802307%, 50.798035%)" offset="0.585938"/><stop stop-opacity="1" stop-color="rgb(78.181458%, 19.856262%, 50.22583%)" offset="0.589844"/><stop stop-opacity="1" stop-color="rgb(79.321289%, 18.893433%, 49.645996%)" offset="0.59375"/><stop stop-opacity="1" stop-color="rgb(80.473328%, 18.289185%, 49.078369%)" offset="0.597656"/><stop stop-opacity="1" stop-color="rgb(81.768799%, 17.596436%, 48.429871%)" offset="0.601562"/><stop stop-opacity="1" stop-color="rgb(83.062744%, 16.558838%, 47.77832%)" offset="0.605469"/><stop stop-opacity="1" stop-color="rgb(84.214783%, 15.618896%, 47.207642%)" offset="0.609375"/><stop stop-opacity="1" stop-color="rgb(85.362244%, 14.852905%, 46.626282%)" offset="0.613281"/><stop stop-opacity="1" stop-color="rgb(86.505127%, 14.091492%, 46.060181%)" offset="0.617188"/><stop stop-opacity="1" stop-color="rgb(87.457275%, 13.323975%, 45.678711%)" offset="0.621094"/><stop stop-opacity="1" stop-color="rgb(88.415527%, 12.557983%, 45.108032%)" offset="0.625"/><stop stop-opacity="1" stop-color="rgb(89.567566%, 11.605835%, 44.528198%)" offset="0.628906"/><stop stop-opacity="1" stop-color="rgb(90.715027%, 10.644531%, 44.137573%)" offset="0.632812"/><stop stop-opacity="1" stop-color="rgb(91.862488%, 9.867859%, 43.579102%)" offset="0.636719"/><stop stop-opacity="1" stop-color="rgb(92.666626%, 9.274292%, 43.17627%)" offset="0.640625"/><stop stop-opacity="1" stop-color="rgb(92.504883%, 9.042358%, 43.161011%)" offset="0.644531"/><stop stop-opacity="1" stop-color="rgb(91.903687%, 9.01947%, 43.354797%)" offset="0.648438"/><stop stop-opacity="1" stop-color="rgb(91.322327%, 9.01947%, 43.540955%)" offset="0.652344"/><stop stop-opacity="1" stop-color="rgb(90.756226%, 9.0271%, 43.736267%)" offset="0.65625"/><stop stop-opacity="1" stop-color="rgb(90.171814%, 9.223938%, 43.922424%)" offset="0.660156"/><stop stop-opacity="1" stop-color="rgb(89.405823%, 9.605408%, 44.116211%)" offset="0.664062"/><stop stop-opacity="1" stop-color="rgb(88.833618%, 9.797668%, 44.308472%)" offset="0.667969"/><stop stop-opacity="1" stop-color="rgb(88.261414%, 9.799194%, 44.497681%)" offset="0.671875"/><stop stop-opacity="1" stop-color="rgb(87.68158%, 9.799194%, 44.697571%)" offset="0.675781"/><stop stop-opacity="1" stop-color="rgb(87.113953%, 9.799194%, 44.883728%)" offset="0.679688"/><stop stop-opacity="1" stop-color="rgb(86.532593%, 9.973145%, 45.079041%)" offset="0.683594"/><stop stop-opacity="1" stop-color="rgb(86.05957%, 10.173035%, 45.294189%)" offset="0.6875"/><stop stop-opacity="1" stop-color="rgb(85.43396%, 10.198975%, 45.504761%)" offset="0.691406"/><stop stop-opacity="1" stop-color="rgb(84.867859%, 10.198975%, 45.698547%)" offset="0.695312"/><stop stop-opacity="1" stop-color="rgb(84.286499%, 10.205078%, 45.884705%)" offset="0.699219"/><stop stop-opacity="1" stop-color="rgb(83.714294%, 10.400391%, 46.080017%)" offset="0.703125"/><stop stop-opacity="1" stop-color="rgb(83.14209%, 10.5896%, 46.269226%)" offset="0.707031"/><stop stop-opacity="1" stop-color="rgb(82.376099%, 10.775757%, 46.461487%)" offset="0.710938"/><stop stop-opacity="1" stop-color="rgb(81.791687%, 10.971069%, 46.661377%)" offset="0.714844"/><stop stop-opacity="1" stop-color="rgb(81.219482%, 10.978699%, 46.847534%)" offset="0.71875"/><stop stop-opacity="1" stop-color="rgb(80.639648%, 10.978699%, 47.042847%)" offset="0.722656"/><stop stop-opacity="1" stop-color="rgb(79.997253%, 11.174011%, 47.253418%)" offset="0.726562"/><stop stop-opacity="1" stop-color="rgb(79.354858%, 11.369324%, 47.467041%)" offset="0.730469"/><stop stop-opacity="1" stop-color="rgb(78.759766%, 11.369324%, 47.662354%)" offset="0.734375"/><stop stop-opacity="1" stop-color="rgb(78.001404%, 11.378479%, 47.848511%)" offset="0.738281"/><stop stop-opacity="1" stop-color="rgb(77.430725%, 11.573792%, 48.048401%)" offset="0.742188"/><stop stop-opacity="1" stop-color="rgb(76.849365%, 11.759949%, 48.239136%)" offset="0.746094"/><stop stop-opacity="1" stop-color="rgb(76.278687%, 11.759949%, 48.429871%)" offset="0.75"/><stop stop-opacity="1" stop-color="rgb(75.706482%, 11.949158%, 48.625183%)" offset="0.753906"/><stop stop-opacity="1" stop-color="rgb(74.945068%, 12.149048%, 48.809814%)" offset="0.757812"/><stop stop-opacity="1" stop-color="rgb(74.359131%, 12.159729%, 49.005127%)" offset="0.761719"/><stop stop-opacity="1" stop-color="rgb(73.788452%, 12.330627%, 49.191284%)" offset="0.765625"/><stop stop-opacity="1" stop-color="rgb(73.15979%, 12.52594%, 49.407959%)" offset="0.769531"/><stop stop-opacity="1" stop-color="rgb(72.688293%, 12.548828%, 49.624634%)" offset="0.773438"/><stop stop-opacity="1" stop-color="rgb(72.106934%, 12.548828%, 49.810791%)" offset="0.777344"/><stop stop-opacity="1" stop-color="rgb(71.536255%, 12.556458%, 50.012207%)" offset="0.78125"/><stop stop-opacity="1" stop-color="rgb(70.960999%, 12.75177%, 50.202942%)" offset="0.785156"/><stop stop-opacity="1" stop-color="rgb(70.391846%, 12.939453%, 50.395203%)" offset="0.789062"/><stop stop-opacity="1" stop-color="rgb(69.818115%, 12.939453%, 50.587463%)" offset="0.792969"/><stop stop-opacity="1" stop-color="rgb(69.052124%, 13.122559%, 50.773621%)" offset="0.796875"/><stop stop-opacity="1" stop-color="rgb(68.470764%, 13.317871%, 50.968933%)" offset="0.800781"/><stop stop-opacity="1" stop-color="rgb(67.89856%, 13.508606%, 51.153564%)" offset="0.804688"/><stop stop-opacity="1" stop-color="rgb(67.318726%, 13.708496%, 51.348877%)" offset="0.808594"/><stop stop-opacity="1" stop-color="rgb(66.648865%, 13.729858%, 51.564026%)" offset="0.8125"/><stop stop-opacity="1" stop-color="rgb(65.823364%, 13.745117%, 51.774597%)" offset="0.816406"/><stop stop-opacity="1" stop-color="rgb(65.257263%, 13.938904%, 51.974487%)" offset="0.820312"/><stop stop-opacity="1" stop-color="rgb(64.675903%, 14.118958%, 52.159119%)" offset="0.824219"/><stop stop-opacity="1" stop-color="rgb(64.105225%, 14.118958%, 52.160645%)" offset="0.828125"/><stop stop-opacity="1" stop-color="rgb(63.531494%, 14.118958%, 52.352905%)" offset="0.832031"/><stop stop-opacity="1" stop-color="rgb(62.765503%, 14.306641%, 52.732849%)" offset="0.835938"/><stop stop-opacity="1" stop-color="rgb(62.181091%, 14.501953%, 52.931213%)" offset="0.839844"/><stop stop-opacity="1" stop-color="rgb(61.61499%, 14.686584%, 52.938843%)" offset="0.84375"/><stop stop-opacity="1" stop-color="rgb(61.03363%, 14.881897%, 53.112793%)" offset="0.847656"/><stop stop-opacity="1" stop-color="rgb(60.388184%, 14.898682%, 53.330994%)" offset="0.851562"/><stop stop-opacity="1" stop-color="rgb(59.762573%, 14.916992%, 53.552246%)" offset="0.855469"/><stop stop-opacity="1" stop-color="rgb(59.368896%, 15.112305%, 53.742981%)" offset="0.859375"/><stop stop-opacity="1" stop-color="rgb(58.778381%, 15.289307%, 53.938293%)" offset="0.863281"/><stop stop-opacity="1" stop-color="rgb(58.015442%, 15.289307%, 54.124451%)" offset="0.867188"/><stop stop-opacity="1" stop-color="rgb(57.444763%, 15.289307%, 54.318237%)" offset="0.871094"/><stop stop-opacity="1" stop-color="rgb(56.867981%, 15.484619%, 54.508972%)" offset="0.875"/><stop stop-opacity="1" stop-color="rgb(56.292725%, 15.684509%, 54.695129%)" offset="0.878906"/><stop stop-opacity="1" stop-color="rgb(55.72052%, 15.870667%, 54.890442%)" offset="0.882812"/><stop stop-opacity="1" stop-color="rgb(54.963684%, 16.065979%, 55.075073%)" offset="0.886719"/><stop stop-opacity="1" stop-color="rgb(54.373169%, 16.079712%, 55.270386%)" offset="0.890625"/><stop stop-opacity="1" stop-color="rgb(53.726196%, 16.101074%, 55.488586%)" offset="0.894531"/><stop stop-opacity="1" stop-color="rgb(53.079224%, 16.294861%, 55.688477%)" offset="0.898438"/><stop stop-opacity="1" stop-color="rgb(52.490234%, 16.468811%, 55.700684%)" offset="0.902344"/><stop stop-opacity="1" stop-color="rgb(51.731873%, 16.468811%, 55.895996%)" offset="0.90625"/><stop stop-opacity="1" stop-color="rgb(51.159668%, 16.471863%, 56.082153%)" offset="0.910156"/><stop stop-opacity="1" stop-color="rgb(50.585938%, 16.665649%, 56.27594%)" offset="0.914062"/><stop stop-opacity="1" stop-color="rgb(50.009155%, 16.85791%, 56.468201%)" offset="0.917969"/><stop stop-opacity="1" stop-color="rgb(49.436951%, 16.859436%, 56.652832%)" offset="0.921875"/><stop stop-opacity="1" stop-color="rgb(48.680115%, 17.037964%, 56.848145%)" offset="0.925781"/><stop stop-opacity="1" stop-color="rgb(48.0896%, 17.233276%, 57.034302%)" offset="0.929688"/><stop stop-opacity="1" stop-color="rgb(47.518921%, 17.424011%, 57.229614%)" offset="0.933594"/><stop stop-opacity="1" stop-color="rgb(46.69342%, 17.623901%, 57.449341%)" offset="0.9375"/><stop stop-opacity="1" stop-color="rgb(46.02356%, 17.649841%, 57.649231%)" offset="0.941406"/><stop stop-opacity="1" stop-color="rgb(45.446777%, 17.660522%, 57.659912%)" offset="0.945312"/><stop stop-opacity="1" stop-color="rgb(44.88678%, 17.854309%, 57.855225%)" offset="0.949219"/><stop stop-opacity="1" stop-color="rgb(44.499207%, 18.03894%, 58.041382%)" offset="0.953125"/><stop stop-opacity="1" stop-color="rgb(43.922424%, 18.03894%, 58.232117%)" offset="0.957031"/><stop stop-opacity="1" stop-color="rgb(43.347168%, 18.03894%, 58.425903%)" offset="0.960938"/><stop stop-opacity="1" stop-color="rgb(42.776489%, 18.222046%, 58.428955%)" offset="0.964844"/><stop stop-opacity="1" stop-color="rgb(42.016602%, 18.417358%, 58.607483%)" offset="0.96875"/><stop stop-opacity="1" stop-color="rgb(41.429138%, 18.60199%, 58.979797%)" offset="0.972656"/><stop stop-opacity="1" stop-color="rgb(40.759277%, 18.797302%, 59.196472%)" offset="0.976562"/><stop stop-opacity="1" stop-color="rgb(39.935303%, 18.836975%, 59.237671%)" offset="0.980469"/><stop stop-opacity="1" stop-color="rgb(39.367676%, 19.038391%, 59.432983%)" offset="0.984375"/><stop stop-opacity="1" stop-color="rgb(38.786316%, 19.219971%, 59.617615%)" offset="0.988281"/><stop stop-opacity="1" stop-color="rgb(38.220215%, 19.219971%, 59.812927%)" offset="0.992188"/><stop stop-opacity="1" stop-color="rgb(37.838745%, 19.219971%, 59.999084%)" offset="0.996094"/><stop stop-opacity="1" stop-color="rgb(37.649536%, 19.219971%, 59.999084%)" offset="1"/></radialGradient><clipPath id="3950562807"><rect x="0" width="342" y="0" height="110"/></clipPath></defs><g transform="matrix(1, 0, 0, 1, 14, 20)"><g clip-path="url(#3950562807)"><g clip-path="url(#fd68cb8303)"><g clip-path="url(#163c2dfde3)"><g clip-path="url(#12c43f061b)"><path fill="url(#a306ac5349)" d="M 1.0625 0.472656 L 1.0625 109.253906 L 186.03125 109.253906 L 186.03125 0.472656 Z M 1.0625 0.472656 " fill-rule="nonzero"/></g></g></g><g fill="#ffffff" fill-opacity="1"><g transform="translate(193.070603, 69.667626)"><g><path d="M 27.171875 -50.953125 C 29.960938 -50.953125 32.378906 -50.316406 34.421875 -49.046875 C 36.460938 -47.773438 38.035156 -46.128906 39.140625 -44.109375 C 40.242188 -42.085938 40.796875 -39.953125 40.796875 -37.703125 C 40.796875 -35.867188 40.382812 -34.078125 39.5625 -32.328125 C 38.75 -30.578125 37.476562 -29.050781 35.75 -27.75 C 38.632812 -26.550781 40.664062 -24.757812 41.84375 -22.375 C 43.019531 -20 43.609375 -17.609375 43.609375 -15.203125 C 43.609375 -12.703125 43.054688 -10.285156 41.953125 -7.953125 C 40.847656 -5.628906 39.210938 -3.722656 37.046875 -2.234375 C 34.890625 -0.742188 32.195312 0 28.96875 0 L 6.203125 0 L 6.203125 -50.953125 Z M 27.03125 -30.34375 C 29.050781 -30.34375 30.585938 -31.085938 31.640625 -32.578125 C 32.703125 -34.066406 33.234375 -35.675781 33.234375 -37.40625 C 33.234375 -39.09375 32.738281 -40.617188 31.75 -41.984375 C 30.757812 -43.359375 29.234375 -44.046875 27.171875 -44.046875 L 13.40625 -44.046875 L 13.40625 -30.34375 Z M 28.96875 -7.0625 C 30.601562 -7.0625 31.960938 -7.457031 33.046875 -8.25 C 34.128906 -9.039062 34.945312 -10.0625 35.5 -11.3125 C 36.050781 -12.5625 36.328125 -13.835938 36.328125 -15.140625 C 36.328125 -16.484375 36.050781 -17.753906 35.5 -18.953125 C 34.945312 -20.160156 34.128906 -21.160156 33.046875 -21.953125 C 31.960938 -22.742188 30.601562 -23.140625 28.96875 -23.140625 L 13.40625 -23.140625 L 13.40625 -7.0625 Z M 28.96875 -7.0625 "/></g></g></g><g fill="#ffffff" fill-opacity="1"><g transform="translate(236.745749, 69.667626)"><g><path d="M 43.671875 -21.1875 C 43.722656 -21 43.75 -20.804688 43.75 -20.609375 C 43.75 -20.421875 43.75 -20.207031 43.75 -19.96875 C 43.75 -19.195312 43.675781 -18.472656 43.53125 -17.796875 L 10.515625 -17.796875 C 10.515625 -15.253906 11.195312 -13.066406 12.5625 -11.234375 C 13.9375 -9.410156 15.644531 -8.003906 17.6875 -7.015625 C 19.738281 -6.035156 21.722656 -5.546875 23.640625 -5.546875 C 26.046875 -5.546875 28.289062 -6.070312 30.375 -7.125 C 32.46875 -8.1875 34.09375 -9.820312 35.25 -12.03125 L 42.53125 -12.03125 C 41.5625 -9.195312 40.09375 -6.832031 38.125 -4.9375 C 36.15625 -3.039062 33.910156 -1.625 31.390625 -0.6875 C 28.867188 0.25 26.257812 0.71875 23.5625 0.71875 C 21.070312 0.71875 18.625 0.300781 16.21875 -0.53125 C 13.8125 -1.375 11.644531 -2.632812 9.71875 -4.3125 C 7.800781 -6 6.273438 -8.101562 5.140625 -10.625 C 4.015625 -13.15625 3.453125 -16.101562 3.453125 -19.46875 C 3.453125 -22.820312 4.015625 -25.75 5.140625 -28.25 C 6.273438 -30.75 7.800781 -32.835938 9.71875 -34.515625 C 11.644531 -36.203125 13.8125 -37.46875 16.21875 -38.3125 C 18.625 -39.15625 21.125 -39.578125 23.71875 -39.578125 C 26.9375 -39.578125 30.019531 -38.890625 32.96875 -37.515625 C 35.925781 -36.148438 38.390625 -34.109375 40.359375 -31.390625 C 42.328125 -28.671875 43.429688 -25.269531 43.671875 -21.1875 Z M 36.25 -23.640625 C 35.820312 -25.992188 34.96875 -27.878906 33.6875 -29.296875 C 32.414062 -30.710938 30.90625 -31.742188 29.15625 -32.390625 C 27.40625 -33.046875 25.59375 -33.375 23.71875 -33.375 C 21.84375 -33.375 20.003906 -33.046875 18.203125 -32.390625 C 16.398438 -31.742188 14.835938 -30.695312 13.515625 -29.25 C 12.191406 -27.8125 11.289062 -25.941406 10.8125 -23.640625 Z M 36.25 -23.640625 "/></g></g></g><g fill="#ffffff" fill-opacity="1"><g transform="translate(281.718187, 69.667626)"><g><path d="M 6.203125 0 L 6.203125 -50.453125 L 12.109375 -50.453125 L 28.765625 -25.953125 L 45.40625 -50.453125 L 51.171875 -50.453125 L 51.171875 0 L 43.96875 0 L 43.96875 -35.53125 L 30.78125 -15.921875 L 26.671875 -15.921875 L 13.484375 -35.53125 L 13.484375 0 Z M 6.203125 0 "/></g></g></g><g fill="#1694d2" fill-opacity="1"><g transform="translate(196.552885, 99.667674)"><g><path d="M 6.109375 -4.0625 L 7.4375 -4.0625 C 8.570312 -4.0625 9.566406 -4.320312 10.421875 -4.84375 C 11.273438 -5.375 11.941406 -6.085938 12.421875 -6.984375 C 12.898438 -7.890625 13.140625 -8.894531 13.140625 -10 C 13.140625 -11.113281 12.898438 -12.113281 12.421875 -13 C 11.941406 -13.894531 11.273438 -14.601562 10.421875 -15.125 C 9.566406 -15.644531 8.570312 -15.90625 7.4375 -15.90625 L 6.109375 -15.90625 Z M 1.765625 -19.984375 L 7.703125 -19.984375 C 9.109375 -19.984375 10.414062 -19.726562 11.625 -19.21875 C 12.832031 -18.707031 13.882812 -18 14.78125 -17.09375 C 15.6875 -16.195312 16.390625 -15.140625 16.890625 -13.921875 C 17.390625 -12.710938 17.640625 -11.40625 17.640625 -10 C 17.640625 -8.582031 17.390625 -7.265625 16.890625 -6.046875 C 16.390625 -4.835938 15.691406 -3.78125 14.796875 -2.875 C 13.898438 -1.976562 12.84375 -1.273438 11.625 -0.765625 C 10.414062 -0.253906 9.109375 0 7.703125 0 L 1.765625 0 Z M 1.765625 -19.984375 "/></g></g></g><g fill="#1694d2" fill-opacity="1"><g transform="translate(220.329955, 99.667674)"><g><path d="M 6.171875 0 L 1.765625 0 L 1.765625 -19.984375 L 6.171875 -19.984375 Z M 6.171875 0 "/></g></g></g><g fill="#1694d2" fill-opacity="1"><g transform="translate(233.379947, 99.667674)"><g><path d="M 11.75 -16.171875 C 10.695312 -16.171875 9.726562 -15.882812 8.84375 -15.3125 C 7.96875 -14.738281 7.265625 -13.984375 6.734375 -13.046875 C 6.203125 -12.109375 5.9375 -11.070312 5.9375 -9.9375 C 5.9375 -8.820312 6.203125 -7.785156 6.734375 -6.828125 C 7.265625 -5.878906 7.96875 -5.117188 8.84375 -4.546875 C 9.726562 -3.984375 10.695312 -3.703125 11.75 -3.703125 C 12.394531 -3.703125 13.078125 -3.796875 13.796875 -3.984375 C 14.515625 -4.171875 15.179688 -4.523438 15.796875 -5.046875 C 16.410156 -5.578125 16.894531 -6.34375 17.25 -7.34375 L 12.171875 -7.34375 L 12.171875 -10.671875 L 22.015625 -10.671875 L 22.015625 -10 C 22.015625 -8.582031 21.75 -7.25 21.21875 -6 C 20.6875 -4.757812 19.953125 -3.664062 19.015625 -2.71875 C 18.078125 -1.769531 16.988281 -1.03125 15.75 -0.5 C 14.519531 0.03125 13.1875 0.296875 11.75 0.296875 C 10.34375 0.296875 9.015625 0.0234375 7.765625 -0.515625 C 6.523438 -1.054688 5.4375 -1.796875 4.5 -2.734375 C 3.5625 -3.671875 2.820312 -4.757812 2.28125 -6 C 1.738281 -7.25 1.46875 -8.582031 1.46875 -10 C 1.46875 -11.40625 1.738281 -12.726562 2.28125 -13.96875 C 2.820312 -15.21875 3.5625 -16.3125 4.5 -17.25 C 5.4375 -18.1875 6.523438 -18.925781 7.765625 -19.46875 C 9.015625 -20.007812 10.34375 -20.28125 11.75 -20.28125 C 13.21875 -20.28125 14.609375 -19.976562 15.921875 -19.375 C 17.242188 -18.78125 18.394531 -17.957031 19.375 -16.90625 C 20.351562 -15.863281 21.066406 -14.644531 21.515625 -13.25 L 16.671875 -13.25 C 16.179688 -14.3125 15.484375 -15.0625 14.578125 -15.5 C 13.671875 -15.945312 12.726562 -16.171875 11.75 -16.171875 Z M 11.75 -16.171875 "/></g></g></g><g fill="#1694d2" fill-opacity="1"><g transform="translate(261.53602, 99.667674)"><g><path d="M 6.171875 0 L 1.765625 0 L 1.765625 -19.984375 L 6.171875 -19.984375 Z M 6.171875 0 "/></g></g></g><g fill="#1694d2" fill-opacity="1"><g transform="translate(274.586013, 99.667674)"><g><path d="M 10.25 -15.984375 L 10.25 0 L 5.84375 0 L 5.84375 -15.984375 L 0.140625 -15.984375 L 0.140625 -19.984375 L 15.953125 -19.984375 L 15.953125 -15.984375 Z M 10.25 -15.984375 "/></g></g></g><g fill="#1694d2" fill-opacity="1"><g transform="translate(295.806217, 99.667674)"><g><path d="M 12.640625 -7.640625 L 10.109375 -14.75 L 7.578125 -7.640625 Z M 20.109375 0 L 15.375 0 L 13.9375 -4.03125 L 6.3125 -4.03125 L 4.875 0 L 0.140625 0 L 8.265625 -19.984375 L 11.984375 -19.984375 Z M 20.109375 0 "/></g></g></g><g fill="#1694d2" fill-opacity="1"><g transform="translate(321.170309, 99.667674)"><g><path d="M 1.765625 0 L 1.765625 -19.984375 L 6.171875 -19.984375 L 6.171875 -4 L 13.34375 -4 L 13.34375 0 Z M 1.765625 0 "/></g></g></g></g></g></svg>