<svg xmlns="http://www.w3.org/2000/svg" xmlns:xlink="http://www.w3.org/1999/xlink" width="80" zoomAndPan="magnify" viewBox="0 0 60 30.000001" height="40" preserveAspectRatio="xMidYMid meet" version="1.0"><defs><clipPath id="31a060880d"><path d="M 0.96875 0 L 59.03125 0 L 59.03125 29.03125 L 0.96875 29.03125 Z M 0.96875 0 " clip-rule="nonzero"/></clipPath><clipPath id="85d690b829"><path d="M 9.421875 0 L 50.792969 0 L 50.792969 29.03125 L 9.421875 29.03125 Z M 9.421875 0 " clip-rule="nonzero"/></clipPath></defs><g clip-path="url(#31a060880d)"><path fill="#ffffff" d="M 0.96875 0 L 59.03125 0 L 59.03125 29.03125 L 0.96875 29.03125 Z M 0.96875 0 " fill-opacity="1" fill-rule="nonzero"/><path fill="#ffffff" d="M 0.96875 0 L 59.03125 0 L 59.03125 29.03125 L 0.96875 29.03125 Z M 0.96875 0 " fill-opacity="1" fill-rule="nonzero"/></g><g clip-path="url(#85d690b829)"><path fill="#ffffff" d="M 9.421875 -6.027344 L 50.792969 -6.027344 L 50.792969 35.34375 L 9.421875 35.34375 Z M 9.421875 -6.027344 " fill-opacity="1" fill-rule="nonzero"/></g><path fill="#007858" d="M 35.269531 3.625 C 33.1875 3.625 31.148438 4.242188 29.421875 5.40625 C 29.300781 5.488281 28.480469 6.074219 28.441406 6.101562 C 27.078125 7.128906 26.160156 7.308594 24.902344 6.992188 C 24.824219 6.972656 24.464844 6.847656 24.351562 6.804688 C 23.179688 6.363281 21.917969 6.210938 20.671875 6.359375 C 19.425781 6.503906 18.234375 6.949219 17.195312 7.652344 C 16.160156 8.355469 15.304688 9.296875 14.707031 10.398438 C 14.109375 11.5 13.785156 12.730469 13.761719 13.980469 C 13.734375 15.234375 14.011719 16.476562 14.566406 17.597656 C 15.125 18.722656 15.941406 19.695312 16.949219 20.4375 C 17.960938 21.179688 19.132812 21.671875 20.371094 21.867188 C 21.609375 22.0625 22.878906 21.957031 24.070312 21.558594 C 25.941406 21 26.960938 21.152344 28.136719 21.984375 C 28.371094 22.148438 28.9375 22.511719 29.054688 22.597656 C 30.394531 23.578125 31.945312 24.230469 33.585938 24.496094 C 35.226562 24.761719 36.90625 24.636719 38.488281 24.128906 C 40.070312 23.621094 41.507812 22.746094 42.683594 21.578125 C 43.863281 20.40625 44.746094 18.972656 45.261719 17.394531 C 45.78125 15.820312 45.914062 14.140625 45.65625 12.5 C 45.402344 10.863281 44.757812 9.304688 43.78125 7.960938 C 42.808594 6.617188 41.527344 5.523438 40.046875 4.769531 C 38.566406 4.015625 36.929688 3.625 35.269531 3.625 Z M 35.269531 3.625 " fill-opacity="1" fill-rule="nonzero"/><path fill="#ffffff" d="M 31.476562 15.753906 C 31.179688 16.046875 30.789062 16.230469 30.371094 16.277344 C 29.953125 16.320312 29.53125 16.222656 29.179688 15.996094 L 28.480469 17.105469 C 29.085938 17.484375 29.800781 17.652344 30.511719 17.578125 C 31.222656 17.5 31.886719 17.1875 32.398438 16.6875 Z M 30.222656 11.246094 C 29.644531 11.238281 29.078125 11.382812 28.578125 11.671875 C 28.082031 11.960938 27.667969 12.378906 27.390625 12.882812 C 27.113281 13.386719 26.976562 13.957031 26.996094 14.535156 C 27.019531 15.109375 27.195312 15.667969 27.507812 16.152344 L 33.261719 13.695312 C 33.097656 13.003906 32.710938 12.390625 32.160156 11.949219 C 31.609375 11.503906 30.929688 11.257812 30.222656 11.246094 Z M 28.316406 14.613281 C 28.273438 14.21875 28.355469 13.816406 28.558594 13.472656 C 28.761719 13.125 29.070312 12.855469 29.4375 12.695312 C 29.804688 12.539062 30.214844 12.503906 30.601562 12.597656 C 30.992188 12.691406 31.34375 12.90625 31.597656 13.210938 Z M 35.066406 9.816406 L 35.066406 15.941406 L 36.132812 16.382812 L 35.628906 17.589844 L 34.574219 17.152344 C 34.363281 17.0625 34.183594 16.910156 34.058594 16.714844 C 33.917969 16.488281 33.847656 16.226562 33.851562 15.960938 L 33.851562 9.816406 Z M 25.804688 9.816406 L 25.804688 15.941406 L 26.859375 16.382812 L 26.359375 17.589844 L 25.304688 17.152344 C 25.097656 17.058594 24.925781 16.910156 24.800781 16.722656 C 24.660156 16.496094 24.589844 16.234375 24.597656 15.96875 L 24.597656 9.816406 Z M 25.804688 9.816406 " fill-opacity="1" fill-rule="nonzero"/><path fill="#c7d540" d="M 40.300781 12.734375 C 40.523438 12.839844 40.71875 12.988281 40.882812 13.171875 C 41.046875 13.355469 41.171875 13.570312 41.253906 13.800781 C 41.335938 14.03125 41.367188 14.277344 41.355469 14.523438 C 41.339844 14.765625 41.277344 15.007812 41.171875 15.226562 L 42.347656 15.792969 C 42.667969 15.128906 42.746094 14.375 42.570312 13.660156 C 42.390625 12.945312 41.972656 12.3125 41.382812 11.875 C 40.789062 11.433594 40.066406 11.214844 39.328125 11.25 C 38.59375 11.285156 37.894531 11.578125 37.347656 12.070312 L 38.226562 13.039062 C 38.503906 12.785156 38.847656 12.621094 39.21875 12.566406 C 39.589844 12.515625 39.964844 12.570312 40.300781 12.734375 Z M 40.300781 12.734375 " fill-opacity="1" fill-rule="nonzero"/><path fill="#ffffff" d="M 38.683594 16.101562 C 38.234375 15.886719 37.890625 15.503906 37.726562 15.035156 C 37.5625 14.570312 37.59375 14.054688 37.804688 13.609375 L 36.628906 13.042969 C 36.316406 13.707031 36.238281 14.457031 36.414062 15.171875 C 36.59375 15.882812 37.011719 16.511719 37.601562 16.949219 C 38.1875 17.390625 38.910156 17.609375 39.644531 17.574219 C 40.378906 17.542969 41.078125 17.253906 41.625 16.761719 L 40.746094 15.800781 C 40.46875 16.050781 40.125 16.210938 39.757812 16.265625 C 39.390625 16.320312 39.015625 16.261719 38.683594 16.101562 Z M 23.394531 16.191406 L 23.394531 14.417969 C 23.394531 13.792969 23.210938 13.179688 22.863281 12.660156 C 22.515625 12.140625 22.019531 11.734375 21.441406 11.496094 C 20.863281 11.257812 20.226562 11.195312 19.613281 11.316406 C 19 11.4375 18.4375 11.738281 17.996094 12.183594 C 17.550781 12.625 17.25 13.1875 17.128906 13.800781 C 17.007812 14.414062 17.070312 15.050781 17.308594 15.628906 C 17.546875 16.207031 17.953125 16.699219 18.472656 17.046875 C 18.992188 17.394531 19.605469 17.578125 20.230469 17.578125 C 20.722656 17.578125 21.207031 17.464844 21.644531 17.246094 L 21.136719 16.058594 C 20.851562 16.214844 20.527344 16.296875 20.203125 16.289062 C 19.878906 16.285156 19.558594 16.195312 19.277344 16.03125 C 18.996094 15.863281 18.765625 15.628906 18.605469 15.347656 C 18.441406 15.0625 18.359375 14.742188 18.359375 14.417969 C 18.355469 14.113281 18.429688 13.808594 18.574219 13.539062 C 18.699219 13.304688 18.875 13.097656 19.085938 12.933594 C 19.300781 12.773438 19.542969 12.65625 19.804688 12.597656 C 19.941406 12.5625 20.085938 12.546875 20.226562 12.546875 C 20.722656 12.546875 21.199219 12.742188 21.554688 13.09375 C 21.90625 13.445312 22.101562 13.921875 22.105469 14.417969 L 22.105469 16.175781 C 22.097656 16.441406 22.167969 16.703125 22.308594 16.929688 C 22.433594 17.121094 22.613281 17.273438 22.824219 17.367188 L 23.417969 17.601562 L 23.921875 16.394531 Z M 23.394531 16.191406 " fill-opacity="1" fill-rule="nonzero"/></svg>