<svg xmlns="http://www.w3.org/2000/svg" xmlns:xlink="http://www.w3.org/1999/xlink" width="80" zoomAndPan="magnify" viewBox="0 0 60 30.000001" height="40" preserveAspectRatio="xMidYMid meet" version="1.0"><defs><clipPath id="329843d7af"><path d="M 0.96875 0 L 59.03125 0 L 59.03125 29.03125 L 0.96875 29.03125 Z M 0.96875 0 " clip-rule="nonzero"/></clipPath><clipPath id="59ef5d2c6a"><path d="M 1 1.160156 L 59 1.160156 L 59 28.015625 L 1 28.015625 Z M 1 1.160156 " clip-rule="nonzero"/></clipPath><clipPath id="e27ae1993a"><path d="M 14 15 L 54 15 L 54 23.539062 L 14 23.539062 Z M 14 15 " clip-rule="nonzero"/></clipPath><clipPath id="5873727560"><path d="M 5.519531 5.636719 L 51 5.636719 L 51 14 L 5.519531 14 Z M 5.519531 5.636719 " clip-rule="nonzero"/></clipPath><clipPath id="6f05c79fdc"><path d="M 5.519531 6 L 13 6 L 13 13 L 5.519531 13 Z M 5.519531 6 " clip-rule="nonzero"/></clipPath><clipPath id="8c37f17a65"><path d="M 48 16 L 54.035156 16 L 54.035156 23 L 48 23 Z M 48 16 " clip-rule="nonzero"/></clipPath></defs><g clip-path="url(#329843d7af)"><path fill="#ffffff" d="M 0.96875 0 L 59.03125 0 L 59.03125 29.03125 L 0.96875 29.03125 Z M 0.96875 0 " fill-opacity="1" fill-rule="nonzero"/><path fill="#ffffff" d="M 0.96875 0 L 59.03125 0 L 59.03125 29.03125 L 0.96875 29.03125 Z M 0.96875 0 " fill-opacity="1" fill-rule="nonzero"/></g><g clip-path="url(#59ef5d2c6a)"><path fill="#ffffff" d="M 1.066406 1.160156 L 58.933594 1.160156 L 58.933594 28.015625 L 1.066406 28.015625 Z M 1.066406 1.160156 " fill-opacity="1" fill-rule="nonzero"/></g><g clip-path="url(#e27ae1993a)"><path fill="#ffffff" d="M 14.910156 23.542969 L 14.910156 15.792969 L 22.960938 15.792969 L 23.824219 16.941406 L 24.71875 15.792969 L 53.914062 15.792969 L 53.914062 23.007812 C 53.914062 23.007812 53.152344 23.53125 52.269531 23.542969 L 36.097656 23.542969 L 35.125 22.320312 L 35.125 23.542969 L 31.9375 23.542969 L 31.9375 21.453125 C 31.9375 21.453125 31.5 21.746094 30.558594 21.746094 L 29.472656 21.746094 L 29.472656 23.542969 L 24.644531 23.542969 L 23.78125 22.371094 L 22.90625 23.542969 Z M 14.910156 23.542969 " fill-opacity="1" fill-rule="nonzero"/></g><g clip-path="url(#5873727560)"><path fill="#ffffff" d="M 5.519531 9.949219 L 7.332031 5.636719 L 10.472656 5.636719 L 11.5 8.050781 L 11.5 5.636719 L 15.402344 5.636719 L 16.011719 7.382812 L 16.605469 5.636719 L 34.113281 5.636719 L 34.113281 6.511719 C 34.113281 6.511719 35.035156 5.636719 36.546875 5.636719 L 42.226562 5.65625 L 43.242188 8.039062 L 43.242188 5.636719 L 46.507812 5.636719 L 47.40625 7.003906 L 47.40625 5.636719 L 50.699219 5.636719 L 50.699219 13.390625 L 47.40625 13.390625 L 46.546875 12.011719 L 46.546875 13.390625 L 41.75 13.390625 L 41.269531 12.167969 L 39.980469 12.167969 L 39.503906 13.390625 L 36.253906 13.390625 C 34.953125 13.390625 34.121094 12.527344 34.121094 12.527344 L 34.121094 13.390625 L 29.210938 13.390625 L 28.234375 12.167969 L 28.234375 13.390625 L 10.007812 13.390625 L 9.527344 12.167969 L 8.238281 12.167969 L 7.757812 13.390625 L 5.519531 13.390625 Z M 5.519531 9.949219 " fill-opacity="1" fill-rule="nonzero"/></g><g clip-path="url(#6f05c79fdc)"><path fill="#016fd0" d="M 7.972656 6.59375 L 5.527344 12.398438 L 7.121094 12.398438 L 7.570312 11.238281 L 10.195312 11.238281 L 10.648438 12.398438 L 12.277344 12.398438 L 9.832031 6.59375 Z M 8.878906 7.941406 L 9.679688 9.96875 L 8.078125 9.96875 Z M 8.878906 7.941406 " fill-opacity="1" fill-rule="nonzero"/></g><path fill="#016fd0" d="M 12.441406 12.394531 L 12.441406 6.589844 L 14.707031 6.601562 L 16.023438 10.339844 L 17.308594 6.589844 L 19.554688 6.589844 L 19.554688 12.394531 L 18.132812 12.394531 L 18.132812 8.117188 L 16.625 12.394531 L 15.378906 12.394531 L 13.863281 8.117188 L 13.863281 12.394531 Z M 12.441406 12.394531 " fill-opacity="1" fill-rule="nonzero"/><path fill="#016fd0" d="M 20.53125 12.394531 L 20.53125 6.589844 L 25.171875 6.589844 L 25.171875 7.886719 L 21.972656 7.886719 L 21.972656 8.882812 L 25.09375 8.882812 L 25.09375 10.101562 L 21.964844 10.101562 L 21.964844 11.132812 L 25.167969 11.132812 L 25.167969 12.394531 Z M 20.53125 12.394531 " fill-opacity="1" fill-rule="nonzero"/><path fill="#016fd0" d="M 25.992188 6.59375 L 25.992188 12.398438 L 27.414062 12.398438 L 27.414062 10.335938 L 28.011719 10.335938 L 29.71875 12.398438 L 31.457031 12.398438 L 29.582031 10.261719 C 30.351562 10.199219 31.144531 9.523438 31.144531 8.480469 C 31.144531 7.257812 30.203125 6.601562 29.15625 6.601562 Z M 27.414062 7.890625 L 29.039062 7.890625 C 29.429688 7.890625 29.714844 8.203125 29.714844 8.5 C 29.714844 8.886719 29.34375 9.109375 29.058594 9.109375 L 27.414062 9.109375 Z M 27.414062 7.890625 " fill-opacity="1" fill-rule="nonzero"/><path fill="#016fd0" d="M 31.726562 6.589844 L 33.179688 6.589844 L 33.179688 12.394531 L 31.726562 12.394531 Z M 31.726562 6.589844 " fill-opacity="1" fill-rule="nonzero"/><path fill="#016fd0" d="M 36.625 12.394531 L 36.308594 12.394531 C 34.789062 12.394531 33.871094 11.175781 33.871094 9.519531 C 33.871094 7.820312 34.785156 6.59375 36.695312 6.59375 L 38.269531 6.59375 L 38.269531 7.96875 L 36.644531 7.96875 C 35.867188 7.96875 35.3125 8.589844 35.3125 9.535156 C 35.3125 10.65625 35.945312 11.128906 36.847656 11.128906 L 37.21875 11.128906 Z M 36.625 12.394531 " fill-opacity="1" fill-rule="nonzero"/><path fill="#016fd0" d="M 39.71875 6.59375 L 37.273438 12.394531 L 38.863281 12.394531 L 39.316406 11.230469 L 41.941406 11.230469 L 42.390625 12.394531 L 44.019531 12.394531 L 41.574219 6.589844 Z M 40.621094 7.941406 L 41.421875 9.96875 L 39.820312 9.96875 Z M 40.621094 7.941406 " fill-opacity="1" fill-rule="nonzero"/><path fill="#016fd0" d="M 44.183594 12.394531 L 44.183594 6.589844 L 45.992188 6.589844 L 48.300781 10.238281 L 48.300781 6.589844 L 49.722656 6.589844 L 49.722656 12.394531 L 47.972656 12.394531 L 45.605469 8.652344 L 45.605469 12.394531 Z M 44.183594 12.394531 " fill-opacity="1" fill-rule="nonzero"/><path fill="#016fd0" d="M 15.886719 22.546875 L 15.886719 16.742188 L 20.53125 16.742188 L 20.53125 18.039062 L 17.328125 18.039062 L 17.328125 19.035156 L 20.457031 19.035156 L 20.457031 20.257812 L 17.328125 20.257812 L 17.328125 21.285156 L 20.53125 21.285156 L 20.53125 22.546875 Z M 15.886719 22.546875 " fill-opacity="1" fill-rule="nonzero"/><path fill="#016fd0" d="M 38.628906 22.546875 L 38.628906 16.742188 L 43.269531 16.742188 L 43.269531 18.039062 L 40.066406 18.039062 L 40.066406 19.035156 L 43.183594 19.035156 L 43.183594 20.257812 L 40.066406 20.257812 L 40.066406 21.285156 L 43.269531 21.285156 L 43.269531 22.546875 Z M 38.628906 22.546875 " fill-opacity="1" fill-rule="nonzero"/><path fill="#016fd0" d="M 20.710938 22.546875 L 22.96875 19.683594 L 20.65625 16.742188 L 22.445312 16.742188 L 23.824219 18.558594 L 25.207031 16.742188 L 26.929688 16.742188 L 24.644531 19.644531 L 26.910156 22.542969 L 25.121094 22.542969 L 23.78125 20.757812 L 22.476562 22.542969 Z M 20.710938 22.546875 " fill-opacity="1" fill-rule="nonzero"/><path fill="#016fd0" d="M 27.078125 16.75 L 27.078125 22.554688 L 28.539062 22.554688 L 28.539062 20.722656 L 30.039062 20.722656 C 31.304688 20.722656 32.265625 20.035156 32.265625 18.703125 C 32.265625 17.601562 31.515625 16.753906 30.222656 16.753906 L 27.078125 16.753906 Z M 28.539062 18.058594 L 30.117188 18.058594 C 30.523438 18.058594 30.820312 18.316406 30.820312 18.726562 C 30.820312 19.113281 30.53125 19.394531 30.113281 19.394531 L 28.539062 19.394531 Z M 28.539062 18.058594 " fill-opacity="1" fill-rule="nonzero"/><path fill="#016fd0" d="M 32.878906 16.742188 L 32.878906 22.546875 L 34.300781 22.546875 L 34.300781 20.484375 L 34.894531 20.484375 L 36.605469 22.546875 L 38.339844 22.546875 L 36.46875 20.410156 C 37.234375 20.347656 38.03125 19.671875 38.03125 18.628906 C 38.03125 17.40625 37.089844 16.75 36.042969 16.75 Z M 34.304688 18.046875 L 35.929688 18.046875 C 36.316406 18.046875 36.605469 18.355469 36.605469 18.652344 C 36.605469 19.039062 36.234375 19.261719 35.949219 19.261719 L 34.304688 19.261719 Z M 34.304688 18.046875 " fill-opacity="1" fill-rule="nonzero"/><path fill="#016fd0" d="M 43.929688 22.546875 L 43.929688 21.285156 L 46.777344 21.285156 C 47.199219 21.285156 47.378906 21.054688 47.378906 20.800781 C 47.378906 20.558594 47.199219 20.3125 46.777344 20.3125 L 45.492188 20.3125 C 44.375 20.3125 43.75 19.617188 43.75 18.574219 C 43.75 17.644531 44.324219 16.75 45.984375 16.75 L 48.753906 16.75 L 48.15625 18.054688 L 45.757812 18.054688 C 45.304688 18.054688 45.164062 18.300781 45.164062 18.535156 C 45.164062 18.777344 45.335938 19.039062 45.6875 19.039062 L 47.035156 19.039062 C 48.28125 19.039062 48.820312 19.761719 48.820312 20.707031 C 48.820312 21.722656 48.21875 22.554688 46.96875 22.554688 L 43.929688 22.554688 Z M 43.929688 22.546875 " fill-opacity="1" fill-rule="nonzero"/><g clip-path="url(#8c37f17a65)"><path fill="#016fd0" d="M 49.152344 22.546875 L 49.152344 21.285156 L 52 21.285156 C 52.421875 21.285156 52.601562 21.054688 52.601562 20.800781 C 52.601562 20.558594 52.421875 20.3125 52 20.3125 L 50.714844 20.3125 C 49.597656 20.3125 48.972656 19.617188 48.972656 18.574219 C 48.972656 17.644531 49.542969 16.75 51.203125 16.75 L 53.972656 16.75 L 53.378906 18.054688 L 50.980469 18.054688 C 50.523438 18.054688 50.382812 18.300781 50.382812 18.535156 C 50.382812 18.777344 50.558594 19.039062 50.90625 19.039062 L 52.257812 19.039062 C 53.503906 19.039062 54.042969 19.761719 54.042969 20.707031 C 54.042969 21.722656 53.441406 22.554688 52.1875 22.554688 L 49.152344 22.554688 Z M 49.152344 22.546875 " fill-opacity="1" fill-rule="nonzero"/></g></svg>