<svg xmlns="http://www.w3.org/2000/svg" xmlns:xlink="http://www.w3.org/1999/xlink" width="80" zoomAndPan="magnify" viewBox="0 0 60 30.000001" height="40" preserveAspectRatio="xMidYMid meet" version="1.0"><defs><clipPath id="c48ab01916"><path d="M 0.96875 0 L 59.03125 0 L 59.03125 29.03125 L 0.96875 29.03125 Z M 0.96875 0 " clip-rule="nonzero"/></clipPath><clipPath id="f5f05bdbc9"><path d="M 3 0 L 56.710938 0 L 56.710938 29.03125 L 3 29.03125 Z M 3 0 " clip-rule="nonzero"/></clipPath></defs><g clip-path="url(#c48ab01916)"><path fill="#ffffff" d="M 0.96875 0 L 59.03125 0 L 59.03125 29.03125 L 0.96875 29.03125 Z M 0.96875 0 " fill-opacity="1" fill-rule="nonzero"/><path fill="#ffffff" d="M 0.96875 0 L 59.03125 0 L 59.03125 29.03125 L 0.96875 29.03125 Z M 0.96875 0 " fill-opacity="1" fill-rule="nonzero"/></g><g clip-path="url(#f5f05bdbc9)"><path fill="#ffffff" d="M 3 -12.550781 L 56.710938 -12.550781 L 56.710938 41.160156 L 3 41.160156 Z M 3 -12.550781 " fill-opacity="1" fill-rule="nonzero"/></g><path fill="#b3131b" d="M 25.503906 24.144531 L 5.683594 24.152344 L 5.683594 24.105469 C 5.683594 24.078125 5.71875 23.910156 5.753906 23.726562 C 5.792969 23.546875 5.855469 23.257812 5.890625 23.089844 C 5.925781 22.917969 5.984375 22.625 6.019531 22.441406 C 6.058594 22.257812 6.121094 21.953125 6.160156 21.761719 C 6.199219 21.570312 6.261719 21.269531 6.296875 21.089844 C 6.332031 20.914062 6.390625 20.625 6.429688 20.445312 C 6.46875 20.269531 6.53125 19.960938 6.570312 19.765625 C 6.609375 19.566406 6.671875 19.265625 6.707031 19.09375 C 6.742188 18.925781 6.796875 18.660156 6.828125 18.507812 C 6.859375 18.359375 6.902344 18.152344 6.921875 18.054688 C 6.9375 17.957031 6.996094 17.664062 7.050781 17.410156 C 7.105469 17.152344 7.164062 16.863281 7.183594 16.761719 C 7.203125 16.664062 7.261719 16.375 7.316406 16.117188 C 7.371094 15.863281 7.429688 15.570312 7.449219 15.472656 C 7.464844 15.375 7.527344 15.082031 7.582031 14.828125 C 7.636719 14.570312 7.695312 14.285156 7.710938 14.191406 C 7.726562 14.101562 7.777344 13.863281 7.816406 13.667969 C 7.859375 13.46875 7.933594 13.097656 7.988281 12.84375 C 8.042969 12.585938 8.132812 12.140625 8.191406 11.847656 C 8.25 11.558594 8.320312 11.214844 8.347656 11.085938 C 8.375 10.953125 8.421875 10.714844 8.453125 10.558594 C 8.488281 10.402344 8.546875 10.117188 8.585938 9.925781 C 8.625 9.734375 8.691406 9.421875 8.730469 9.230469 C 8.769531 9.039062 8.828125 8.746094 8.863281 8.574219 C 8.898438 8.402344 8.957031 8.117188 8.996094 7.941406 C 9.03125 7.761719 9.097656 7.449219 9.140625 7.246094 C 9.179688 7.042969 9.25 6.730469 9.292969 6.554688 C 9.335938 6.375 9.398438 6.160156 9.429688 6.074219 C 9.460938 5.988281 9.550781 5.804688 9.625 5.664062 L 9.761719 5.40625 L 9.886719 5.246094 C 9.953125 5.15625 10.074219 5.015625 10.15625 4.933594 C 10.238281 4.847656 10.371094 4.722656 10.457031 4.652344 C 10.542969 4.585938 10.667969 4.492188 10.734375 4.445312 C 10.800781 4.398438 10.929688 4.320312 11.023438 4.269531 C 11.113281 4.21875 11.246094 4.148438 11.308594 4.117188 C 11.375 4.089844 11.511719 4.03125 11.609375 3.992188 C 11.707031 3.957031 11.898438 3.890625 12.03125 3.851562 C 12.160156 3.8125 12.410156 3.75 12.578125 3.71875 C 12.75 3.683594 13.019531 3.640625 13.179688 3.617188 L 13.46875 3.578125 L 33.300781 3.570312 L 53.128906 3.5625 L 53.128906 3.613281 C 53.128906 3.636719 53.097656 3.808594 53.058594 3.988281 C 53.019531 4.167969 52.953125 4.480469 52.914062 4.675781 C 52.875 4.875 52.8125 5.160156 52.78125 5.308594 C 52.75 5.460938 52.691406 5.75 52.648438 5.957031 C 52.605469 6.160156 52.542969 6.472656 52.507812 6.648438 C 52.46875 6.828125 52.410156 7.117188 52.375 7.292969 C 52.335938 7.472656 52.277344 7.761719 52.242188 7.941406 C 52.203125 8.117188 52.144531 8.398438 52.113281 8.5625 C 52.078125 8.726562 52.019531 9.023438 51.980469 9.21875 C 51.9375 9.417969 51.875 9.730469 51.835938 9.914062 C 51.796875 10.097656 51.738281 10.382812 51.703125 10.546875 C 51.667969 10.710938 51.609375 11.007812 51.570312 11.203125 C 51.527344 11.402344 51.464844 11.714844 51.425781 11.898438 C 51.386719 12.082031 51.328125 12.363281 51.296875 12.519531 C 51.265625 12.675781 51.203125 12.972656 51.164062 13.175781 C 51.121094 13.378906 51.0625 13.675781 51.027344 13.835938 C 50.996094 13.992188 50.9375 14.273438 50.898438 14.457031 C 50.863281 14.640625 50.796875 14.957031 50.753906 15.160156 C 50.710938 15.367188 50.652344 15.65625 50.621094 15.808594 C 50.589844 15.957031 50.53125 16.242188 50.492188 16.441406 C 50.449219 16.636719 50.386719 16.949219 50.347656 17.132812 C 50.308594 17.316406 50.25 17.609375 50.214844 17.78125 C 50.179688 17.949219 50.121094 18.246094 50.082031 18.4375 C 50.039062 18.628906 49.976562 18.941406 49.9375 19.128906 C 49.898438 19.320312 49.839844 19.605469 49.808594 19.765625 C 49.773438 19.921875 49.714844 20.210938 49.675781 20.410156 C 49.636719 20.605469 49.570312 20.917969 49.53125 21.101562 L 49.457031 21.433594 L 49.371094 21.664062 C 49.324219 21.789062 49.253906 21.957031 49.214844 22.035156 C 49.171875 22.113281 49.09375 22.253906 49.035156 22.34375 C 48.976562 22.4375 48.894531 22.554688 48.851562 22.605469 C 48.808594 22.65625 48.683594 22.789062 48.574219 22.902344 L 48.371094 23.105469 L 48.175781 23.242188 C 48.070312 23.316406 47.953125 23.394531 47.921875 23.414062 C 47.886719 23.433594 47.757812 23.496094 47.632812 23.558594 C 47.507812 23.621094 47.335938 23.699219 47.246094 23.734375 C 47.15625 23.769531 46.976562 23.828125 46.847656 23.863281 C 46.722656 23.902344 46.585938 23.9375 46.546875 23.945312 C 46.503906 23.953125 46.367188 23.980469 46.238281 24.007812 C 46.109375 24.035156 45.851562 24.074219 45.664062 24.097656 L 45.320312 24.136719 Z M 18.453125 19.035156 L 18.96875 19.035156 L 18.984375 18.996094 C 18.992188 18.976562 18.996094 18.925781 18.996094 18.886719 C 18.996094 18.847656 19.015625 18.707031 19.035156 18.574219 C 19.054688 18.441406 19.105469 18.128906 19.144531 17.886719 C 19.183594 17.644531 19.242188 17.277344 19.273438 17.074219 C 19.304688 16.871094 19.34375 16.609375 19.359375 16.496094 C 19.375 16.378906 19.394531 16.285156 19.402344 16.285156 C 19.410156 16.285156 19.445312 16.335938 19.476562 16.398438 L 19.539062 16.511719 L 19.804688 16.777344 L 19.964844 16.84375 L 20.128906 16.910156 L 20.324219 16.933594 L 20.519531 16.960938 L 20.769531 16.945312 L 21.015625 16.929688 L 21.285156 16.859375 L 21.550781 16.789062 L 21.695312 16.726562 C 21.773438 16.6875 21.914062 16.609375 22.007812 16.550781 L 22.175781 16.441406 L 22.332031 16.285156 C 22.417969 16.199219 22.539062 16.0625 22.601562 15.980469 C 22.664062 15.898438 22.714844 15.824219 22.714844 15.816406 C 22.714844 15.808594 22.746094 15.757812 22.785156 15.703125 C 22.820312 15.648438 22.898438 15.496094 22.953125 15.363281 C 23.007812 15.234375 23.097656 14.996094 23.148438 14.839844 L 23.242188 14.550781 L 23.289062 14.304688 C 23.316406 14.167969 23.351562 13.941406 23.363281 13.800781 L 23.390625 13.546875 L 23.359375 13.117188 L 23.3125 12.902344 L 23.261719 12.6875 L 23.179688 12.527344 L 23.097656 12.363281 L 22.785156 12.035156 L 22.601562 11.9375 L 22.414062 11.84375 L 22.210938 11.792969 L 22.007812 11.746094 L 21.601562 11.714844 L 21.371094 11.742188 L 21.144531 11.769531 L 20.960938 11.816406 L 20.773438 11.863281 L 20.613281 11.9375 C 20.523438 11.976562 20.394531 12.046875 20.328125 12.089844 C 20.257812 12.132812 20.1875 12.183594 20.167969 12.203125 C 20.152344 12.222656 20.109375 12.253906 20.074219 12.277344 L 20.011719 12.316406 L 20.054688 12.109375 C 20.078125 11.992188 20.097656 11.882812 20.101562 11.867188 L 20.101562 11.835938 L 19.222656 11.835938 L 19.144531 12.320312 C 19.101562 12.589844 19.035156 13 18.996094 13.238281 C 18.957031 13.472656 18.898438 13.828125 18.863281 14.027344 C 18.828125 14.222656 18.769531 14.574219 18.730469 14.804688 C 18.691406 15.03125 18.628906 15.398438 18.585938 15.617188 C 18.546875 15.832031 18.488281 16.148438 18.457031 16.320312 C 18.425781 16.492188 18.367188 16.816406 18.324219 17.039062 C 18.285156 17.261719 18.21875 17.617188 18.179688 17.828125 C 18.136719 18.039062 18.074219 18.371094 18.035156 18.570312 C 17.996094 18.765625 17.957031 18.953125 17.949219 18.980469 L 17.9375 19.035156 Z M 20.671875 16.269531 L 20.472656 16.28125 L 20.339844 16.257812 L 20.210938 16.238281 L 20.078125 16.175781 L 19.945312 16.117188 L 19.757812 15.9375 L 19.707031 15.820312 C 19.675781 15.753906 19.636719 15.640625 19.621094 15.570312 L 19.589844 15.441406 L 19.601562 15.234375 L 19.617188 15.03125 L 19.675781 14.707031 C 19.710938 14.53125 19.773438 14.195312 19.8125 13.964844 C 19.851562 13.734375 19.914062 13.398438 19.949219 13.214844 L 20.011719 12.886719 L 20.148438 12.769531 C 20.226562 12.707031 20.34375 12.625 20.414062 12.585938 L 20.542969 12.511719 L 20.710938 12.460938 L 20.878906 12.40625 L 21.097656 12.394531 L 21.3125 12.382812 L 21.488281 12.421875 L 21.664062 12.457031 L 21.789062 12.515625 L 21.910156 12.570312 L 22.121094 12.78125 L 22.175781 12.890625 C 22.207031 12.949219 22.25 13.070312 22.273438 13.15625 L 22.3125 13.308594 L 22.300781 13.761719 L 22.289062 14.21875 L 22.226562 14.484375 C 22.191406 14.632812 22.128906 14.859375 22.082031 14.988281 L 22 15.222656 L 21.902344 15.410156 C 21.847656 15.515625 21.761719 15.65625 21.710938 15.722656 C 21.664062 15.789062 21.585938 15.878906 21.539062 15.917969 C 21.492188 15.957031 21.417969 16.019531 21.367188 16.054688 L 21.28125 16.121094 L 21.078125 16.1875 L 20.875 16.257812 Z M 25.652344 16.929688 L 25.917969 16.929688 L 26.179688 16.90625 C 26.328125 16.894531 26.5625 16.867188 26.707031 16.847656 C 26.855469 16.824219 27.105469 16.78125 27.265625 16.746094 L 27.558594 16.679688 L 27.574219 16.574219 C 27.582031 16.511719 27.613281 16.335938 27.648438 16.179688 L 27.707031 15.894531 L 27.691406 15.882812 L 27.679688 15.871094 L 27.589844 15.914062 C 27.539062 15.9375 27.386719 15.992188 27.25 16.039062 L 26.996094 16.121094 L 26.734375 16.171875 L 26.46875 16.222656 L 26.050781 16.226562 L 25.628906 16.226562 L 25.484375 16.179688 C 25.40625 16.15625 25.289062 16.109375 25.226562 16.078125 L 25.113281 16.019531 L 25.015625 15.933594 L 24.921875 15.851562 L 24.773438 15.59375 L 24.726562 15.429688 L 24.683594 15.269531 L 24.683594 14.96875 L 24.679688 14.671875 L 24.722656 14.40625 L 24.765625 14.136719 L 25.484375 14.105469 L 26.820312 14.113281 L 28.152344 14.121094 L 28.195312 13.949219 C 28.214844 13.855469 28.25 13.664062 28.269531 13.519531 L 28.304688 13.261719 L 28.304688 12.824219 L 28.269531 12.660156 L 28.230469 12.496094 L 28.167969 12.386719 C 28.132812 12.328125 28.070312 12.242188 28.03125 12.195312 C 27.992188 12.152344 27.921875 12.085938 27.875 12.054688 C 27.828125 12.019531 27.734375 11.964844 27.667969 11.929688 L 27.546875 11.867188 L 27.339844 11.816406 L 27.128906 11.765625 L 26.871094 11.738281 L 26.613281 11.714844 L 26.375 11.730469 L 26.132812 11.746094 L 25.84375 11.800781 L 25.558594 11.855469 L 25.378906 11.929688 C 25.277344 11.96875 25.128906 12.039062 25.042969 12.089844 C 24.957031 12.136719 24.835938 12.214844 24.777344 12.265625 C 24.71875 12.3125 24.617188 12.40625 24.550781 12.472656 C 24.484375 12.535156 24.386719 12.65625 24.332031 12.734375 C 24.277344 12.8125 24.195312 12.953125 24.148438 13.046875 C 24.101562 13.136719 24.042969 13.265625 24.015625 13.332031 C 23.988281 13.398438 23.9375 13.53125 23.902344 13.632812 C 23.867188 13.730469 23.816406 13.917969 23.785156 14.050781 C 23.753906 14.179688 23.710938 14.398438 23.6875 14.53125 L 23.652344 14.773438 L 23.652344 15.484375 L 23.6875 15.640625 C 23.707031 15.726562 23.746094 15.855469 23.773438 15.925781 C 23.800781 16 23.847656 16.105469 23.882812 16.164062 C 23.917969 16.226562 23.988281 16.320312 24.042969 16.378906 C 24.097656 16.433594 24.195312 16.523438 24.261719 16.570312 C 24.328125 16.621094 24.445312 16.6875 24.523438 16.722656 L 24.664062 16.789062 L 24.859375 16.835938 C 24.96875 16.859375 25.132812 16.890625 25.222656 16.902344 C 25.316406 16.914062 25.507812 16.925781 25.652344 16.929688 Z M 26.105469 13.558594 C 25.441406 13.558594 24.898438 13.554688 24.898438 13.546875 C 24.898438 13.542969 24.925781 13.460938 24.960938 13.363281 C 24.996094 13.265625 25.054688 13.125 25.097656 13.046875 L 25.167969 12.902344 L 25.328125 12.746094 L 25.484375 12.585938 L 25.640625 12.511719 C 25.726562 12.472656 25.839844 12.429688 25.894531 12.414062 C 25.945312 12.402344 26.097656 12.382812 26.230469 12.375 L 26.46875 12.359375 L 26.835938 12.40625 L 26.972656 12.46875 L 27.105469 12.527344 L 27.179688 12.609375 C 27.21875 12.652344 27.265625 12.714844 27.285156 12.75 L 27.320312 12.8125 L 27.339844 12.953125 L 27.363281 13.09375 L 27.339844 13.328125 L 27.3125 13.558594 Z M 33.28125 16.929688 L 33.546875 16.929688 L 33.84375 16.894531 C 34.007812 16.875 34.230469 16.84375 34.332031 16.824219 C 34.4375 16.804688 34.601562 16.765625 34.703125 16.734375 C 34.804688 16.707031 34.898438 16.675781 34.90625 16.667969 C 34.917969 16.65625 34.945312 16.550781 34.972656 16.425781 C 34.996094 16.300781 35.027344 16.136719 35.039062 16.058594 C 35.050781 15.980469 35.058594 15.910156 35.054688 15.90625 C 35.050781 15.898438 35.03125 15.90625 35.015625 15.921875 C 34.996094 15.933594 34.878906 15.984375 34.753906 16.03125 L 34.523438 16.117188 L 34.191406 16.179688 L 33.863281 16.242188 L 33.585938 16.234375 L 33.304688 16.222656 L 33.144531 16.167969 L 32.988281 16.113281 L 32.863281 16.007812 L 32.742188 15.898438 L 32.660156 15.75 L 32.578125 15.605469 L 32.5 15.207031 L 32.5 14.695312 L 32.550781 14.382812 L 32.597656 14.074219 L 32.644531 13.90625 C 32.671875 13.8125 32.703125 13.707031 32.714844 13.667969 C 32.726562 13.628906 32.769531 13.515625 32.8125 13.414062 C 32.855469 13.316406 32.933594 13.164062 32.984375 13.078125 L 33.078125 12.917969 L 33.304688 12.683594 L 33.425781 12.609375 L 33.546875 12.53125 L 33.703125 12.484375 C 33.785156 12.457031 33.9375 12.425781 34.035156 12.410156 L 34.214844 12.382812 L 34.746094 12.40625 L 35.054688 12.46875 L 35.367188 12.53125 L 35.496094 12.578125 C 35.5625 12.605469 35.625 12.625 35.628906 12.625 C 35.632812 12.625 35.648438 12.539062 35.664062 12.429688 C 35.683594 12.320312 35.710938 12.140625 35.730469 12.03125 C 35.75 11.921875 35.761719 11.828125 35.757812 11.824219 C 35.75 11.816406 35.65625 11.800781 35.546875 11.789062 C 35.441406 11.777344 35.144531 11.753906 34.890625 11.742188 L 34.433594 11.714844 L 34.109375 11.738281 L 33.785156 11.765625 L 33.546875 11.816406 L 33.304688 11.863281 L 33.152344 11.925781 C 33.066406 11.960938 32.941406 12.019531 32.875 12.0625 C 32.808594 12.101562 32.722656 12.15625 32.683594 12.183594 C 32.648438 12.210938 32.535156 12.3125 32.433594 12.414062 L 32.25 12.59375 L 32.144531 12.742188 C 32.089844 12.824219 31.992188 12.996094 31.929688 13.125 L 31.816406 13.355469 L 31.726562 13.605469 C 31.679688 13.746094 31.613281 13.972656 31.578125 14.109375 L 31.515625 14.359375 L 31.492188 14.585938 L 31.472656 14.816406 L 31.472656 15.414062 L 31.496094 15.585938 L 31.515625 15.761719 L 31.589844 15.9375 L 31.660156 16.117188 L 31.742188 16.246094 L 31.828125 16.375 L 31.957031 16.507812 L 32.089844 16.636719 L 32.230469 16.710938 L 32.371094 16.78125 L 32.554688 16.832031 C 32.652344 16.863281 32.800781 16.894531 32.878906 16.90625 C 32.953125 16.914062 33.136719 16.925781 33.28125 16.929688 Z M 37.226562 16.917969 L 37.550781 16.910156 L 37.753906 16.859375 L 37.957031 16.804688 L 38.089844 16.742188 C 38.164062 16.710938 38.28125 16.640625 38.355469 16.59375 C 38.425781 16.546875 38.539062 16.453125 38.601562 16.390625 C 38.667969 16.324219 38.765625 16.214844 38.816406 16.148438 C 38.871094 16.078125 38.914062 16.023438 38.917969 16.027344 C 38.921875 16.03125 38.910156 16.140625 38.890625 16.273438 C 38.875 16.40625 38.859375 16.578125 38.859375 16.660156 L 38.859375 16.8125 L 39.738281 16.8125 L 39.75 16.46875 L 39.765625 16.128906 L 39.828125 15.6875 C 39.863281 15.445312 39.917969 15.082031 39.953125 14.886719 C 39.984375 14.6875 40.042969 14.355469 40.082031 14.144531 C 40.121094 13.933594 40.179688 13.605469 40.214844 13.414062 L 40.28125 13.070312 L 40.28125 12.769531 L 40.285156 12.46875 L 40.214844 12.332031 L 40.148438 12.191406 L 40.054688 12.105469 L 39.964844 12.015625 L 39.8125 11.941406 L 39.660156 11.863281 L 39.4375 11.8125 L 39.210938 11.765625 L 38.898438 11.742188 L 38.589844 11.71875 L 38.191406 11.742188 C 37.96875 11.753906 37.660156 11.78125 37.503906 11.800781 L 37.214844 11.835938 L 36.824219 11.835938 L 36.792969 11.976562 C 36.777344 12.050781 36.734375 12.230469 36.695312 12.375 C 36.660156 12.519531 36.632812 12.640625 36.636719 12.644531 C 36.640625 12.648438 36.746094 12.625 36.871094 12.589844 C 36.992188 12.558594 37.257812 12.503906 37.453125 12.46875 L 37.8125 12.410156 L 38.136719 12.394531 L 38.460938 12.382812 L 38.671875 12.417969 L 38.878906 12.453125 L 39.019531 12.523438 L 39.15625 12.589844 L 39.3125 12.824219 L 39.3125 13.1875 L 39.269531 13.390625 L 39.230469 13.589844 L 37.503906 13.597656 L 37.21875 13.671875 C 37.066406 13.714844 36.894531 13.773438 36.835938 13.796875 C 36.78125 13.824219 36.726562 13.847656 36.714844 13.847656 C 36.703125 13.847656 36.609375 13.898438 36.511719 13.960938 L 36.328125 14.074219 L 36.183594 14.21875 C 36.101562 14.296875 36.003906 14.414062 35.957031 14.480469 C 35.914062 14.546875 35.839844 14.683594 35.796875 14.785156 L 35.71875 14.972656 L 35.679688 15.179688 L 35.644531 15.386719 L 35.644531 15.828125 L 35.679688 16.007812 L 35.714844 16.191406 L 35.777344 16.308594 C 35.8125 16.375 35.878906 16.472656 35.925781 16.523438 L 36.003906 16.617188 L 36.148438 16.703125 L 36.292969 16.792969 L 36.457031 16.835938 C 36.546875 16.863281 36.683594 16.894531 36.761719 16.90625 L 36.902344 16.929688 Z M 37.527344 16.25 L 37.335938 16.261719 L 37.207031 16.226562 C 37.136719 16.210938 37.03125 16.171875 36.972656 16.140625 L 36.863281 16.085938 L 36.804688 16.015625 C 36.769531 15.976562 36.722656 15.898438 36.691406 15.84375 L 36.640625 15.746094 L 36.632812 15.515625 L 36.621094 15.289062 L 36.664062 15.148438 C 36.683594 15.070312 36.738281 14.9375 36.777344 14.851562 L 36.855469 14.695312 L 37.144531 14.40625 L 37.300781 14.335938 L 37.453125 14.261719 L 37.644531 14.214844 L 37.839844 14.167969 L 39.039062 14.167969 L 39.074219 14.183594 L 39.113281 14.199219 L 39.082031 14.386719 C 39.0625 14.492188 39.023438 14.679688 38.988281 14.804688 C 38.953125 14.925781 38.894531 15.109375 38.855469 15.210938 C 38.816406 15.308594 38.785156 15.398438 38.785156 15.40625 C 38.785156 15.414062 38.746094 15.488281 38.699219 15.566406 L 38.609375 15.714844 L 38.464844 15.855469 C 38.386719 15.933594 38.3125 16 38.304688 16 C 38.292969 16 38.246094 16.023438 38.195312 16.058594 L 38.105469 16.117188 L 37.914062 16.179688 L 37.71875 16.242188 Z M 45.332031 16.925781 L 45.5625 16.929688 L 45.777344 16.894531 C 45.894531 16.875 46.046875 16.84375 46.113281 16.828125 C 46.179688 16.808594 46.296875 16.761719 46.378906 16.71875 L 46.519531 16.644531 L 46.644531 16.539062 L 46.769531 16.429688 L 46.898438 16.253906 C 46.96875 16.160156 47.035156 16.066406 47.042969 16.046875 L 47.058594 16.011719 L 47.046875 16.128906 C 47.039062 16.195312 47.023438 16.304688 47.011719 16.367188 C 47 16.433594 46.984375 16.5625 46.976562 16.648438 L 46.960938 16.8125 L 47.898438 16.8125 L 47.898438 16.488281 L 47.972656 15.878906 C 48.011719 15.542969 48.070312 15.097656 48.101562 14.886719 C 48.132812 14.675781 48.183594 14.375 48.210938 14.21875 C 48.238281 14.058594 48.289062 13.773438 48.320312 13.582031 C 48.355469 13.394531 48.414062 13.058594 48.453125 12.84375 C 48.492188 12.625 48.558594 12.28125 48.59375 12.078125 C 48.632812 11.871094 48.691406 11.554688 48.726562 11.371094 C 48.761719 11.1875 48.820312 10.863281 48.863281 10.652344 C 48.902344 10.445312 48.960938 10.148438 48.992188 9.996094 C 49.027344 9.84375 49.050781 9.714844 49.050781 9.703125 L 49.050781 9.6875 L 48.023438 9.6875 L 48.007812 9.835938 C 48 9.917969 47.960938 10.1875 47.921875 10.4375 C 47.882812 10.6875 47.816406 11.085938 47.777344 11.324219 C 47.738281 11.558594 47.699219 11.789062 47.695312 11.832031 L 47.679688 11.914062 L 47.640625 11.894531 C 47.617188 11.886719 47.496094 11.851562 47.371094 11.820312 L 47.144531 11.765625 L 46.832031 11.742188 L 46.519531 11.714844 L 46.257812 11.742188 L 45.992188 11.765625 L 45.753906 11.824219 L 45.511719 11.886719 L 45.285156 11.996094 L 45.058594 12.109375 L 44.890625 12.230469 L 44.722656 12.355469 L 44.578125 12.511719 C 44.496094 12.597656 44.382812 12.738281 44.320312 12.824219 L 44.210938 12.984375 L 44.078125 13.253906 C 44.007812 13.402344 43.921875 13.597656 43.886719 13.691406 C 43.851562 13.78125 43.789062 13.988281 43.75 14.144531 L 43.675781 14.429688 L 43.640625 14.800781 L 43.601562 15.171875 L 43.628906 15.472656 L 43.65625 15.769531 L 43.6875 15.878906 C 43.707031 15.9375 43.746094 16.042969 43.773438 16.113281 L 43.824219 16.238281 L 43.914062 16.363281 L 44.007812 16.488281 L 44.21875 16.660156 L 44.363281 16.734375 C 44.441406 16.773438 44.574219 16.820312 44.65625 16.84375 C 44.742188 16.867188 44.875 16.894531 44.957031 16.90625 C 45.039062 16.917969 45.207031 16.925781 45.332031 16.925781 Z M 45.742188 16.25 L 45.5625 16.257812 L 45.4375 16.238281 C 45.371094 16.226562 45.265625 16.191406 45.199219 16.164062 L 45.082031 16.113281 L 44.984375 16.035156 L 44.886719 15.953125 L 44.8125 15.816406 L 44.742188 15.675781 L 44.707031 15.519531 L 44.675781 15.363281 L 44.675781 15.054688 L 44.679688 14.742188 L 44.71875 14.46875 L 44.757812 14.191406 L 44.816406 14 C 44.851562 13.894531 44.878906 13.796875 44.878906 13.78125 C 44.878906 13.765625 44.910156 13.679688 44.949219 13.589844 C 44.988281 13.5 45.054688 13.363281 45.097656 13.285156 C 45.140625 13.207031 45.214844 13.082031 45.269531 13.011719 C 45.324219 12.941406 45.417969 12.832031 45.480469 12.773438 C 45.542969 12.710938 45.640625 12.632812 45.699219 12.597656 L 45.808594 12.53125 L 45.996094 12.464844 L 46.183594 12.402344 L 46.976562 12.402344 L 47.203125 12.464844 C 47.328125 12.5 47.464844 12.539062 47.5 12.554688 L 47.566406 12.578125 L 47.554688 12.644531 C 47.546875 12.679688 47.519531 12.839844 47.492188 12.996094 C 47.464844 13.15625 47.410156 13.457031 47.371094 13.667969 C 47.332031 13.878906 47.273438 14.195312 47.238281 14.371094 C 47.203125 14.550781 47.15625 14.777344 47.128906 14.875 C 47.101562 14.972656 47.066406 15.109375 47.046875 15.179688 C 47.027344 15.246094 46.980469 15.363281 46.945312 15.441406 C 46.910156 15.515625 46.847656 15.628906 46.804688 15.6875 C 46.761719 15.746094 46.691406 15.828125 46.648438 15.871094 C 46.605469 15.910156 46.507812 15.984375 46.4375 16.03125 L 46.304688 16.117188 L 46.113281 16.179688 L 45.921875 16.238281 Z M 10.441406 16.8125 L 11.023438 16.8125 L 11.066406 16.554688 C 11.089844 16.414062 11.132812 16.140625 11.167969 15.949219 C 11.199219 15.761719 11.257812 15.40625 11.296875 15.160156 C 11.339844 14.917969 11.398438 14.558594 11.433594 14.359375 C 11.46875 14.164062 11.519531 13.855469 11.554688 13.679688 C 11.585938 13.503906 11.617188 13.351562 11.625 13.34375 L 11.636719 13.332031 L 14.773438 13.332031 L 14.808594 13.367188 L 14.78125 13.503906 C 14.765625 13.582031 14.71875 13.816406 14.679688 14.027344 C 14.640625 14.234375 14.578125 14.589844 14.535156 14.816406 C 14.492188 15.039062 14.433594 15.355469 14.402344 15.519531 C 14.371094 15.683594 14.308594 16.027344 14.261719 16.285156 C 14.214844 16.542969 14.175781 16.765625 14.175781 16.78125 L 14.175781 16.8125 L 15.347656 16.8125 L 15.371094 16.660156 C 15.386719 16.578125 15.410156 16.433594 15.421875 16.332031 C 15.4375 16.234375 15.46875 16.023438 15.496094 15.867188 C 15.523438 15.710938 15.578125 15.398438 15.617188 15.171875 C 15.65625 14.949219 15.71875 14.566406 15.761719 14.324219 C 15.800781 14.082031 15.859375 13.726562 15.894531 13.535156 C 15.925781 13.34375 15.984375 13.023438 16.023438 12.816406 C 16.0625 12.613281 16.125 12.269531 16.167969 12.054688 C 16.207031 11.835938 16.265625 11.507812 16.300781 11.324219 C 16.332031 11.140625 16.394531 10.804688 16.433594 10.582031 C 16.476562 10.359375 16.527344 10.097656 16.550781 10.003906 L 16.589844 9.828125 L 15.40625 9.828125 L 15.390625 9.941406 C 15.378906 10.003906 15.351562 10.179688 15.324219 10.332031 C 15.300781 10.484375 15.25 10.75 15.21875 10.929688 C 15.1875 11.105469 15.128906 11.445312 15.089844 11.683594 C 15.050781 11.917969 15 12.230469 14.976562 12.378906 L 14.9375 12.644531 L 14.070312 12.664062 L 13.199219 12.679688 L 12.46875 12.664062 C 12.070312 12.652344 11.738281 12.644531 11.738281 12.640625 C 11.734375 12.640625 11.746094 12.546875 11.765625 12.433594 C 11.785156 12.324219 11.824219 12.128906 11.847656 12.003906 C 11.875 11.878906 11.921875 11.632812 11.957031 11.457031 C 11.988281 11.277344 12.027344 11.058594 12.039062 10.964844 C 12.054688 10.871094 12.082031 10.71875 12.101562 10.625 C 12.121094 10.527344 12.160156 10.328125 12.183594 10.179688 C 12.210938 10.027344 12.238281 9.886719 12.25 9.867188 L 12.261719 9.828125 L 11.085938 9.828125 L 11.050781 10.039062 C 11.027344 10.152344 11 10.316406 10.988281 10.402344 C 10.976562 10.488281 10.929688 10.761719 10.890625 11.011719 C 10.851562 11.261719 10.789062 11.632812 10.757812 11.835938 C 10.726562 12.042969 10.667969 12.414062 10.625 12.664062 C 10.585938 12.914062 10.519531 13.300781 10.480469 13.523438 C 10.441406 13.746094 10.382812 14.066406 10.351562 14.230469 C 10.320312 14.394531 10.257812 14.707031 10.21875 14.921875 C 10.175781 15.140625 10.117188 15.445312 10.082031 15.605469 C 10.050781 15.761719 10.015625 15.945312 10.003906 16.011719 C 9.992188 16.074219 9.953125 16.265625 9.921875 16.433594 C 9.886719 16.597656 9.859375 16.75 9.859375 16.773438 L 9.859375 16.8125 Z M 16.894531 16.8125 L 17.410156 16.8125 L 17.425781 16.773438 C 17.433594 16.753906 17.4375 16.699219 17.4375 16.652344 C 17.4375 16.605469 17.472656 16.367188 17.511719 16.121094 C 17.550781 15.875 17.617188 15.476562 17.65625 15.234375 C 17.695312 14.988281 17.757812 14.632812 17.789062 14.445312 C 17.820312 14.253906 17.878906 13.9375 17.917969 13.738281 C 17.957031 13.542969 18.015625 13.234375 18.046875 13.058594 C 18.082031 12.878906 18.148438 12.542969 18.195312 12.304688 C 18.242188 12.070312 18.285156 11.871094 18.292969 11.859375 L 18.304688 11.835938 L 17.785156 11.84375 L 17.261719 11.847656 L 17.21875 12.160156 C 17.195312 12.332031 17.140625 12.671875 17.101562 12.914062 C 17.0625 13.15625 17 13.527344 16.96875 13.738281 C 16.933594 13.949219 16.875 14.289062 16.835938 14.492188 C 16.796875 14.695312 16.738281 15.007812 16.707031 15.183594 C 16.671875 15.363281 16.613281 15.675781 16.570312 15.878906 C 16.53125 16.082031 16.480469 16.351562 16.453125 16.476562 C 16.425781 16.601562 16.398438 16.726562 16.390625 16.757812 L 16.378906 16.8125 Z M 28.960938 16.8125 L 29.472656 16.8125 L 29.488281 16.59375 C 29.496094 16.476562 29.523438 16.238281 29.550781 16.0625 C 29.578125 15.890625 29.632812 15.542969 29.675781 15.292969 C 29.714844 15.042969 29.789062 14.628906 29.839844 14.367188 C 29.894531 14.109375 29.953125 13.851562 29.972656 13.796875 C 29.992188 13.742188 30.007812 13.683594 30.007812 13.664062 C 30.007812 13.644531 30.046875 13.546875 30.09375 13.445312 C 30.140625 13.34375 30.226562 13.1875 30.289062 13.097656 L 30.398438 12.9375 L 30.542969 12.800781 L 30.6875 12.667969 L 30.871094 12.582031 L 31.050781 12.496094 L 31.324219 12.496094 L 31.601562 12.5 L 31.738281 12.539062 C 31.8125 12.5625 31.878906 12.578125 31.886719 12.578125 C 31.894531 12.578125 31.902344 12.554688 31.902344 12.523438 C 31.902344 12.492188 31.929688 12.332031 31.960938 12.171875 C 31.996094 12.011719 32.023438 11.871094 32.023438 11.863281 C 32.023438 11.855469 31.945312 11.824219 31.847656 11.796875 C 31.753906 11.765625 31.621094 11.738281 31.554688 11.726562 L 31.433594 11.714844 L 31.277344 11.742188 C 31.191406 11.757812 31.066406 11.789062 30.996094 11.816406 C 30.925781 11.839844 30.808594 11.898438 30.738281 11.945312 C 30.667969 11.988281 30.554688 12.078125 30.492188 12.140625 C 30.425781 12.203125 30.320312 12.332031 30.25 12.421875 C 30.183594 12.515625 30.113281 12.613281 30.09375 12.640625 L 30.058594 12.6875 L 30.078125 12.589844 C 30.089844 12.539062 30.121094 12.367188 30.148438 12.207031 C 30.179688 12.050781 30.207031 11.902344 30.214844 11.878906 L 30.226562 11.835938 L 29.3125 11.835938 L 29.3125 11.894531 C 29.3125 11.925781 29.285156 12.117188 29.25 12.320312 C 29.21875 12.523438 29.164062 12.859375 29.128906 13.070312 C 29.097656 13.28125 29.039062 13.644531 29 13.882812 C 28.960938 14.117188 28.898438 14.457031 28.867188 14.636719 C 28.832031 14.8125 28.773438 15.125 28.734375 15.328125 C 28.695312 15.53125 28.628906 15.867188 28.589844 16.070312 C 28.546875 16.273438 28.5 16.515625 28.480469 16.605469 C 28.464844 16.695312 28.449219 16.777344 28.449219 16.789062 L 28.449219 16.8125 Z M 41.117188 16.8125 L 41.640625 16.8125 L 41.640625 16.492188 L 41.699219 16.09375 C 41.734375 15.878906 41.789062 15.53125 41.820312 15.328125 C 41.855469 15.125 41.898438 14.867188 41.914062 14.753906 C 41.933594 14.644531 41.980469 14.402344 42.019531 14.21875 C 42.058594 14.03125 42.109375 13.832031 42.128906 13.773438 C 42.148438 13.714844 42.167969 13.652344 42.167969 13.636719 C 42.167969 13.621094 42.210938 13.511719 42.265625 13.398438 L 42.367188 13.1875 L 42.625 12.84375 L 42.769531 12.738281 C 42.847656 12.679688 42.972656 12.601562 43.050781 12.5625 L 43.1875 12.496094 L 43.488281 12.5 L 43.785156 12.5 L 43.90625 12.539062 L 44.023438 12.578125 L 44.042969 12.566406 L 44.0625 12.550781 L 44.0625 12.476562 C 44.0625 12.433594 44.089844 12.277344 44.121094 12.128906 L 44.175781 11.859375 L 44.113281 11.832031 C 44.078125 11.820312 43.996094 11.792969 43.929688 11.769531 L 43.8125 11.734375 L 43.378906 11.734375 L 43.027344 11.859375 L 42.761719 12.015625 L 42.417969 12.375 L 42.328125 12.515625 C 42.277344 12.589844 42.230469 12.652344 42.226562 12.644531 C 42.222656 12.640625 42.25 12.484375 42.289062 12.292969 C 42.328125 12.101562 42.359375 11.921875 42.359375 11.890625 L 42.359375 11.835938 L 41.472656 11.835938 L 41.472656 11.851562 C 41.472656 11.863281 41.449219 12.015625 41.421875 12.195312 C 41.394531 12.371094 41.339844 12.71875 41.300781 12.960938 C 41.261719 13.203125 41.199219 13.597656 41.160156 13.835938 C 41.121094 14.070312 41.058594 14.410156 41.027344 14.585938 C 40.992188 14.765625 40.933594 15.078125 40.894531 15.28125 C 40.855469 15.484375 40.792969 15.8125 40.753906 16.011719 C 40.714844 16.207031 40.660156 16.46875 40.636719 16.589844 L 40.59375 16.8125 Z M 17.90625 10.976562 L 18.054688 10.976562 L 18.167969 10.9375 L 18.285156 10.898438 L 18.386719 10.792969 L 18.488281 10.691406 L 18.542969 10.554688 L 18.597656 10.414062 L 18.601562 10.210938 L 18.601562 10.007812 L 18.554688 9.929688 L 18.503906 9.851562 L 18.421875 9.796875 L 18.339844 9.746094 L 17.976562 9.746094 L 17.734375 9.855469 L 17.660156 9.933594 L 17.589844 10.007812 L 17.535156 10.140625 L 17.476562 10.269531 L 17.46875 10.476562 L 17.457031 10.679688 L 17.507812 10.78125 L 17.5625 10.886719 L 17.660156 10.929688 L 17.761719 10.976562 Z M 17.90625 10.976562 " fill-opacity="1" fill-rule="nonzero"/></svg>