<svg xmlns="http://www.w3.org/2000/svg" xmlns:xlink="http://www.w3.org/1999/xlink" width="80" zoomAndPan="magnify" viewBox="0 0 60 30.000001" height="40" preserveAspectRatio="xMidYMid meet" version="1.0"><defs><clipPath id="4fa6d6b5b7"><path d="M 0.96875 0 L 59.03125 0 L 59.03125 29.03125 L 0.96875 29.03125 Z M 0.96875 0 " clip-rule="nonzero"/></clipPath></defs><g clip-path="url(#4fa6d6b5b7)"><path fill="#ffffff" d="M 0.96875 0 L 59.03125 0 L 59.03125 29.03125 L 0.96875 29.03125 Z M 0.96875 0 " fill-opacity="1" fill-rule="nonzero"/><path fill="#ffffff" d="M 0.96875 0 L 59.03125 0 L 59.03125 29.03125 L 0.96875 29.03125 Z M 0.96875 0 " fill-opacity="1" fill-rule="nonzero"/><path fill="#ffffff" d="M 0.367188 -15.050781 L 59.886719 -15.050781 L 59.886719 44.464844 L 0.367188 44.464844 Z M 0.367188 -15.050781 " fill-opacity="1" fill-rule="nonzero"/></g><path fill="#f37421" d="M 8.128906 6.386719 L 8.128906 19.78125 L 11.167969 19.78125 L 11.167969 14.179688 L 16.160156 14.179688 L 16.160156 19.78125 L 19.183594 19.78125 L 19.183594 6.386719 L 16.160156 6.386719 L 16.160156 11.539062 L 11.167969 11.539062 L 11.167969 6.386719 Z M 8.128906 6.386719 " fill-opacity="1" fill-rule="nonzero"/><path fill="#f37421" d="M 45.355469 15.886719 C 45.390625 15.664062 45.453125 15.210938 45.453125 14.691406 C 45.453125 12.289062 44.257812 9.835938 41.121094 9.835938 C 37.742188 9.835938 36.210938 12.5625 36.210938 15.027344 C 36.210938 18.066406 38.101562 19.980469 41.402344 19.980469 C 42.710938 19.980469 43.929688 19.78125 44.925781 19.386719 L 44.527344 17.339844 C 43.714844 17.601562 42.871094 17.738281 41.839844 17.738281 C 40.429688 17.738281 39.199219 17.140625 39.097656 15.894531 L 45.355469 15.894531 Z M 39.066406 13.820312 C 39.144531 13.007812 39.664062 11.851562 40.9375 11.851562 C 42.328125 11.851562 42.644531 13.082031 42.644531 13.820312 Z M 39.066406 13.820312 " fill-opacity="1" fill-rule="nonzero"/><path fill="#f37421" d="M 46.417969 19.78125 L 49.441406 19.78125 L 49.441406 14.851562 C 49.441406 14.613281 49.464844 14.378906 49.503906 14.179688 C 49.703125 13.246094 50.460938 12.648438 51.570312 12.648438 C 51.90625 12.648438 52.167969 12.6875 52.382812 12.722656 L 52.382812 9.882812 C 52.160156 9.84375 52.023438 9.84375 51.746094 9.84375 C 50.8125 9.84375 49.617188 10.441406 49.121094 11.851562 L 49.042969 11.851562 L 48.945312 10.058594 L 46.339844 10.058594 C 46.378906 10.894531 46.417969 11.828125 46.417969 13.261719 Z M 46.417969 19.78125 " fill-opacity="1" fill-rule="nonzero"/><path fill="#ffe700" d="M 22.253906 5.847656 C 23.113281 5.847656 23.808594 6.546875 23.808594 7.402344 C 23.808594 8.261719 23.113281 8.957031 22.253906 8.957031 C 21.398438 8.957031 20.699219 8.261719 20.699219 7.402344 C 20.699219 6.546875 21.398438 5.847656 22.253906 5.847656 Z M 22.253906 5.847656 " fill-opacity="1" fill-rule="evenodd"/><path fill="#f37421" d="M 28.640625 17.515625 L 30.15625 17.515625 C 31.679688 17.515625 32.367188 16.542969 32.367188 15.527344 C 32.367188 14.507812 32.292969 12.210938 30.417969 12.210938 C 28.257812 12.210938 28.601562 15.066406 28.617188 16.558594 C 28.609375 16.882812 28.632812 17.203125 28.640625 17.515625 Z M 20.699219 10.050781 L 23.808594 10.050781 L 23.808594 15.535156 C 23.808594 16.550781 24.375 17.523438 25.625 17.523438 C 25.632812 15.058594 25.625 12.515625 25.539062 10.050781 L 28.136719 10.050781 C 28.1875 10.527344 28.242188 11 28.289062 11.476562 C 29.511719 9.027344 33.378906 9.5625 34.679688 11.636719 C 36.019531 13.773438 36.480469 19.898438 30.15625 19.898438 L 28.6875 19.898438 C 28.703125 21.136719 28.703125 22.386719 28.703125 23.632812 L 25.59375 23.632812 C 25.59375 22.441406 25.601562 21.183594 25.609375 19.898438 C 22.246094 19.882812 20.699219 17.753906 20.699219 15.535156 Z M 20.699219 10.050781 " fill-opacity="1" fill-rule="evenodd"/></svg>