<svg xmlns="http://www.w3.org/2000/svg" xmlns:xlink="http://www.w3.org/1999/xlink" width="80" zoomAndPan="magnify" viewBox="0 0 60 30.000001" height="40" preserveAspectRatio="xMidYMid meet" version="1.0"><defs><clipPath id="c856bdecfb"><path d="M 0.96875 0 L 59.03125 0 L 59.03125 29.03125 L 0.96875 29.03125 Z M 0.96875 0 " clip-rule="nonzero"/></clipPath><clipPath id="62756ba155"><path d="M 5.648438 0 L 54.277344 0 L 54.277344 29.03125 L 5.648438 29.03125 Z M 5.648438 0 " clip-rule="nonzero"/></clipPath></defs><g clip-path="url(#c856bdecfb)"><path fill="#ffffff" d="M 0.96875 0 L 59.03125 0 L 59.03125 29.03125 L 0.96875 29.03125 Z M 0.96875 0 " fill-opacity="1" fill-rule="nonzero"/><path fill="#ffffff" d="M 0.96875 0 L 59.03125 0 L 59.03125 29.03125 L 0.96875 29.03125 Z M 0.96875 0 " fill-opacity="1" fill-rule="nonzero"/></g><g clip-path="url(#62756ba155)"><path fill="#ffffff" d="M 5.648438 -9.847656 L 54.277344 -9.847656 L 54.277344 38.78125 L 5.648438 38.78125 Z M 5.648438 -9.847656 " fill-opacity="1" fill-rule="nonzero"/></g><path fill="#ea1d2c" d="M 11.480469 5.949219 L 12.960938 5.949219 L 13.199219 4.742188 L 11.71875 4.742188 Z M 10.511719 10.789062 L 12.003906 10.789062 L 12.832031 6.605469 L 11.351562 6.605469 Z M 14.082031 11.96875 L 12.589844 11.96875 L 13.496094 7.445312 L 12.984375 7.445312 L 13.144531 6.605469 L 13.667969 6.605469 C 13.960938 5.472656 14.789062 4.742188 15.988281 4.742188 C 16.347656 4.742188 16.714844 4.804688 17.042969 4.914062 L 16.867188 5.796875 C 16.5625 5.65625 16.246094 5.625 15.910156 5.625 C 15.355469 5.625 15.234375 6.039062 15.171875 6.398438 L 15.136719 6.59375 L 16.246094 6.59375 L 16.074219 7.433594 L 14.984375 7.433594 Z M 17.304688 10.886719 C 19.066406 10.886719 20.285156 9.253906 20.285156 7.914062 C 20.285156 6.941406 19.382812 6.515625 18.523438 6.515625 C 16.597656 6.515625 15.539062 8.285156 15.539062 9.492188 C 15.539062 10.453125 16.453125 10.886719 17.304688 10.886719 Z M 24.988281 7.914062 C 24.988281 9.253906 23.769531 10.886719 22.007812 10.886719 C 21.15625 10.886719 20.242188 10.453125 20.242188 9.492188 C 20.242188 8.285156 21.300781 6.515625 23.226562 6.515625 C 24.085938 6.515625 24.988281 6.941406 24.988281 7.914062 Z M 27.394531 10.789062 L 28.875 10.789062 L 30.105469 4.742188 L 28.613281 4.742188 L 28.222656 6.605469 C 28.023438 6.5625 27.824219 6.539062 27.621094 6.539062 C 26.164062 6.539062 24.835938 8.4375 24.835938 9.789062 C 24.835938 10.34375 25.195312 10.890625 25.792969 10.890625 C 26.652344 10.890625 27.242188 10.464844 27.492188 10.058594 L 27.578125 10.058594 Z M 18.6875 15.269531 C 20.265625 15.367188 21.722656 14.890625 22.8125 13.941406 L 23.257812 15.203125 L 23.898438 11.96875 L 20.90625 11.957031 L 21.917969 12.730469 C 21.027344 13.613281 19.382812 14.234375 18.042969 14.082031 C 16.671875 13.929688 15.574219 12.992188 15.128906 11.96875 L 15.03125 11.96875 C 15.3125 13.570312 16.695312 15.148438 18.6875 15.269531 Z M 18.6875 15.269531 " fill-opacity="1" fill-rule="evenodd"/><path fill="#ea1d2c" d="M 34.089844 23.277344 C 34.167969 23.277344 34.207031 23.238281 34.207031 23.164062 L 34.207031 19.214844 C 34.207031 19.136719 34.167969 19.101562 34.089844 19.101562 L 33.199219 19.101562 C 33.121094 19.101562 33.082031 19.136719 33.082031 19.214844 L 33.082031 23.160156 C 33.082031 23.238281 33.121094 23.277344 33.199219 23.277344 Z M 34.738281 17.726562 C 34.738281 17.703125 34.730469 17.679688 34.714844 17.660156 L 34.3125 17.007812 C 34.292969 16.976562 34.265625 16.960938 34.230469 16.960938 C 34.203125 16.960938 34.171875 16.96875 34.148438 16.984375 L 32.835938 17.96875 C 32.800781 18.007812 32.78125 18.039062 32.78125 18.058594 C 32.78125 18.074219 32.789062 18.097656 32.804688 18.125 L 33.082031 18.5625 C 33.09375 18.578125 33.105469 18.59375 33.121094 18.601562 C 33.136719 18.609375 33.15625 18.613281 33.171875 18.613281 C 33.195312 18.613281 33.21875 18.609375 33.238281 18.597656 L 34.671875 17.816406 C 34.71875 17.789062 34.738281 17.757812 34.738281 17.726562 Z M 31.183594 23.164062 C 31.183594 23.238281 31.144531 23.277344 31.066406 23.277344 L 30.183594 23.277344 C 30.105469 23.277344 30.066406 23.238281 30.066406 23.164062 L 30.066406 20.09375 L 29.339844 20.09375 C 29.261719 20.09375 29.222656 20.054688 29.222656 19.980469 L 29.222656 19.214844 C 29.222656 19.140625 29.261719 19.101562 29.339844 19.101562 L 30.066406 19.101562 L 30.066406 18.980469 C 30.066406 18.5 30.234375 18.101562 30.566406 17.78125 C 30.902344 17.457031 31.4375 17.246094 32.183594 17.15625 L 32.3125 17.148438 C 32.347656 17.148438 32.367188 17.15625 32.378906 17.171875 C 32.394531 17.1875 32.40625 17.21875 32.410156 17.261719 L 32.484375 18.019531 L 32.484375 18.035156 C 32.484375 18.09375 32.449219 18.128906 32.378906 18.140625 C 32.050781 18.179688 31.800781 18.234375 31.625 18.3125 C 31.449219 18.382812 31.332031 18.472656 31.273438 18.578125 C 31.210938 18.6875 31.183594 18.828125 31.183594 18.996094 L 31.183594 19.101562 L 32.332031 19.101562 C 32.40625 19.101562 32.445312 19.136719 32.445312 19.214844 L 32.445312 19.980469 C 32.445312 20.054688 32.40625 20.09375 32.332031 20.09375 L 31.183594 20.09375 Z M 10.625 23.277344 C 10.550781 23.277344 10.511719 23.238281 10.511719 23.164062 L 10.511719 17.511719 C 10.511719 17.4375 10.550781 17.398438 10.625 17.398438 L 12.78125 17.398438 C 13.4375 17.398438 13.941406 17.539062 14.289062 17.824219 C 14.640625 18.105469 14.816406 18.492188 14.816406 18.980469 C 14.816406 19.253906 14.734375 19.5 14.578125 19.710938 C 14.417969 19.921875 14.199219 20.085938 13.921875 20.199219 C 14.269531 20.300781 14.542969 20.480469 14.734375 20.726562 C 14.921875 20.976562 15.019531 21.273438 15.019531 21.617188 C 15.019531 21.953125 14.933594 22.246094 14.765625 22.496094 C 14.597656 22.742188 14.347656 22.9375 14.019531 23.070312 C 13.699219 23.207031 13.304688 23.277344 12.847656 23.277344 Z M 12.78125 19.800781 C 13.039062 19.800781 13.242188 19.734375 13.390625 19.597656 C 13.542969 19.460938 13.617188 19.292969 13.617188 19.09375 C 13.617188 18.886719 13.546875 18.722656 13.40625 18.605469 C 13.261719 18.484375 13.054688 18.425781 12.78125 18.425781 L 11.683594 18.425781 L 11.683594 19.800781 Z M 12.847656 22.25 C 13.160156 22.25 13.394531 22.1875 13.554688 22.0625 C 13.714844 21.933594 13.796875 21.757812 13.796875 21.535156 C 13.796875 21.3125 13.714844 21.136719 13.554688 21.015625 C 13.394531 20.882812 13.160156 20.816406 12.847656 20.816406 L 11.683594 20.816406 L 11.683594 22.25 Z M 16.554688 23.105469 C 16.875 23.289062 17.242188 23.382812 17.660156 23.382812 C 18.089844 23.382812 18.457031 23.296875 18.757812 23.121094 C 19.046875 22.953125 19.285156 22.703125 19.4375 22.40625 C 19.460938 22.363281 19.433594 22.320312 19.363281 22.28125 L 18.691406 21.964844 C 18.632812 21.933594 18.578125 21.945312 18.535156 22.007812 C 18.339844 22.292969 18.0625 22.4375 17.699219 22.4375 C 17.417969 22.4375 17.179688 22.351562 16.988281 22.175781 C 16.796875 22.003906 16.679688 21.761719 16.644531 21.453125 L 19.355469 21.453125 C 19.433594 21.453125 19.472656 21.417969 19.480469 21.347656 C 19.488281 21.195312 19.496094 21.085938 19.496094 21.011719 C 19.496094 20.621094 19.414062 20.273438 19.257812 19.972656 C 19.105469 19.675781 18.871094 19.425781 18.585938 19.253906 C 18.300781 19.082031 17.96875 18.996094 17.585938 18.996094 C 17.179688 18.996094 16.820312 19.089844 16.503906 19.28125 C 16.195312 19.46875 15.941406 19.738281 15.773438 20.0625 C 15.605469 20.390625 15.519531 20.765625 15.519531 21.175781 C 15.519531 21.609375 15.609375 21.996094 15.789062 22.332031 C 15.976562 22.664062 16.230469 22.921875 16.554688 23.105469 Z M 18.152344 20.09375 C 18.304688 20.230469 18.394531 20.425781 18.421875 20.679688 L 16.660156 20.679688 C 16.71875 20.4375 16.828125 20.242188 16.988281 20.101562 C 17.152344 19.957031 17.347656 19.882812 17.578125 19.882812 C 17.804688 19.882812 17.996094 19.953125 18.152344 20.09375 Z M 21.363281 23.160156 C 21.363281 23.238281 21.324219 23.277344 21.25 23.277344 L 20.363281 23.277344 C 20.289062 23.277344 20.25 23.238281 20.25 23.164062 L 20.25 19.214844 C 20.25 19.136719 20.289062 19.101562 20.363281 19.101562 L 21.207031 19.101562 C 21.285156 19.101562 21.324219 19.136719 21.324219 19.214844 L 21.324219 19.652344 C 21.535156 19.425781 21.753906 19.261719 21.980469 19.15625 C 22.207031 19.050781 22.453125 18.996094 22.714844 18.996094 C 23.191406 18.996094 23.558594 19.144531 23.816406 19.449219 C 24.078125 19.75 24.207031 20.160156 24.207031 20.679688 L 24.207031 23.160156 C 24.207031 23.238281 24.171875 23.277344 24.09375 23.277344 L 23.207031 23.277344 C 23.132812 23.277344 23.09375 23.238281 23.09375 23.160156 L 23.09375 20.777344 C 23.09375 20.539062 23.039062 20.351562 22.929688 20.214844 C 22.820312 20.082031 22.660156 20.011719 22.445312 20.011719 C 22.265625 20.011719 22.082031 20.0625 21.898438 20.160156 C 21.714844 20.257812 21.539062 20.402344 21.363281 20.597656 L 21.363281 23.164062 Z M 25.988281 23.105469 C 26.308594 23.289062 26.679688 23.382812 27.09375 23.382812 C 27.523438 23.382812 27.890625 23.296875 28.191406 23.121094 C 28.480469 22.953125 28.71875 22.703125 28.871094 22.40625 C 28.894531 22.363281 28.867188 22.320312 28.796875 22.28125 L 28.125 21.964844 C 28.066406 21.933594 28.011719 21.945312 27.96875 22.007812 C 27.773438 22.292969 27.496094 22.4375 27.132812 22.4375 C 26.851562 22.4375 26.613281 22.351562 26.421875 22.175781 C 26.230469 22.003906 26.113281 21.761719 26.078125 21.453125 L 28.789062 21.453125 C 28.867188 21.453125 28.90625 21.417969 28.914062 21.347656 C 28.921875 21.195312 28.929688 21.085938 28.929688 21.011719 C 28.929688 20.621094 28.851562 20.273438 28.691406 19.972656 C 28.539062 19.675781 28.304688 19.425781 28.019531 19.253906 C 27.734375 19.082031 27.402344 18.996094 27.019531 18.996094 C 26.613281 18.996094 26.253906 19.089844 25.9375 19.28125 C 25.628906 19.46875 25.375 19.738281 25.207031 20.0625 C 25.039062 20.390625 24.953125 20.765625 24.953125 21.175781 C 24.953125 21.609375 25.042969 21.996094 25.222656 22.332031 C 25.410156 22.664062 25.664062 22.921875 25.988281 23.105469 Z M 27.585938 20.09375 C 27.738281 20.230469 27.828125 20.425781 27.855469 20.679688 L 26.09375 20.679688 C 26.152344 20.4375 26.261719 20.242188 26.421875 20.101562 C 26.585938 19.957031 26.78125 19.882812 27.011719 19.882812 C 27.238281 19.882812 27.433594 19.953125 27.585938 20.09375 Z M 37.078125 23.382812 C 36.660156 23.382812 36.292969 23.289062 35.96875 23.105469 C 35.65625 22.917969 35.402344 22.648438 35.230469 22.324219 C 35.058594 21.988281 34.96875 21.609375 34.96875 21.183594 C 34.96875 20.765625 35.058594 20.390625 35.230469 20.0625 C 35.402344 19.734375 35.660156 19.464844 35.976562 19.28125 C 36.300781 19.089844 36.667969 18.996094 37.078125 18.996094 C 37.507812 18.996094 37.863281 19.09375 38.140625 19.289062 C 38.421875 19.484375 38.632812 19.746094 38.78125 20.078125 C 38.789062 20.09375 38.789062 20.109375 38.789062 20.125 C 38.789062 20.164062 38.765625 20.195312 38.714844 20.222656 L 37.976562 20.523438 C 37.960938 20.53125 37.941406 20.539062 37.921875 20.542969 C 37.886719 20.542969 37.859375 20.515625 37.832031 20.46875 C 37.660156 20.164062 37.410156 20.011719 37.078125 20.011719 C 36.785156 20.011719 36.550781 20.121094 36.371094 20.335938 C 36.191406 20.554688 36.101562 20.835938 36.101562 21.175781 C 36.101562 21.535156 36.191406 21.820312 36.371094 22.039062 C 36.550781 22.257812 36.785156 22.363281 37.078125 22.363281 C 37.4375 22.363281 37.710938 22.207031 37.894531 21.894531 C 37.929688 21.828125 37.976562 21.808594 38.042969 21.835938 L 38.773438 22.136719 C 38.8125 22.152344 38.835938 22.171875 38.847656 22.195312 C 38.859375 22.210938 38.859375 22.230469 38.847656 22.257812 C 38.699219 22.585938 38.46875 22.867188 38.175781 23.074219 C 37.878906 23.277344 37.515625 23.382812 37.078125 23.382812 Z M 40.484375 23.277344 C 40.5625 23.277344 40.601562 23.238281 40.601562 23.164062 L 40.601562 19.214844 C 40.601562 19.140625 40.5625 19.101562 40.484375 19.101562 L 39.59375 19.101562 C 39.515625 19.101562 39.476562 19.140625 39.476562 19.214844 L 39.476562 23.164062 C 39.476562 23.238281 39.515625 23.277344 39.59375 23.277344 Z M 39.527344 18.214844 C 39.65625 18.332031 39.828125 18.394531 40.035156 18.394531 C 40.242188 18.394531 40.410156 18.332031 40.535156 18.214844 C 40.660156 18.09375 40.722656 17.9375 40.722656 17.742188 C 40.722656 17.546875 40.660156 17.390625 40.535156 17.277344 C 40.410156 17.160156 40.242188 17.097656 40.035156 17.097656 C 39.828125 17.097656 39.65625 17.160156 39.527344 17.277344 C 39.402344 17.390625 39.339844 17.542969 39.339844 17.734375 C 39.339844 17.933594 39.402344 18.09375 39.527344 18.214844 Z M 43.476562 23.382812 C 43.0625 23.382812 42.691406 23.289062 42.371094 23.105469 C 42.050781 22.925781 41.792969 22.65625 41.625 22.332031 C 41.449219 21.996094 41.363281 21.613281 41.363281 21.183594 C 41.363281 20.773438 41.449219 20.402344 41.625 20.070312 C 41.796875 19.742188 42.058594 19.46875 42.378906 19.28125 C 42.699219 19.089844 43.066406 18.996094 43.476562 18.996094 C 43.890625 18.996094 44.257812 19.085938 44.574219 19.273438 C 44.898438 19.457031 45.148438 19.714844 45.320312 20.054688 C 45.496094 20.382812 45.582031 20.761719 45.582031 21.183594 C 45.582031 21.601562 45.492188 21.980469 45.3125 22.316406 C 45.144531 22.640625 44.882812 22.914062 44.566406 23.097656 C 44.25 23.289062 43.886719 23.382812 43.476562 23.382812 Z M 43.476562 22.363281 C 43.773438 22.363281 44.007812 22.257812 44.179688 22.046875 C 44.363281 21.835938 44.453125 21.550781 44.453125 21.191406 C 44.453125 20.839844 44.363281 20.554688 44.179688 20.335938 C 44 20.121094 43.765625 20.011719 43.476562 20.011719 C 43.1875 20.011719 42.949219 20.121094 42.765625 20.335938 C 42.582031 20.550781 42.492188 20.828125 42.492188 21.175781 C 42.492188 21.535156 42.582031 21.820312 42.765625 22.039062 C 42.949219 22.257812 43.1875 22.363281 43.476562 22.363281 Z M 46.074219 22.503906 C 46.402344 23.089844 46.964844 23.382812 47.753906 23.382812 C 48.105469 23.382812 48.410156 23.324219 48.664062 23.210938 C 48.925781 23.097656 49.128906 22.941406 49.265625 22.738281 C 49.40625 22.53125 49.476562 22.300781 49.476562 22.039062 C 49.476562 21.75 49.398438 21.519531 49.246094 21.339844 C 49.101562 21.15625 48.917969 21.011719 48.707031 20.917969 C 48.492188 20.816406 48.234375 20.726562 47.929688 20.640625 C 47.683594 20.578125 47.503906 20.523438 47.394531 20.46875 C 47.292969 20.410156 47.238281 20.324219 47.238281 20.214844 C 47.238281 20.113281 47.292969 20.027344 47.394531 19.964844 C 47.503906 19.898438 47.644531 19.867188 47.8125 19.867188 C 48.164062 19.867188 48.429688 19.996094 48.609375 20.257812 C 48.628906 20.292969 48.660156 20.3125 48.699219 20.3125 C 48.722656 20.3125 48.742188 20.304688 48.765625 20.296875 L 49.355469 19.996094 C 49.398438 19.96875 49.417969 19.9375 49.417969 19.90625 C 49.414062 19.886719 49.410156 19.867188 49.402344 19.847656 C 49.082031 19.28125 48.542969 18.996094 47.789062 18.996094 C 47.464844 18.996094 47.179688 19.050781 46.929688 19.167969 C 46.675781 19.273438 46.484375 19.429688 46.347656 19.628906 C 46.210938 19.824219 46.140625 20.046875 46.140625 20.289062 C 46.140625 20.675781 46.28125 20.96875 46.558594 21.167969 C 46.835938 21.363281 47.199219 21.515625 47.640625 21.625 C 47.914062 21.6875 48.105469 21.757812 48.214844 21.828125 C 48.328125 21.894531 48.386719 21.984375 48.386719 22.105469 C 48.386719 22.222656 48.332031 22.320312 48.222656 22.390625 C 48.121094 22.460938 47.964844 22.496094 47.765625 22.496094 C 47.386719 22.496094 47.089844 22.347656 46.871094 22.054688 C 46.84375 22.011719 46.8125 21.992188 46.78125 21.992188 C 46.757812 21.992188 46.734375 22 46.714844 22.015625 L 46.125 22.347656 C 46.082031 22.375 46.058594 22.40625 46.058594 22.445312 C 46.058594 22.453125 46.066406 22.46875 46.074219 22.503906 Z M 46.074219 22.503906 " fill-opacity="1" fill-rule="evenodd"/></svg>