<svg xmlns="http://www.w3.org/2000/svg" xmlns:xlink="http://www.w3.org/1999/xlink" width="80" zoomAndPan="magnify" viewBox="0 0 60 30.000001" height="40" preserveAspectRatio="xMidYMid meet" version="1.0"><defs><clipPath id="11ac849d26"><path d="M 0.96875 0 L 59.03125 0 L 59.03125 29.03125 L 0.96875 29.03125 Z M 0.96875 0 " clip-rule="nonzero"/></clipPath></defs><g clip-path="url(#11ac849d26)"><path fill="#ffffff" d="M 0.96875 0 L 59.03125 0 L 59.03125 29.03125 L 0.96875 29.03125 Z M 0.96875 0 " fill-opacity="1" fill-rule="nonzero"/><path fill="#ffffff" d="M 0.96875 0 L 59.03125 0 L 59.03125 29.03125 L 0.96875 29.03125 Z M 0.96875 0 " fill-opacity="1" fill-rule="nonzero"/></g><path fill="#d9222a" d="M 48.722656 14.492188 C 48.722656 20.753906 43.671875 25.832031 37.433594 25.832031 C 31.199219 25.832031 26.144531 20.753906 26.144531 14.492188 C 26.144531 8.226562 31.199219 3.148438 37.433594 3.148438 C 43.671875 3.148438 48.722656 8.226562 48.722656 14.492188 " fill-opacity="1" fill-rule="nonzero"/><path fill="#0097d0" d="M 28.714844 21.691406 C 28.402344 21.3125 28.113281 20.910156 27.855469 20.492188 L 31.855469 20.492188 C 32.09375 20.105469 32.3125 19.703125 32.503906 19.289062 L 27.203125 19.289062 C 27.023438 18.902344 26.863281 18.5 26.726562 18.089844 L 32.984375 18.089844 C 33.359375 16.957031 33.5625 15.75 33.5625 14.492188 C 33.5625 13.667969 33.476562 12.863281 33.308594 12.089844 L 26.398438 12.089844 C 26.488281 11.679688 26.597656 11.277344 26.726562 10.886719 L 32.980469 10.886719 C 32.84375 10.476562 32.683594 10.074219 32.503906 9.6875 L 27.203125 9.6875 C 27.398438 9.273438 27.617188 8.871094 27.855469 8.484375 L 31.855469 8.484375 C 31.59375 8.066406 31.304688 7.667969 30.992188 7.285156 L 28.714844 7.285156 C 29.066406 6.859375 29.445312 6.457031 29.855469 6.085938 C 27.851562 4.261719 25.191406 3.148438 22.273438 3.148438 C 16.039062 3.148438 10.984375 8.226562 10.984375 14.492188 C 10.984375 20.753906 16.039062 25.832031 22.273438 25.832031 C 25.191406 25.832031 27.851562 24.71875 29.855469 22.894531 C 30.261719 22.523438 30.644531 22.121094 30.996094 21.691406 L 28.714844 21.691406 " fill-opacity="1" fill-rule="nonzero"/><path fill="#000000" d="M 47.21875 20.8125 C 47.21875 20.609375 47.382812 20.445312 47.582031 20.445312 C 47.785156 20.445312 47.949219 20.609375 47.949219 20.8125 C 47.949219 21.011719 47.785156 21.175781 47.582031 21.175781 C 47.382812 21.175781 47.21875 21.011719 47.21875 20.8125 Z M 47.582031 21.089844 C 47.738281 21.089844 47.859375 20.964844 47.859375 20.8125 C 47.859375 20.65625 47.738281 20.53125 47.582031 20.53125 C 47.429688 20.53125 47.304688 20.65625 47.304688 20.8125 C 47.304688 20.964844 47.429688 21.089844 47.582031 21.089844 Z M 47.535156 20.972656 L 47.460938 20.972656 L 47.460938 20.648438 L 47.59375 20.648438 C 47.625 20.648438 47.652344 20.648438 47.675781 20.667969 C 47.703125 20.683594 47.71875 20.714844 47.71875 20.746094 C 47.71875 20.785156 47.695312 20.816406 47.664062 20.828125 L 47.722656 20.972656 L 47.636719 20.972656 L 47.589844 20.84375 L 47.535156 20.84375 Z M 47.535156 20.789062 L 47.574219 20.789062 C 47.589844 20.789062 47.609375 20.789062 47.621094 20.785156 C 47.632812 20.773438 47.640625 20.761719 47.640625 20.746094 C 47.640625 20.734375 47.632812 20.71875 47.621094 20.714844 C 47.609375 20.707031 47.589844 20.707031 47.574219 20.707031 L 47.535156 20.707031 Z M 47.535156 20.789062 " fill-opacity="1" fill-rule="nonzero"/><path fill="#000000" d="M 29.695312 17.554688 C 29.210938 17.683594 28.746094 17.746094 28.25 17.746094 C 26.679688 17.742188 25.859375 17.023438 25.859375 15.648438 C 25.859375 14.039062 26.902344 12.855469 28.316406 12.855469 C 29.476562 12.855469 30.214844 13.519531 30.214844 14.558594 C 30.214844 14.902344 30.164062 15.238281 30.042969 15.714844 L 27.246094 15.714844 C 27.144531 16.386719 27.632812 16.679688 28.464844 16.679688 C 28.964844 16.679688 29.414062 16.589844 29.914062 16.390625 Z M 28.941406 14.765625 C 28.941406 14.664062 29.097656 13.941406 28.285156 13.925781 C 27.839844 13.925781 27.519531 14.222656 27.390625 14.765625 Z M 28.941406 14.765625 " fill-opacity="1" fill-rule="nonzero"/><path fill="#000000" d="M 30.640625 14.449219 C 30.640625 15.042969 30.976562 15.453125 31.730469 15.761719 C 32.308594 16 32.402344 16.066406 32.402344 16.28125 C 32.402344 16.574219 32.144531 16.710938 31.578125 16.707031 C 31.152344 16.703125 30.761719 16.652344 30.304688 16.523438 L 30.101562 17.605469 C 30.507812 17.703125 31.082031 17.734375 31.585938 17.746094 C 33.097656 17.746094 33.796875 17.246094 33.796875 16.171875 C 33.796875 15.527344 33.503906 15.148438 32.789062 14.863281 C 32.1875 14.625 32.117188 14.570312 32.117188 14.355469 C 32.117188 14.097656 32.355469 13.96875 32.820312 13.96875 C 33.101562 13.96875 33.484375 13.996094 33.847656 14.039062 L 34.054688 12.949219 C 33.683594 12.898438 33.117188 12.855469 32.792969 12.855469 C 31.191406 12.855469 30.636719 13.578125 30.640625 14.449219 " fill-opacity="1" fill-rule="nonzero"/><path fill="#000000" d="M 25.089844 17.667969 L 23.917969 17.667969 L 23.945312 17.171875 C 23.585938 17.5625 23.109375 17.742188 22.464844 17.742188 C 21.699219 17.742188 21.171875 17.21875 21.171875 16.460938 C 21.171875 15.3125 22.085938 14.648438 23.652344 14.648438 C 23.8125 14.648438 24.019531 14.660156 24.230469 14.683594 C 24.273438 14.53125 24.285156 14.464844 24.285156 14.382812 C 24.285156 14.066406 24.039062 13.949219 23.378906 13.949219 C 22.726562 13.953125 22.289062 14.050781 21.882812 14.160156 L 22.082031 13.105469 C 22.785156 12.925781 23.246094 12.855469 23.769531 12.855469 C 24.984375 12.855469 25.625 13.332031 25.625 14.234375 C 25.636719 14.472656 25.550781 14.953125 25.511719 15.164062 C 25.460938 15.472656 25.125 17.246094 25.089844 17.667969 Z M 24.0625 15.570312 C 23.914062 15.554688 23.847656 15.550781 23.746094 15.550781 C 22.945312 15.550781 22.539062 15.789062 22.539062 16.261719 C 22.539062 16.558594 22.738281 16.746094 23.046875 16.746094 C 23.621094 16.746094 24.035156 16.261719 24.0625 15.570312 Z M 24.0625 15.570312 " fill-opacity="1" fill-rule="nonzero"/><path fill="#000000" d="M 36.269531 17.59375 C 35.886719 17.699219 35.585938 17.746094 35.261719 17.746094 C 34.539062 17.746094 34.148438 17.375 34.148438 16.71875 C 34.125 16.539062 34.300781 15.703125 34.339844 15.472656 C 34.382812 15.238281 35.003906 11.839844 35.003906 11.839844 L 36.402344 11.839844 L 36.191406 12.964844 L 36.90625 12.964844 L 36.710938 14.109375 L 35.992188 14.109375 C 35.992188 14.109375 35.597656 16.101562 35.597656 16.253906 C 35.597656 16.496094 35.742188 16.601562 36.078125 16.601562 C 36.238281 16.601562 36.359375 16.585938 36.457031 16.558594 L 36.269531 17.59375 " fill-opacity="1" fill-rule="nonzero"/><path fill="#000000" d="M 42.511719 12.855469 C 41.488281 12.855469 40.6875 13.277344 40.222656 13.984375 L 40.628906 12.9375 C 39.882812 12.664062 39.40625 13.054688 38.972656 13.609375 C 38.972656 13.609375 38.898438 13.703125 38.828125 13.789062 L 38.828125 12.960938 L 37.515625 12.960938 C 37.335938 14.417969 37.023438 15.894531 36.777344 17.351562 L 36.71875 17.667969 L 38.128906 17.667969 C 38.261719 16.929688 38.371094 16.328125 38.480469 15.847656 C 38.78125 14.535156 39.285156 14.132812 40.042969 14.3125 C 39.871094 14.6875 39.773438 15.125 39.773438 15.609375 C 39.773438 16.785156 40.40625 17.746094 41.984375 17.746094 C 43.574219 17.746094 44.726562 16.890625 44.726562 14.945312 C 44.726562 13.769531 43.960938 12.855469 42.511719 12.855469 Z M 42.101562 16.601562 C 41.601562 16.609375 41.300781 16.191406 41.300781 15.5625 C 41.300781 14.816406 41.742188 13.976562 42.449219 13.976562 C 43.023438 13.976562 43.21875 14.429688 43.21875 14.914062 C 43.21875 15.976562 42.785156 16.601562 42.101562 16.601562 Z M 42.101562 16.601562 " fill-opacity="1" fill-rule="nonzero"/><path fill="#000000" d="M 20.515625 17.667969 L 19.109375 17.667969 L 19.945312 13.246094 L 18.023438 17.667969 L 16.742188 17.667969 L 16.507812 13.273438 L 15.667969 17.667969 L 14.394531 17.667969 L 15.480469 11.917969 L 17.675781 11.917969 L 17.859375 15.125 L 19.25 11.917969 L 21.625 11.917969 L 20.515625 17.667969 " fill-opacity="1" fill-rule="nonzero"/><path fill="#ffffff" d="M 44.832031 16.945312 C 44.832031 16.746094 44.996094 16.582031 45.199219 16.582031 C 45.398438 16.582031 45.5625 16.746094 45.5625 16.945312 C 45.5625 17.148438 45.398438 17.3125 45.199219 17.3125 C 44.996094 17.3125 44.832031 17.148438 44.832031 16.945312 Z M 45.199219 17.226562 C 45.351562 17.226562 45.476562 17.101562 45.476562 16.945312 C 45.476562 16.792969 45.351562 16.667969 45.199219 16.667969 C 45.046875 16.667969 44.921875 16.792969 44.921875 16.945312 C 44.921875 17.101562 45.046875 17.226562 45.199219 17.226562 Z M 45.148438 17.109375 L 45.074219 17.109375 L 45.074219 16.785156 L 45.210938 16.785156 C 45.238281 16.785156 45.265625 16.785156 45.292969 16.800781 C 45.316406 16.820312 45.332031 16.851562 45.332031 16.882812 C 45.332031 16.917969 45.3125 16.953125 45.277344 16.964844 L 45.335938 17.109375 L 45.253906 17.109375 L 45.203125 16.980469 L 45.148438 16.980469 Z M 45.148438 16.925781 L 45.191406 16.925781 C 45.207031 16.925781 45.222656 16.925781 45.234375 16.917969 C 45.25 16.910156 45.253906 16.894531 45.253906 16.882812 C 45.253906 16.871094 45.246094 16.855469 45.238281 16.847656 C 45.222656 16.839844 45.203125 16.84375 45.1875 16.84375 L 45.148438 16.84375 Z M 45.148438 16.925781 " fill-opacity="1" fill-rule="nonzero"/><path fill="#ffffff" d="M 30.046875 17.199219 C 29.5625 17.328125 29.097656 17.390625 28.605469 17.390625 C 27.03125 17.390625 26.210938 16.667969 26.210938 15.292969 C 26.210938 13.683594 27.253906 12.5 28.671875 12.5 C 29.828125 12.5 30.570312 13.164062 30.570312 14.203125 C 30.570312 14.546875 30.519531 14.882812 30.394531 15.359375 L 27.597656 15.359375 C 27.5 16.03125 27.988281 16.328125 28.820312 16.328125 C 29.316406 16.328125 29.765625 16.238281 30.265625 16.035156 Z M 29.292969 14.410156 C 29.292969 14.308594 29.449219 13.585938 28.640625 13.570312 C 28.191406 13.570312 27.871094 13.871094 27.742188 14.410156 Z M 29.292969 14.410156 " fill-opacity="1" fill-rule="nonzero"/><path fill="#ffffff" d="M 30.996094 14.09375 C 30.996094 14.691406 31.328125 15.101562 32.085938 15.40625 C 32.664062 15.644531 32.753906 15.710938 32.753906 15.925781 C 32.753906 16.21875 32.5 16.355469 31.929688 16.351562 C 31.503906 16.347656 31.117188 16.296875 30.65625 16.167969 L 30.453125 17.25 C 30.859375 17.347656 31.433594 17.378906 31.941406 17.390625 C 33.453125 17.390625 34.148438 16.894531 34.148438 15.820312 C 34.148438 15.171875 33.859375 14.792969 33.140625 14.511719 C 32.539062 14.269531 32.46875 14.21875 32.46875 14 C 32.46875 13.742188 32.707031 13.613281 33.171875 13.613281 C 33.453125 13.613281 33.835938 13.640625 34.203125 13.683594 L 34.40625 12.59375 C 34.035156 12.542969 33.472656 12.5 33.144531 12.5 C 31.542969 12.5 30.988281 13.226562 30.996094 14.09375 " fill-opacity="1" fill-rule="nonzero"/><path fill="#ffffff" d="M 25.445312 17.3125 L 24.269531 17.3125 L 24.296875 16.820312 C 23.941406 17.207031 23.464844 17.390625 22.816406 17.390625 C 22.050781 17.390625 21.527344 16.863281 21.527344 16.109375 C 21.527344 14.957031 22.4375 14.292969 24.007812 14.292969 C 24.167969 14.292969 24.371094 14.308594 24.582031 14.332031 C 24.625 14.175781 24.636719 14.109375 24.636719 14.027344 C 24.636719 13.710938 24.390625 13.597656 23.730469 13.597656 C 23.082031 13.597656 22.640625 13.695312 22.234375 13.804688 L 22.433594 12.75 C 23.140625 12.570312 23.601562 12.5 24.121094 12.5 C 25.335938 12.5 25.976562 12.980469 25.976562 13.878906 C 25.988281 14.117188 25.90625 14.597656 25.863281 14.808594 C 25.816406 15.117188 25.480469 16.894531 25.445312 17.3125 Z M 24.414062 15.214844 C 24.265625 15.199219 24.199219 15.195312 24.097656 15.195312 C 23.296875 15.195312 22.890625 15.433594 22.890625 15.90625 C 22.890625 16.203125 23.089844 16.390625 23.398438 16.390625 C 23.972656 16.390625 24.390625 15.90625 24.414062 15.214844 Z M 24.414062 15.214844 " fill-opacity="1" fill-rule="nonzero"/><path fill="#ffffff" d="M 36.621094 17.238281 C 36.238281 17.34375 35.9375 17.390625 35.613281 17.390625 C 34.894531 17.390625 34.5 17.019531 34.5 16.363281 C 34.480469 16.183594 34.65625 15.347656 34.695312 15.117188 C 34.734375 14.882812 35.355469 11.484375 35.355469 11.484375 L 36.753906 11.484375 L 36.542969 12.609375 L 37.257812 12.609375 L 37.066406 13.757812 L 36.34375 13.757812 C 36.34375 13.757812 35.949219 15.75 35.949219 15.902344 C 35.949219 16.140625 36.09375 16.246094 36.429688 16.246094 C 36.589844 16.246094 36.714844 16.234375 36.808594 16.203125 L 36.621094 17.238281 " fill-opacity="1" fill-rule="nonzero"/><path fill="#ffffff" d="M 43.570312 14.5625 C 43.570312 15.621094 43.136719 16.25 42.453125 16.25 C 41.957031 16.257812 41.652344 15.835938 41.652344 15.207031 C 41.652344 14.464844 42.09375 13.621094 42.804688 13.621094 C 43.375 13.621094 43.570312 14.078125 43.570312 14.5625 Z M 45.078125 14.589844 C 45.078125 13.417969 44.3125 12.5 42.867188 12.5 C 41.203125 12.5 40.125 13.613281 40.125 15.253906 C 40.125 16.429688 40.761719 17.390625 42.335938 17.390625 C 43.929688 17.390625 45.078125 16.535156 45.078125 14.589844 Z M 45.078125 14.589844 " fill-opacity="1" fill-rule="nonzero"/><path fill="#ffffff" d="M 37.867188 12.609375 C 37.691406 14.0625 37.375 15.539062 37.128906 16.996094 L 37.070312 17.3125 L 38.480469 17.3125 C 38.992188 14.5 39.160156 13.695312 40.226562 13.980469 L 40.738281 12.644531 C 39.996094 12.371094 39.515625 12.761719 39.085938 13.320312 C 39.125 13.070312 39.195312 12.828125 39.179688 12.609375 L 37.867188 12.609375 " fill-opacity="1" fill-rule="nonzero"/><path fill="#ffffff" d="M 20.867188 17.3125 L 19.464844 17.3125 L 20.296875 12.894531 L 18.375 17.3125 L 17.09375 17.3125 L 16.859375 12.917969 L 16.023438 17.3125 L 14.746094 17.3125 L 15.832031 11.5625 L 18.03125 11.5625 L 18.144531 15.125 L 19.691406 11.5625 L 21.976562 11.5625 L 20.867188 17.3125 " fill-opacity="1" fill-rule="nonzero"/></svg>