<svg xmlns="http://www.w3.org/2000/svg" xmlns:xlink="http://www.w3.org/1999/xlink" width="80" zoomAndPan="magnify" viewBox="0 0 60 30.000001" height="40" preserveAspectRatio="xMidYMid meet" version="1.0"><defs><clipPath id="7400f89d79"><path d="M 0.96875 0 L 59.03125 0 L 59.03125 29.03125 L 0.96875 29.03125 Z M 0.96875 0 " clip-rule="nonzero"/></clipPath><clipPath id="11f4449fb4"><path d="M 1 1.160156 L 59 1.160156 L 59 28.015625 L 1 28.015625 Z M 1 1.160156 " clip-rule="nonzero"/></clipPath></defs><g clip-path="url(#7400f89d79)"><path fill="#ffffff" d="M 0.96875 0 L 59.03125 0 L 59.03125 29.03125 L 0.96875 29.03125 Z M 0.96875 0 " fill-opacity="1" fill-rule="nonzero"/><path fill="#ffffff" d="M 0.96875 0 L 59.03125 0 L 59.03125 29.03125 L 0.96875 29.03125 Z M 0.96875 0 " fill-opacity="1" fill-rule="nonzero"/></g><g clip-path="url(#11f4449fb4)"><path fill="#ffffff" d="M 1.066406 1.160156 L 58.933594 1.160156 L 58.933594 28.015625 L 1.066406 28.015625 Z M 1.066406 1.160156 " fill-opacity="1" fill-rule="nonzero"/></g><path fill="#231f20" d="M 26.757812 15.8125 L 26.757812 14.035156 C 26.757812 13.363281 26.332031 12.914062 25.648438 12.90625 C 25.453125 12.894531 25.257812 12.933594 25.082031 13.023438 C 24.910156 13.113281 24.761719 13.246094 24.65625 13.414062 C 24.558594 13.25 24.421875 13.121094 24.257812 13.03125 C 24.09375 12.941406 23.910156 12.898438 23.722656 12.90625 C 23.5625 12.898438 23.402344 12.933594 23.257812 13.007812 C 23.113281 13.082031 22.988281 13.191406 22.898438 13.328125 L 22.898438 12.972656 L 22.285156 12.972656 L 22.285156 15.8125 L 22.90625 15.8125 L 22.90625 14.242188 C 22.90625 13.746094 23.175781 13.488281 23.597656 13.488281 C 24.015625 13.488281 24.210938 13.753906 24.210938 14.234375 L 24.210938 15.8125 L 24.824219 15.8125 L 24.824219 14.242188 C 24.824219 13.746094 25.109375 13.488281 25.515625 13.488281 C 25.921875 13.488281 26.136719 13.753906 26.136719 14.234375 L 26.136719 15.8125 Z M 35.921875 12.976562 L 34.921875 12.976562 L 34.921875 12.117188 L 34.300781 12.117188 L 34.300781 12.976562 L 33.730469 12.976562 L 33.730469 13.539062 L 34.300781 13.539062 L 34.300781 14.832031 C 34.300781 15.492188 34.554688 15.882812 35.28125 15.882812 C 35.550781 15.882812 35.816406 15.808594 36.046875 15.664062 L 35.871094 15.136719 C 35.707031 15.234375 35.519531 15.289062 35.328125 15.296875 C 35.019531 15.296875 34.921875 15.105469 34.921875 14.820312 L 34.921875 13.539062 L 35.921875 13.539062 Z M 41.15625 12.90625 C 41.007812 12.902344 40.859375 12.9375 40.726562 13.011719 C 40.597656 13.082031 40.488281 13.191406 40.414062 13.320312 L 40.414062 12.976562 L 39.804688 12.976562 L 39.804688 15.8125 L 40.417969 15.8125 L 40.417969 14.222656 C 40.417969 13.75 40.621094 13.492188 41.019531 13.492188 C 41.152344 13.492188 41.28125 13.515625 41.40625 13.5625 L 41.59375 12.984375 C 41.453125 12.933594 41.304688 12.90625 41.15625 12.90625 Z M 33.246094 13.203125 C 32.898438 12.992188 32.5 12.890625 32.09375 12.90625 C 31.378906 12.90625 30.917969 13.25 30.917969 13.8125 C 30.917969 14.277344 31.257812 14.558594 31.890625 14.648438 L 32.179688 14.691406 C 32.511719 14.738281 32.671875 14.828125 32.671875 14.988281 C 32.671875 15.207031 32.449219 15.332031 32.03125 15.332031 C 31.691406 15.34375 31.359375 15.238281 31.089844 15.035156 L 30.808594 15.515625 C 31.167969 15.765625 31.59375 15.894531 32.03125 15.882812 C 32.84375 15.882812 33.316406 15.496094 33.316406 14.957031 C 33.316406 14.460938 32.945312 14.199219 32.332031 14.109375 L 32.042969 14.070312 C 31.777344 14.03125 31.566406 13.980469 31.566406 13.789062 C 31.566406 13.582031 31.765625 13.457031 32.101562 13.457031 C 32.410156 13.464844 32.714844 13.546875 32.980469 13.703125 Z M 49.679688 12.90625 C 49.527344 12.902344 49.378906 12.9375 49.25 13.011719 C 49.117188 13.082031 49.011719 13.191406 48.933594 13.320312 L 48.933594 12.976562 L 48.328125 12.976562 L 48.328125 15.8125 L 48.941406 15.8125 L 48.941406 14.222656 C 48.941406 13.75 49.140625 13.492188 49.542969 13.492188 C 49.675781 13.492188 49.804688 13.515625 49.925781 13.5625 L 50.113281 12.984375 C 49.976562 12.933594 49.828125 12.90625 49.679688 12.90625 Z M 41.777344 14.394531 C 41.777344 15.253906 42.371094 15.882812 43.28125 15.882812 C 43.648438 15.902344 44.011719 15.78125 44.292969 15.542969 L 44 15.046875 C 43.789062 15.207031 43.527344 15.296875 43.261719 15.300781 C 42.773438 15.300781 42.414062 14.9375 42.414062 14.394531 C 42.414062 13.847656 42.773438 13.492188 43.261719 13.484375 C 43.527344 13.488281 43.789062 13.578125 44 13.742188 L 44.292969 13.242188 C 44.011719 13.003906 43.648438 12.886719 43.28125 12.902344 C 42.371094 12.902344 41.777344 13.53125 41.777344 14.390625 Z M 47.523438 14.394531 L 47.523438 12.972656 L 46.90625 12.972656 L 46.90625 13.316406 C 46.804688 13.183594 46.667969 13.074219 46.511719 13 C 46.359375 12.929688 46.1875 12.894531 46.019531 12.902344 C 45.226562 12.902344 44.605469 13.523438 44.605469 14.390625 C 44.605469 15.257812 45.222656 15.878906 46.019531 15.878906 C 46.1875 15.886719 46.359375 15.851562 46.511719 15.78125 C 46.667969 15.707031 46.804688 15.597656 46.90625 15.464844 L 46.90625 15.808594 L 47.523438 15.808594 Z M 45.238281 14.394531 C 45.238281 13.894531 45.5625 13.488281 46.09375 13.488281 C 46.601562 13.488281 46.941406 13.878906 46.941406 14.394531 C 46.941406 14.910156 46.601562 15.300781 46.09375 15.300781 C 45.5625 15.300781 45.238281 14.890625 45.238281 14.394531 Z M 37.835938 12.90625 C 37.011719 12.90625 36.429688 13.511719 36.429688 14.394531 C 36.429688 15.296875 37.03125 15.882812 37.875 15.882812 C 38.296875 15.898438 38.710938 15.757812 39.03125 15.484375 L 38.734375 15.027344 C 38.5 15.214844 38.207031 15.320312 37.90625 15.324219 C 37.511719 15.324219 37.152344 15.140625 37.066406 14.628906 L 39.160156 14.628906 C 39.164062 14.554688 39.171875 14.476562 39.171875 14.394531 C 39.171875 13.507812 38.621094 12.90625 37.832031 12.90625 Z M 37.824219 13.457031 C 38.21875 13.457031 38.472656 13.707031 38.535156 14.144531 L 37.074219 14.144531 C 37.140625 13.734375 37.386719 13.457031 37.824219 13.457031 Z M 53.210938 14.394531 L 53.210938 11.835938 L 52.597656 11.835938 L 52.597656 13.320312 C 52.492188 13.183594 52.359375 13.074219 52.203125 13.003906 C 52.046875 12.929688 51.878906 12.898438 51.707031 12.90625 C 50.917969 12.90625 50.292969 13.527344 50.292969 14.394531 C 50.292969 15.257812 50.914062 15.882812 51.707031 15.882812 C 51.878906 15.890625 52.046875 15.855469 52.203125 15.78125 C 52.359375 15.710938 52.492188 15.601562 52.597656 15.464844 L 52.597656 15.808594 L 53.210938 15.808594 Z M 53.929688 15.550781 C 53.953125 15.550781 53.976562 15.554688 54 15.5625 C 54.019531 15.574219 54.039062 15.585938 54.058594 15.601562 C 54.074219 15.621094 54.085938 15.640625 54.097656 15.660156 C 54.105469 15.683594 54.109375 15.707031 54.109375 15.730469 C 54.109375 15.753906 54.105469 15.777344 54.097656 15.800781 C 54.085938 15.820312 54.074219 15.839844 54.058594 15.855469 C 54.039062 15.875 54.019531 15.886719 54 15.894531 C 53.976562 15.90625 53.953125 15.910156 53.929688 15.910156 C 53.894531 15.910156 53.859375 15.902344 53.828125 15.878906 C 53.796875 15.859375 53.773438 15.832031 53.757812 15.800781 C 53.75 15.777344 53.746094 15.753906 53.746094 15.730469 C 53.746094 15.707031 53.75 15.683594 53.757812 15.660156 C 53.777344 15.617188 53.8125 15.582031 53.855469 15.5625 C 53.878906 15.554688 53.90625 15.550781 53.929688 15.550781 Z M 53.929688 15.871094 C 53.949219 15.871094 53.964844 15.867188 53.984375 15.859375 C 54 15.851562 54.015625 15.84375 54.027344 15.828125 C 54.054688 15.804688 54.066406 15.765625 54.066406 15.730469 C 54.066406 15.691406 54.054688 15.65625 54.027344 15.628906 C 54.015625 15.617188 54 15.609375 53.984375 15.601562 C 53.964844 15.59375 53.949219 15.589844 53.929688 15.589844 C 53.910156 15.589844 53.890625 15.59375 53.875 15.601562 C 53.851562 15.609375 53.835938 15.625 53.820312 15.640625 C 53.804688 15.660156 53.796875 15.679688 53.792969 15.703125 C 53.785156 15.726562 53.789062 15.75 53.792969 15.769531 C 53.800781 15.792969 53.8125 15.8125 53.828125 15.828125 C 53.839844 15.84375 53.855469 15.851562 53.875 15.859375 C 53.890625 15.867188 53.910156 15.871094 53.929688 15.871094 Z M 53.941406 15.644531 C 53.957031 15.644531 53.976562 15.648438 53.988281 15.660156 C 53.996094 15.664062 54 15.667969 54.003906 15.675781 C 54.007812 15.683594 54.007812 15.691406 54.007812 15.699219 C 54.007812 15.703125 54.007812 15.710938 54.003906 15.71875 C 54 15.722656 53.996094 15.726562 53.992188 15.734375 C 53.980469 15.742188 53.96875 15.746094 53.953125 15.75 L 54.007812 15.8125 L 53.964844 15.8125 L 53.914062 15.75 L 53.898438 15.75 L 53.898438 15.8125 L 53.863281 15.8125 L 53.863281 15.644531 Z M 53.898438 15.675781 L 53.898438 15.71875 L 53.941406 15.71875 C 53.945312 15.722656 53.953125 15.722656 53.960938 15.71875 C 53.964844 15.71875 53.964844 15.714844 53.96875 15.714844 C 53.96875 15.710938 53.96875 15.707031 53.96875 15.703125 C 53.96875 15.699219 53.96875 15.699219 53.96875 15.695312 C 53.964844 15.691406 53.964844 15.6875 53.960938 15.6875 C 53.953125 15.683594 53.945312 15.683594 53.941406 15.6875 Z M 50.929688 14.394531 C 50.929688 13.894531 51.253906 13.488281 51.785156 13.488281 C 52.292969 13.488281 52.636719 13.878906 52.636719 14.394531 C 52.636719 14.910156 52.292969 15.300781 51.785156 15.300781 C 51.253906 15.300781 50.929688 14.890625 50.929688 14.394531 Z M 30.214844 14.394531 L 30.214844 12.972656 L 29.601562 12.972656 L 29.601562 13.316406 C 29.496094 13.183594 29.359375 13.074219 29.207031 13.003906 C 29.050781 12.933594 28.882812 12.898438 28.710938 12.90625 C 27.921875 12.90625 27.300781 13.527344 27.300781 14.394531 C 27.300781 15.261719 27.917969 15.882812 28.710938 15.882812 C 28.882812 15.890625 29.054688 15.855469 29.207031 15.785156 C 29.363281 15.710938 29.5 15.601562 29.601562 15.46875 L 29.601562 15.8125 L 30.21875 15.8125 Z M 27.929688 14.394531 C 27.929688 13.894531 28.253906 13.488281 28.785156 13.488281 C 29.292969 13.488281 29.636719 13.878906 29.636719 14.394531 C 29.636719 14.910156 29.292969 15.300781 28.785156 15.300781 C 28.253906 15.300781 27.929688 14.894531 27.929688 14.394531 Z M 27.929688 14.394531 " fill-opacity="1" fill-rule="nonzero"/><path fill="#ff5f00" d="M 14.457031 11.023438 L 10.746094 11.023438 L 10.746094 17.726562 L 14.457031 17.726562 Z M 14.457031 11.023438 " fill-opacity="1" fill-rule="nonzero"/><path fill="#eb001b" d="M 10.980469 14.378906 C 10.980469 13.730469 11.125 13.09375 11.40625 12.515625 C 11.6875 11.933594 12.097656 11.425781 12.601562 11.027344 C 11.976562 10.53125 11.222656 10.222656 10.433594 10.140625 C 9.640625 10.054688 8.84375 10.195312 8.128906 10.542969 C 7.410156 10.894531 6.808594 11.4375 6.386719 12.117188 C 5.964844 12.792969 5.742188 13.578125 5.742188 14.378906 C 5.742188 15.179688 5.964844 15.960938 6.386719 16.640625 C 6.808594 17.320312 7.410156 17.863281 8.128906 18.214844 C 8.84375 18.5625 9.640625 18.703125 10.433594 18.617188 C 11.222656 18.53125 11.976562 18.226562 12.601562 17.730469 C 12.097656 17.332031 11.6875 16.824219 11.40625 16.242188 C 11.125 15.660156 10.980469 15.023438 10.980469 14.378906 Z M 10.980469 14.378906 " fill-opacity="1" fill-rule="nonzero"/><path fill="#f79e1b" d="M 19.460938 14.378906 C 19.460938 15.175781 19.238281 15.960938 18.816406 16.640625 C 18.394531 17.316406 17.789062 17.863281 17.074219 18.210938 C 16.359375 18.5625 15.558594 18.703125 14.769531 18.617188 C 13.976562 18.53125 13.226562 18.222656 12.601562 17.730469 C 13.105469 17.332031 13.515625 16.820312 13.792969 16.242188 C 14.074219 15.660156 14.222656 15.023438 14.222656 14.378906 C 14.222656 13.730469 14.074219 13.09375 13.792969 12.511719 C 13.515625 11.933594 13.105469 11.421875 12.601562 11.023438 C 13.226562 10.53125 13.976562 10.222656 14.769531 10.136719 C 15.558594 10.050781 16.359375 10.191406 17.074219 10.542969 C 17.789062 10.890625 18.394531 11.4375 18.816406 12.113281 C 19.238281 12.792969 19.460938 13.578125 19.460938 14.378906 Z M 19.460938 14.378906 " fill-opacity="1" fill-rule="nonzero"/><path fill="#f79e1b" d="M 19.054688 17.015625 L 19.054688 16.878906 L 19.109375 16.878906 L 19.109375 16.851562 L 18.972656 16.851562 L 18.972656 16.882812 L 19.027344 16.882812 L 19.027344 17.019531 Z M 19.328125 17.015625 L 19.328125 16.851562 L 19.289062 16.851562 L 19.242188 16.96875 L 19.191406 16.851562 L 19.148438 16.851562 L 19.148438 17.015625 L 19.171875 17.015625 L 19.171875 16.894531 L 19.21875 17 L 19.25 17 L 19.296875 16.894531 L 19.296875 17.019531 Z M 19.328125 17.015625 " fill-opacity="1" fill-rule="nonzero"/></svg>