<svg xmlns="http://www.w3.org/2000/svg" xmlns:xlink="http://www.w3.org/1999/xlink" width="80" zoomAndPan="magnify" viewBox="0 0 60 30.000001" height="40" preserveAspectRatio="xMidYMid meet" version="1.0"><defs><clipPath id="b89e35e64d"><path d="M 0.96875 0 L 59.03125 0 L 59.03125 29.03125 L 0.96875 29.03125 Z M 0.96875 0 " clip-rule="nonzero"/></clipPath><clipPath id="da9c9c0b8e"><path d="M 1 1.160156 L 59 1.160156 L 59 28.015625 L 1 28.015625 Z M 1 1.160156 " clip-rule="nonzero"/></clipPath></defs><g clip-path="url(#b89e35e64d)"><path fill="#ffffff" d="M 0.96875 0 L 59.03125 0 L 59.03125 29.03125 L 0.96875 29.03125 Z M 0.96875 0 " fill-opacity="1" fill-rule="nonzero"/><path fill="#ffffff" d="M 0.96875 0 L 59.03125 0 L 59.03125 29.03125 L 0.96875 29.03125 Z M 0.96875 0 " fill-opacity="1" fill-rule="nonzero"/></g><g clip-path="url(#da9c9c0b8e)"><path fill="#ffffff" d="M 1.066406 1.160156 L 58.933594 1.160156 L 58.933594 28.015625 L 1.066406 28.015625 Z M 1.066406 1.160156 " fill-opacity="1" fill-rule="nonzero"/></g><path fill="#939598" d="M 29.332031 10.152344 C 28.042969 10.152344 26.996094 11.203125 26.996094 12.5 L 26.996094 20.273438 C 26.996094 20.40625 26.890625 20.511719 26.757812 20.511719 C 26.625 20.511719 26.519531 20.40625 26.519531 20.273438 L 26.519531 12.5 C 26.519531 10.9375 27.78125 9.671875 29.332031 9.671875 L 31.617188 9.675781 C 33.164062 9.679688 34.421875 10.941406 34.421875 12.5 L 34.421875 14.15625 C 34.421875 15.71875 33.160156 16.984375 31.605469 16.984375 L 28.382812 16.984375 C 28.25 16.984375 28.144531 16.878906 28.144531 16.746094 C 28.144531 16.613281 28.25 16.503906 28.382812 16.503906 L 31.605469 16.503906 C 32.898438 16.503906 33.945312 15.453125 33.945312 14.15625 L 33.945312 12.5 C 33.945312 11.207031 32.902344 10.15625 31.617188 10.152344 Z M 29.332031 10.152344 " fill-opacity="1" fill-rule="evenodd"/><path fill="#939598" d="M 34.582031 9.910156 C 34.582031 9.777344 34.6875 9.671875 34.820312 9.671875 L 35.808594 9.671875 C 36.527344 9.671875 37.105469 10.253906 37.105469 10.972656 L 37.105469 16.78125 C 37.105469 16.910156 37 17.019531 36.867188 17.019531 C 36.734375 17.019531 36.628906 16.910156 36.628906 16.78125 L 36.628906 10.972656 C 36.628906 10.519531 36.261719 10.148438 35.808594 10.148438 L 34.820312 10.148438 C 34.6875 10.148438 34.582031 10.042969 34.582031 9.910156 Z M 34.582031 9.910156 " fill-opacity="1" fill-rule="evenodd"/><path fill="#32bcad" d="M 36.65625 9.011719 L 36.207031 8.558594 C 36.09375 8.445312 36.09375 8.265625 36.207031 8.152344 L 36.65625 7.703125 C 36.765625 7.589844 36.945312 7.589844 37.058594 7.703125 L 37.507812 8.152344 C 37.617188 8.265625 37.617188 8.445312 37.507812 8.558594 L 37.058594 9.011719 C 36.945312 9.121094 36.765625 9.121094 36.65625 9.011719 Z M 36.65625 9.011719 " fill-opacity="1" fill-rule="nonzero"/><path fill="#939598" d="M 38.527344 9.90625 C 38.527344 9.773438 38.636719 9.664062 38.765625 9.664062 L 39.75 9.664062 C 40.316406 9.664062 40.863281 9.894531 41.261719 10.296875 L 43.558594 12.605469 C 43.765625 12.8125 44.097656 12.8125 44.300781 12.605469 L 46.589844 10.304688 C 46.992188 9.902344 47.535156 9.675781 48.105469 9.675781 L 48.902344 9.675781 C 49.035156 9.675781 49.140625 9.78125 49.140625 9.914062 C 49.140625 10.046875 49.035156 10.152344 48.902344 10.152344 L 48.105469 10.152344 C 47.660156 10.152344 47.238281 10.328125 46.925781 10.644531 L 44.636719 12.945312 C 44.246094 13.335938 43.613281 13.335938 43.222656 12.945312 L 40.925781 10.636719 C 40.613281 10.320312 40.191406 10.144531 39.75 10.144531 L 38.765625 10.144531 C 38.636719 10.144531 38.527344 10.039062 38.527344 9.90625 Z M 38.527344 9.90625 " fill-opacity="1" fill-rule="evenodd"/><path fill="#939598" d="M 44.300781 14.027344 C 44.097656 13.820312 43.765625 13.820312 43.558594 14.027344 L 41.261719 16.335938 C 40.863281 16.742188 40.316406 16.96875 39.75 16.96875 L 38.765625 16.96875 C 38.636719 16.96875 38.527344 16.859375 38.527344 16.730469 C 38.527344 16.597656 38.636719 16.488281 38.765625 16.488281 L 39.75 16.488281 C 40.191406 16.488281 40.613281 16.3125 40.925781 16 L 43.222656 13.6875 C 43.613281 13.296875 44.246094 13.296875 44.636719 13.6875 L 46.925781 15.988281 C 47.238281 16.304688 47.660156 16.480469 48.105469 16.480469 L 48.902344 16.480469 C 49.035156 16.480469 49.140625 16.589844 49.140625 16.71875 C 49.140625 16.851562 49.035156 16.960938 48.902344 16.960938 L 48.105469 16.960938 C 47.535156 16.960938 46.992188 16.734375 46.589844 16.328125 Z M 44.300781 14.027344 " fill-opacity="1" fill-rule="evenodd"/><path fill="#32bcad" d="M 20.902344 18.203125 C 20.410156 18.203125 19.949219 18.011719 19.597656 17.660156 L 17.714844 15.765625 C 17.582031 15.632812 17.351562 15.632812 17.21875 15.765625 L 15.328125 17.667969 C 14.980469 18.019531 14.519531 18.210938 14.023438 18.210938 L 13.652344 18.210938 L 16.039062 20.609375 C 16.785156 21.359375 17.992188 21.359375 18.738281 20.609375 L 21.132812 18.203125 Z M 20.902344 18.203125 " fill-opacity="1" fill-rule="nonzero"/><path fill="#32bcad" d="M 14.023438 11.503906 C 14.519531 11.503906 14.980469 11.695312 15.328125 12.046875 L 17.21875 13.949219 C 17.355469 14.085938 17.578125 14.085938 17.714844 13.949219 L 19.597656 12.054688 C 19.949219 11.703125 20.410156 11.511719 20.902344 11.511719 L 21.132812 11.511719 L 18.738281 9.105469 C 17.992188 8.355469 16.785156 8.355469 16.039062 9.105469 L 13.652344 11.503906 Z M 14.023438 11.503906 " fill-opacity="1" fill-rule="nonzero"/><path fill="#32bcad" d="M 23.109375 13.5 L 21.664062 12.046875 C 21.632812 12.058594 21.597656 12.066406 21.5625 12.066406 L 20.902344 12.066406 C 20.5625 12.066406 20.230469 12.207031 19.992188 12.449219 L 18.109375 14.34375 C 17.929688 14.519531 17.699219 14.609375 17.46875 14.609375 C 17.238281 14.609375 17.003906 14.519531 16.828125 14.34375 L 14.9375 12.441406 C 14.699219 12.199219 14.363281 12.058594 14.023438 12.058594 L 13.214844 12.058594 C 13.183594 12.058594 13.148438 12.050781 13.121094 12.039062 L 11.667969 13.5 C 10.921875 14.25 10.921875 15.464844 11.667969 16.214844 L 13.121094 17.671875 C 13.148438 17.664062 13.183594 17.652344 13.214844 17.652344 L 14.023438 17.652344 C 14.363281 17.652344 14.699219 17.515625 14.9375 17.273438 L 16.828125 15.371094 C 17.171875 15.027344 17.765625 15.027344 18.109375 15.371094 L 19.992188 17.265625 C 20.230469 17.507812 20.5625 17.648438 20.902344 17.648438 L 21.5625 17.648438 C 21.597656 17.648438 21.632812 17.65625 21.664062 17.667969 L 23.109375 16.214844 C 23.855469 15.464844 23.855469 14.25 23.109375 13.5 Z M 23.109375 13.5 " fill-opacity="1" fill-rule="nonzero"/><path fill="#939598" d="M 28.722656 19.613281 C 28.613281 19.613281 28.488281 19.640625 28.367188 19.667969 L 28.367188 20.140625 C 28.453125 20.171875 28.550781 20.1875 28.640625 20.1875 C 28.878906 20.1875 28.992188 20.109375 28.992188 19.898438 C 28.992188 19.703125 28.898438 19.613281 28.722656 19.613281 Z M 28.289062 20.492188 L 28.289062 19.554688 L 28.351562 19.554688 L 28.359375 19.597656 C 28.46875 19.570312 28.621094 19.539062 28.726562 19.539062 C 28.816406 19.539062 28.898438 19.550781 28.96875 19.609375 C 29.050781 19.675781 29.074219 19.78125 29.074219 19.898438 C 29.074219 20.019531 29.035156 20.136719 28.925781 20.199219 C 28.847656 20.242188 28.742188 20.261719 28.652344 20.261719 C 28.554688 20.261719 28.464844 20.246094 28.367188 20.21875 L 28.367188 20.492188 Z M 28.289062 20.492188 " fill-opacity="1" fill-rule="nonzero"/><path fill="#939598" d="M 29.667969 19.609375 C 29.433594 19.609375 29.328125 19.683594 29.328125 19.894531 C 29.328125 20.097656 29.429688 20.1875 29.667969 20.1875 C 29.902344 20.1875 30.007812 20.113281 30.007812 19.90625 C 30.007812 19.703125 29.90625 19.609375 29.667969 19.609375 Z M 29.972656 20.1875 C 29.894531 20.246094 29.789062 20.261719 29.667969 20.261719 C 29.546875 20.261719 29.441406 20.242188 29.363281 20.1875 C 29.277344 20.125 29.242188 20.027344 29.242188 19.898438 C 29.242188 19.773438 29.277344 19.671875 29.363281 19.609375 C 29.441406 19.554688 29.546875 19.539062 29.667969 19.539062 C 29.789062 19.539062 29.894531 19.554688 29.972656 19.609375 C 30.0625 19.671875 30.09375 19.773438 30.09375 19.898438 C 30.09375 20.023438 30.058594 20.125 29.972656 20.1875 Z M 29.972656 20.1875 " fill-opacity="1" fill-rule="nonzero"/><path fill="#939598" d="M 31.089844 20.242188 L 30.828125 19.671875 L 30.824219 19.671875 L 30.5625 20.242188 L 30.492188 20.242188 L 30.210938 19.554688 L 30.296875 19.554688 L 30.53125 20.132812 L 30.539062 20.132812 L 30.792969 19.554688 L 30.863281 19.554688 L 31.125 20.132812 L 31.128906 20.132812 L 31.359375 19.554688 L 31.445312 19.554688 L 31.164062 20.242188 Z M 31.089844 20.242188 " fill-opacity="1" fill-rule="nonzero"/><path fill="#939598" d="M 31.953125 19.609375 C 31.734375 19.609375 31.660156 19.707031 31.644531 19.847656 L 32.257812 19.847656 C 32.253906 19.691406 32.171875 19.609375 31.953125 19.609375 Z M 31.949219 20.261719 C 31.820312 20.261719 31.734375 20.242188 31.667969 20.183594 C 31.585938 20.117188 31.558594 20.015625 31.558594 19.898438 C 31.558594 19.789062 31.597656 19.671875 31.6875 19.605469 C 31.761719 19.554688 31.855469 19.539062 31.953125 19.539062 C 32.039062 19.539062 32.140625 19.546875 32.226562 19.605469 C 32.324219 19.671875 32.34375 19.785156 32.34375 19.921875 L 31.644531 19.921875 C 31.644531 20.0625 31.691406 20.1875 31.957031 20.1875 C 32.082031 20.1875 32.199219 20.164062 32.308594 20.148438 L 32.308594 20.21875 C 32.195312 20.238281 32.070312 20.261719 31.949219 20.261719 Z M 31.949219 20.261719 " fill-opacity="1" fill-rule="nonzero"/><path fill="#939598" d="M 32.570312 20.242188 L 32.570312 19.554688 L 32.636719 19.554688 L 32.644531 19.597656 C 32.789062 19.558594 32.855469 19.539062 32.980469 19.539062 L 32.992188 19.539062 L 32.992188 19.613281 L 32.972656 19.613281 C 32.867188 19.613281 32.800781 19.628906 32.652344 19.667969 L 32.652344 20.242188 Z M 32.570312 20.242188 " fill-opacity="1" fill-rule="nonzero"/><path fill="#939598" d="M 33.453125 19.609375 C 33.234375 19.609375 33.160156 19.707031 33.148438 19.847656 L 33.761719 19.847656 C 33.753906 19.691406 33.675781 19.609375 33.453125 19.609375 Z M 33.453125 20.261719 C 33.320312 20.261719 33.234375 20.242188 33.167969 20.183594 C 33.089844 20.117188 33.0625 20.015625 33.0625 19.898438 C 33.0625 19.789062 33.097656 19.671875 33.1875 19.605469 C 33.265625 19.554688 33.355469 19.539062 33.453125 19.539062 C 33.542969 19.539062 33.644531 19.546875 33.726562 19.605469 C 33.824219 19.671875 33.84375 19.785156 33.84375 19.921875 L 33.144531 19.921875 C 33.148438 20.0625 33.195312 20.1875 33.457031 20.1875 C 33.582031 20.1875 33.699219 20.164062 33.808594 20.148438 L 33.808594 20.21875 C 33.695312 20.238281 33.570312 20.261719 33.453125 20.261719 Z M 33.453125 20.261719 " fill-opacity="1" fill-rule="nonzero"/><path fill="#939598" d="M 34.714844 19.65625 C 34.632812 19.625 34.535156 19.609375 34.441406 19.609375 C 34.207031 19.609375 34.09375 19.691406 34.09375 19.898438 C 34.09375 20.097656 34.183594 20.183594 34.363281 20.183594 C 34.46875 20.183594 34.59375 20.160156 34.714844 20.132812 Z M 34.730469 20.242188 L 34.726562 20.199219 C 34.617188 20.226562 34.464844 20.261719 34.355469 20.261719 C 34.269531 20.261719 34.183594 20.25 34.113281 20.191406 C 34.035156 20.125 34.007812 20.015625 34.007812 19.898438 C 34.007812 19.777344 34.046875 19.660156 34.160156 19.601562 C 34.234375 19.554688 34.339844 19.539062 34.433594 19.539062 C 34.527344 19.539062 34.621094 19.554688 34.714844 19.582031 L 34.714844 19.265625 L 34.796875 19.265625 L 34.796875 20.242188 Z M 34.730469 20.242188 " fill-opacity="1" fill-rule="nonzero"/><path fill="#939598" d="M 35.964844 19.613281 C 35.859375 19.613281 35.734375 19.640625 35.609375 19.667969 L 35.609375 20.140625 C 35.695312 20.171875 35.792969 20.1875 35.886719 20.1875 C 36.121094 20.1875 36.234375 20.109375 36.234375 19.898438 C 36.234375 19.703125 36.140625 19.613281 35.964844 19.613281 Z M 36.167969 20.199219 C 36.089844 20.242188 35.988281 20.261719 35.894531 20.261719 C 35.792969 20.261719 35.691406 20.242188 35.589844 20.210938 L 35.585938 20.242188 L 35.53125 20.242188 L 35.53125 19.265625 L 35.609375 19.265625 L 35.609375 19.59375 C 35.71875 19.570312 35.867188 19.539062 35.972656 19.539062 C 36.058594 19.539062 36.140625 19.550781 36.210938 19.609375 C 36.292969 19.675781 36.320312 19.78125 36.320312 19.898438 C 36.320312 20.019531 36.277344 20.136719 36.167969 20.199219 Z M 36.167969 20.199219 " fill-opacity="1" fill-rule="nonzero"/><path fill="#939598" d="M 36.425781 20.503906 L 36.425781 20.429688 C 36.464844 20.433594 36.5 20.4375 36.527344 20.4375 C 36.625 20.4375 36.683594 20.410156 36.738281 20.296875 L 36.765625 20.242188 L 36.410156 19.554688 L 36.5 19.554688 L 36.804688 20.148438 L 36.8125 20.148438 L 37.101562 19.554688 L 37.191406 19.554688 L 36.808594 20.324219 C 36.738281 20.464844 36.664062 20.511719 36.523438 20.511719 C 36.492188 20.511719 36.457031 20.507812 36.425781 20.503906 Z M 36.425781 20.503906 " fill-opacity="1" fill-rule="nonzero"/><path fill="#939598" d="M 38.289062 19.851562 L 38.023438 19.851562 L 38.023438 20.089844 L 38.292969 20.089844 C 38.472656 20.089844 38.542969 20.070312 38.542969 19.96875 C 38.542969 19.863281 38.449219 19.851562 38.289062 19.851562 Z M 38.242188 19.460938 L 38.023438 19.460938 L 38.023438 19.707031 L 38.242188 19.707031 C 38.421875 19.707031 38.492188 19.683594 38.492188 19.582031 C 38.492188 19.472656 38.402344 19.460938 38.242188 19.460938 Z M 38.652344 20.175781 C 38.554688 20.238281 38.4375 20.242188 38.222656 20.242188 L 37.820312 20.242188 L 37.820312 19.3125 L 38.214844 19.3125 C 38.398438 19.3125 38.511719 19.316406 38.605469 19.371094 C 38.671875 19.414062 38.699219 19.476562 38.699219 19.554688 C 38.699219 19.652344 38.660156 19.71875 38.554688 19.761719 L 38.554688 19.769531 C 38.671875 19.796875 38.75 19.855469 38.75 19.988281 C 38.75 20.078125 38.71875 20.136719 38.652344 20.175781 Z M 38.652344 20.175781 " fill-opacity="1" fill-rule="nonzero"/><path fill="#939598" d="M 39.558594 19.953125 C 39.476562 19.945312 39.398438 19.941406 39.3125 19.941406 C 39.171875 19.941406 39.125 19.972656 39.125 20.035156 C 39.125 20.09375 39.164062 20.128906 39.273438 20.128906 C 39.359375 20.128906 39.46875 20.109375 39.558594 20.085938 Z M 39.597656 20.242188 L 39.59375 20.199219 C 39.476562 20.230469 39.34375 20.261719 39.222656 20.261719 C 39.148438 20.261719 39.070312 20.25 39.015625 20.210938 C 38.964844 20.175781 38.941406 20.113281 38.941406 20.046875 C 38.941406 19.96875 38.972656 19.894531 39.054688 19.859375 C 39.128906 19.824219 39.222656 19.824219 39.3125 19.824219 C 39.382812 19.824219 39.476562 19.828125 39.558594 19.832031 L 39.558594 19.820312 C 39.558594 19.710938 39.488281 19.675781 39.296875 19.675781 C 39.222656 19.675781 39.132812 19.679688 39.042969 19.6875 L 39.042969 19.550781 C 39.140625 19.542969 39.25 19.539062 39.335938 19.539062 C 39.457031 19.539062 39.578125 19.546875 39.65625 19.601562 C 39.734375 19.65625 39.75 19.734375 39.75 19.835938 L 39.75 20.242188 Z M 39.597656 20.242188 " fill-opacity="1" fill-rule="nonzero"/><path fill="#939598" d="M 40.636719 20.242188 L 40.636719 19.863281 C 40.636719 19.738281 40.574219 19.695312 40.460938 19.695312 C 40.378906 19.695312 40.273438 19.714844 40.183594 19.738281 L 40.183594 20.242188 L 39.992188 20.242188 L 39.992188 19.554688 L 40.148438 19.554688 L 40.15625 19.601562 C 40.273438 19.570312 40.410156 19.539062 40.519531 19.539062 C 40.601562 19.539062 40.6875 19.550781 40.753906 19.609375 C 40.808594 19.65625 40.828125 19.722656 40.828125 19.824219 L 40.828125 20.242188 Z M 40.636719 20.242188 " fill-opacity="1" fill-rule="nonzero"/><path fill="#939598" d="M 41.363281 20.261719 C 41.277344 20.261719 41.179688 20.25 41.109375 20.1875 C 41.027344 20.121094 41.003906 20.015625 41.003906 19.898438 C 41.003906 19.789062 41.039062 19.671875 41.140625 19.605469 C 41.226562 19.550781 41.332031 19.539062 41.441406 19.539062 C 41.519531 19.539062 41.597656 19.542969 41.683594 19.550781 L 41.683594 19.699219 C 41.613281 19.691406 41.53125 19.683594 41.464844 19.683594 C 41.285156 19.683594 41.199219 19.742188 41.199219 19.898438 C 41.199219 20.046875 41.261719 20.113281 41.410156 20.113281 C 41.496094 20.113281 41.597656 20.09375 41.695312 20.078125 L 41.695312 20.21875 C 41.589844 20.238281 41.472656 20.261719 41.363281 20.261719 Z M 41.363281 20.261719 " fill-opacity="1" fill-rule="nonzero"/><path fill="#939598" d="M 42.257812 19.679688 C 42.078125 19.679688 42 19.738281 42 19.894531 C 42 20.050781 42.078125 20.117188 42.257812 20.117188 C 42.4375 20.117188 42.515625 20.0625 42.515625 19.90625 C 42.515625 19.75 42.441406 19.679688 42.257812 19.679688 Z M 42.585938 20.1875 C 42.503906 20.246094 42.394531 20.261719 42.257812 20.261719 C 42.125 20.261719 42.015625 20.246094 41.929688 20.1875 C 41.835938 20.125 41.804688 20.023438 41.804688 19.898438 C 41.804688 19.777344 41.835938 19.671875 41.929688 19.609375 C 42.015625 19.554688 42.125 19.539062 42.257812 19.539062 C 42.394531 19.539062 42.503906 19.554688 42.585938 19.609375 C 42.679688 19.671875 42.714844 19.777344 42.714844 19.898438 C 42.714844 20.023438 42.679688 20.125 42.585938 20.1875 Z M 42.585938 20.1875 " fill-opacity="1" fill-rule="nonzero"/><path fill="#939598" d="M 43.8125 20.261719 C 43.699219 20.261719 43.574219 20.242188 43.480469 20.164062 C 43.371094 20.070312 43.335938 19.929688 43.335938 19.777344 C 43.335938 19.640625 43.378906 19.476562 43.523438 19.382812 C 43.636719 19.308594 43.773438 19.292969 43.914062 19.292969 C 44.015625 19.292969 44.121094 19.300781 44.238281 19.308594 L 44.238281 19.476562 C 44.140625 19.46875 44.015625 19.460938 43.921875 19.460938 C 43.660156 19.460938 43.546875 19.5625 43.546875 19.777344 C 43.546875 19.996094 43.652344 20.09375 43.847656 20.09375 C 43.972656 20.09375 44.113281 20.066406 44.257812 20.035156 L 44.257812 20.203125 C 44.113281 20.230469 43.964844 20.261719 43.8125 20.261719 Z M 43.8125 20.261719 " fill-opacity="1" fill-rule="nonzero"/><path fill="#939598" d="M 44.816406 19.660156 C 44.660156 19.660156 44.597656 19.714844 44.585938 19.820312 L 45.046875 19.820312 C 45.039062 19.710938 44.976562 19.660156 44.816406 19.660156 Z M 44.789062 20.261719 C 44.675781 20.261719 44.574219 20.246094 44.5 20.183594 C 44.417969 20.117188 44.390625 20.015625 44.390625 19.898438 C 44.390625 19.792969 44.425781 19.675781 44.519531 19.609375 C 44.601562 19.550781 44.710938 19.539062 44.816406 19.539062 C 44.914062 19.539062 45.027344 19.546875 45.113281 19.605469 C 45.222656 19.683594 45.230469 19.804688 45.234375 19.945312 L 44.585938 19.945312 C 44.589844 20.050781 44.644531 20.117188 44.835938 20.117188 C 44.953125 20.117188 45.085938 20.097656 45.199219 20.082031 L 45.199219 20.214844 C 45.066406 20.238281 44.925781 20.261719 44.789062 20.261719 Z M 44.789062 20.261719 " fill-opacity="1" fill-rule="nonzero"/><path fill="#939598" d="M 46.078125 20.242188 L 46.078125 19.863281 C 46.078125 19.738281 46.015625 19.695312 45.902344 19.695312 C 45.820312 19.695312 45.714844 19.714844 45.625 19.738281 L 45.625 20.242188 L 45.433594 20.242188 L 45.433594 19.554688 L 45.589844 19.554688 L 45.597656 19.601562 C 45.714844 19.570312 45.851562 19.539062 45.960938 19.539062 C 46.042969 19.539062 46.128906 19.550781 46.195312 19.609375 C 46.25 19.65625 46.269531 19.722656 46.269531 19.824219 L 46.269531 20.242188 Z M 46.078125 20.242188 " fill-opacity="1" fill-rule="nonzero"/><path fill="#939598" d="M 46.808594 20.261719 C 46.71875 20.261719 46.636719 20.234375 46.589844 20.164062 C 46.554688 20.113281 46.539062 20.046875 46.539062 19.957031 L 46.539062 19.699219 L 46.402344 19.699219 L 46.402344 19.554688 L 46.539062 19.554688 L 46.558594 19.347656 L 46.726562 19.347656 L 46.726562 19.554688 L 46.996094 19.554688 L 46.996094 19.699219 L 46.726562 19.699219 L 46.726562 19.917969 C 46.726562 19.972656 46.730469 20.015625 46.746094 20.050781 C 46.765625 20.09375 46.8125 20.113281 46.871094 20.113281 C 46.917969 20.113281 46.96875 20.105469 47.007812 20.097656 L 47.007812 20.234375 C 46.945312 20.25 46.875 20.261719 46.808594 20.261719 Z M 46.808594 20.261719 " fill-opacity="1" fill-rule="nonzero"/><path fill="#939598" d="M 47.183594 20.242188 L 47.183594 19.554688 L 47.339844 19.554688 L 47.34375 19.601562 C 47.46875 19.5625 47.5625 19.539062 47.683594 19.539062 C 47.6875 19.539062 47.695312 19.539062 47.707031 19.539062 L 47.707031 19.703125 C 47.683594 19.699219 47.660156 19.699219 47.640625 19.699219 C 47.546875 19.699219 47.476562 19.710938 47.375 19.734375 L 47.375 20.242188 Z M 47.183594 20.242188 " fill-opacity="1" fill-rule="nonzero"/><path fill="#939598" d="M 48.398438 19.953125 C 48.320312 19.945312 48.238281 19.941406 48.152344 19.941406 C 48.015625 19.941406 47.964844 19.972656 47.964844 20.035156 C 47.964844 20.09375 48.003906 20.128906 48.113281 20.128906 C 48.203125 20.128906 48.308594 20.109375 48.398438 20.085938 Z M 48.4375 20.242188 L 48.433594 20.199219 C 48.316406 20.230469 48.183594 20.261719 48.0625 20.261719 C 47.992188 20.261719 47.914062 20.25 47.855469 20.210938 C 47.804688 20.175781 47.78125 20.113281 47.78125 20.046875 C 47.78125 19.96875 47.816406 19.894531 47.894531 19.859375 C 47.96875 19.824219 48.0625 19.824219 48.152344 19.824219 C 48.222656 19.824219 48.320312 19.828125 48.398438 19.832031 L 48.398438 19.820312 C 48.398438 19.710938 48.328125 19.675781 48.136719 19.675781 C 48.0625 19.675781 47.972656 19.679688 47.886719 19.6875 L 47.886719 19.550781 C 47.980469 19.542969 48.089844 19.539062 48.179688 19.539062 C 48.296875 19.539062 48.421875 19.546875 48.496094 19.601562 C 48.574219 19.65625 48.589844 19.734375 48.589844 19.835938 L 48.589844 20.242188 Z M 48.4375 20.242188 " fill-opacity="1" fill-rule="nonzero"/><path fill="#939598" d="M 48.835938 19.265625 L 49.023438 19.265625 L 49.023438 20.242188 L 48.835938 20.242188 Z M 48.835938 19.265625 " fill-opacity="1" fill-rule="nonzero"/></svg>