<svg xmlns="http://www.w3.org/2000/svg" xmlns:xlink="http://www.w3.org/1999/xlink" width="80" zoomAndPan="magnify" viewBox="0 0 60 30.000001" height="40" preserveAspectRatio="xMidYMid meet" version="1.0"><defs><clipPath id="3d756c48aa"><path d="M 0.96875 0 L 59.03125 0 L 59.03125 29.03125 L 0.96875 29.03125 Z M 0.96875 0 " clip-rule="nonzero"/></clipPath><clipPath id="926989007e"><path d="M 1 1.160156 L 59 1.160156 L 59 28.015625 L 1 28.015625 Z M 1 1.160156 " clip-rule="nonzero"/></clipPath><clipPath id="d322fafdc4"><path d="M 44 10 L 51.8125 10 L 51.8125 19 L 44 19 Z M 44 10 " clip-rule="nonzero"/></clipPath><clipPath id="87138ccc8b"><path d="M 7.742188 10 L 16 10 L 16 20.753906 L 7.742188 20.753906 Z M 7.742188 10 " clip-rule="nonzero"/></clipPath><clipPath id="186af6012c"><path d="M 16 8.324219 L 20 8.324219 L 20 18 L 16 18 Z M 16 8.324219 " clip-rule="nonzero"/></clipPath></defs><g clip-path="url(#3d756c48aa)"><path fill="#ffffff" d="M 0.96875 0 L 59.03125 0 L 59.03125 29.03125 L 0.96875 29.03125 Z M 0.96875 0 " fill-opacity="1" fill-rule="nonzero"/><path fill="#ffffff" d="M 0.96875 0 L 59.03125 0 L 59.03125 29.03125 L 0.96875 29.03125 Z M 0.96875 0 " fill-opacity="1" fill-rule="nonzero"/></g><g clip-path="url(#926989007e)"><path fill="#ffffff" d="M 1.066406 1.160156 L 58.933594 1.160156 L 58.933594 28.015625 L 1.066406 28.015625 Z M 1.066406 1.160156 " fill-opacity="1" fill-rule="nonzero"/></g><g clip-path="url(#d322fafdc4)"><path fill="#221c46" d="M 48.015625 12.582031 C 49.019531 12.582031 49.425781 13.277344 49.425781 13.753906 L 46.605469 13.753906 C 46.605469 13.269531 47.015625 12.582031 48.015625 12.582031 Z M 49.199219 15.902344 C 49.011719 16.265625 48.582031 16.511719 48.027344 16.511719 C 46.976562 16.511719 46.5625 15.765625 46.554688 15.105469 L 51.757812 15.105469 C 51.773438 15.011719 51.8125 14.746094 51.8125 14.539062 C 51.8125 12.199219 50.195312 10.875 48.007812 10.875 C 45.703125 10.875 44.09375 12.199219 44.09375 14.539062 C 44.09375 16.898438 45.703125 18.199219 48.023438 18.199219 C 50.300781 18.199219 51.371094 16.949219 51.65625 15.902344 Z M 49.199219 15.902344 " fill-opacity="1" fill-rule="nonzero"/></g><g clip-path="url(#87138ccc8b)"><path fill="#221c46" d="M 11.746094 16.097656 C 10.8125 16.097656 10.148438 15.429688 10.148438 14.542969 C 10.148438 13.699219 10.773438 12.992188 11.746094 12.992188 C 12.722656 12.992188 13.34375 13.703125 13.34375 14.542969 C 13.34375 15.398438 12.714844 16.097656 11.746094 16.097656 Z M 12.445312 10.945312 C 11.421875 10.945312 10.539062 11.398438 10.085938 11.925781 L 10.085938 11.085938 L 7.742188 11.085938 L 7.742188 20.753906 L 10.15625 20.753906 L 10.15625 17.292969 C 10.722656 17.898438 11.511719 18.128906 12.308594 18.128906 C 14.703125 18.128906 15.8125 16.332031 15.8125 14.539062 C 15.8125 12.328125 14.386719 10.945312 12.445312 10.945312 Z M 12.445312 10.945312 " fill-opacity="1" fill-rule="nonzero"/></g><g clip-path="url(#186af6012c)"><path fill="#221c46" d="M 19.03125 8.324219 L 16.605469 8.324219 L 16.605469 17.992188 L 19.03125 17.992188 Z M 19.03125 8.324219 " fill-opacity="1" fill-rule="nonzero"/></g><path fill="#221c46" d="M 24.878906 11.085938 L 24.878906 14.675781 C 24.878906 15.222656 24.804688 15.484375 24.578125 15.75 C 24.363281 16.003906 24.023438 16.125 23.648438 16.125 C 23.269531 16.125 22.929688 16.003906 22.714844 15.75 C 22.488281 15.484375 22.414062 15.222656 22.414062 14.675781 L 22.414062 11.085938 L 20 11.085938 L 20 14.890625 C 20 15.960938 20.164062 16.660156 20.679688 17.25 C 21.226562 17.878906 22.058594 18.128906 22.875 18.128906 C 23.832031 18.128906 24.492188 17.769531 24.949219 17.246094 L 24.953125 17.992188 L 27.292969 17.992188 L 27.292969 11.085938 Z M 24.878906 11.085938 " fill-opacity="1" fill-rule="nonzero"/><path fill="#221c46" d="M 35.164062 11.085938 L 33.515625 11.085938 L 31.695312 12.929688 L 29.878906 11.085938 L 28.226562 11.085938 L 28.226562 12.726562 L 30.078125 14.539062 L 28.226562 16.347656 L 28.226562 17.992188 L 29.878906 17.992188 L 31.695312 16.148438 L 33.515625 17.992188 L 35.164062 17.992188 L 35.164062 16.347656 L 33.3125 14.539062 L 35.164062 12.726562 Z M 35.164062 11.085938 " fill-opacity="1" fill-rule="nonzero"/><path fill="#221c46" d="M 39.625 12.582031 C 40.628906 12.582031 41.035156 13.277344 41.035156 13.753906 L 38.214844 13.753906 C 38.214844 13.269531 38.625 12.582031 39.625 12.582031 Z M 40.808594 15.902344 C 40.621094 16.265625 40.191406 16.511719 39.636719 16.511719 C 38.585938 16.511719 38.171875 15.765625 38.160156 15.105469 L 43.367188 15.105469 C 43.382812 15.011719 43.421875 14.746094 43.421875 14.539062 C 43.421875 12.199219 41.804688 10.875 39.617188 10.875 C 37.3125 10.875 35.699219 12.199219 35.699219 14.539062 C 35.699219 16.898438 37.3125 18.199219 39.628906 18.199219 C 41.910156 18.199219 42.980469 16.949219 43.265625 15.902344 Z M 40.808594 15.902344 " fill-opacity="1" fill-rule="nonzero"/></svg>