<svg xmlns="http://www.w3.org/2000/svg" xmlns:xlink="http://www.w3.org/1999/xlink" width="80" zoomAndPan="magnify" viewBox="0 0 60 30.000001" height="40" preserveAspectRatio="xMidYMid meet" version="1.0"><defs><clipPath id="42b1f6d6bb"><path d="M 0.96875 0 L 59.03125 0 L 59.03125 29.03125 L 0.96875 29.03125 Z M 0.96875 0 " clip-rule="nonzero"/></clipPath><clipPath id="4a1bd149bf"><path d="M 15.121094 0 L 44.878906 0 L 44.878906 29.03125 L 15.121094 29.03125 Z M 15.121094 0 " clip-rule="nonzero"/></clipPath></defs><g clip-path="url(#42b1f6d6bb)"><path fill="#ffffff" d="M 0.96875 0 L 59.03125 0 L 59.03125 29.03125 L 0.96875 29.03125 Z M 0.96875 0 " fill-opacity="1" fill-rule="nonzero"/><path fill="#ffffff" d="M 0.96875 0 L 59.03125 0 L 59.03125 29.03125 L 0.96875 29.03125 Z M 0.96875 0 " fill-opacity="1" fill-rule="nonzero"/></g><g clip-path="url(#4a1bd149bf)"><path fill="#ffffff" d="M 15.121094 -0.363281 L 44.878906 -0.363281 L 44.878906 29.394531 L 15.121094 29.394531 Z M 15.121094 -0.363281 " fill-opacity="1" fill-rule="nonzero"/></g><path fill="#ffffff" d="M 29.800781 25.453125 C 35.988281 25.453125 41.007812 20.4375 41.007812 14.246094 C 41.007812 8.058594 35.988281 3.039062 29.800781 3.039062 C 23.613281 3.039062 18.59375 8.058594 18.59375 14.246094 C 18.59375 20.4375 23.613281 25.453125 29.800781 25.453125 Z M 29.800781 25.453125 " fill-opacity="1" fill-rule="nonzero"/><path fill="#d52b1e" d="M 38.316406 15.039062 L 34.917969 15.039062 C 35.046875 15.777344 35.75 16.058594 36.359375 16.058594 C 36.746094 16.058594 37.089844 15.972656 37.425781 15.820312 L 37.328125 16.832031 C 36.953125 16.984375 36.496094 17.046875 36.042969 17.046875 C 34.535156 17.046875 33.46875 16.164062 33.46875 14.660156 C 33.46875 13.359375 34.421875 12.378906 35.878906 12.378906 C 37.527344 12.378906 38.351562 13.425781 38.316406 15.039062 Z M 32.175781 16.960938 C 32.105469 16.796875 32.003906 16.53125 31.917969 16.265625 L 31.71875 15.605469 C 31.617188 15.253906 31.480469 15.109375 31.144531 15.109375 L 30.578125 15.109375 L 30.578125 16.960938 L 29.265625 16.960938 L 29.265625 10.90625 L 30.578125 10.90625 L 30.578125 14.242188 L 30.722656 14.242188 L 31.96875 12.464844 L 33.425781 12.464844 L 31.960938 14.320312 L 32.035156 14.320312 C 32.621094 14.320312 32.792969 14.644531 32.9375 15.125 L 33.1875 15.957031 C 33.273438 16.265625 33.453125 16.703125 33.589844 16.960938 Z M 27.972656 15.957031 C 28.3125 15.957031 28.597656 15.863281 28.8125 15.757812 L 28.691406 16.847656 C 28.417969 16.984375 28.03125 17.054688 27.695312 17.054688 C 26.28125 17.054688 25.304688 16.136719 25.304688 14.703125 C 25.304688 13.289062 26.265625 12.378906 27.6875 12.378906 C 28.210938 12.378906 28.613281 12.484375 29.027344 12.671875 L 28.648438 13.683594 C 28.453125 13.5625 28.175781 13.46875 27.886719 13.46875 C 27.164062 13.46875 26.691406 13.941406 26.691406 14.703125 C 26.691406 15.460938 27.191406 15.964844 27.972656 15.957031 Z M 23.5625 11.890625 L 24.898438 11.890625 L 24.898438 10.90625 L 23.5625 10.90625 Z M 23.5625 16.960938 L 24.898438 16.960938 L 24.898438 12.464844 L 23.5625 12.464844 Z M 38.601562 14.53125 L 38.601562 11.480469 L 39.9375 10.9375 L 39.9375 12.550781 L 40.839844 12.550781 L 40.660156 13.554688 L 39.921875 13.554688 L 39.921875 14.585938 C 39.921875 15.585938 40.300781 16.289062 40.703125 16.855469 C 40.902344 16.015625 41.007812 15.144531 41.007812 14.246094 C 41.007812 8.058594 35.988281 3.039062 29.800781 3.039062 C 24.773438 3.039062 20.523438 6.347656 19.097656 10.90625 L 23.269531 10.90625 L 23.105469 12.105469 L 21.367188 12.105469 L 21.367188 16.960938 L 19.941406 16.960938 L 19.941406 12.105469 L 18.796875 12.105469 C 18.664062 12.796875 18.59375 13.515625 18.59375 14.246094 C 18.59375 20.4375 23.609375 25.453125 29.800781 25.453125 C 35.054688 25.453125 39.460938 21.839844 40.675781 16.960938 L 39.355469 16.960938 C 39.121094 16.558594 38.589844 15.828125 38.601562 14.53125 Z M 35.921875 13.304688 C 35.355469 13.304688 34.996094 13.675781 34.886719 14.164062 L 36.902344 14.164062 C 36.832031 13.625 36.453125 13.304688 35.921875 13.304688 Z M 35.921875 13.304688 " fill-opacity="1" fill-rule="evenodd"/></svg>