<svg xmlns="http://www.w3.org/2000/svg" xmlns:xlink="http://www.w3.org/1999/xlink" width="80" zoomAndPan="magnify" viewBox="0 0 60 30.000001" height="40" preserveAspectRatio="xMidYMid meet" version="1.0"><defs><clipPath id="a83334e67f"><path d="M 0.96875 0 L 59.03125 0 L 59.03125 29.03125 L 0.96875 29.03125 Z M 0.96875 0 " clip-rule="nonzero"/></clipPath><clipPath id="9aaa428b04"><path d="M 48 2.902344 L 54.15625 2.902344 L 54.15625 6 L 48 6 Z M 48 2.902344 " clip-rule="nonzero"/></clipPath><clipPath id="81d372f61c"><path d="M 47 2.902344 L 51 2.902344 L 51 7 L 47 7 Z M 47 2.902344 " clip-rule="nonzero"/></clipPath><clipPath id="4052026e21"><path d="M 5.527344 3 L 18 3 L 18 16 L 5.527344 16 Z M 5.527344 3 " clip-rule="nonzero"/></clipPath><clipPath id="d66dcc5e84"><path d="M 5.527344 17 L 13 17 L 13 26.128906 L 5.527344 26.128906 Z M 5.527344 17 " clip-rule="nonzero"/></clipPath><clipPath id="8e53d375ff"><path d="M 22 17 L 30 17 L 30 26.128906 L 22 26.128906 Z M 22 17 " clip-rule="nonzero"/></clipPath><clipPath id="476daddcad"><path d="M 29 17 L 39 17 L 39 26.128906 L 29 26.128906 Z M 29 17 " clip-rule="nonzero"/></clipPath></defs><g clip-path="url(#a83334e67f)"><path fill="#ffffff" d="M 0.96875 0 L 59.03125 0 L 59.03125 29.03125 L 0.96875 29.03125 Z M 0.96875 0 " fill-opacity="1" fill-rule="nonzero"/><path fill="#ffffff" d="M 0.96875 0 L 59.03125 0 L 59.03125 29.03125 L 0.96875 29.03125 Z M 0.96875 0 " fill-opacity="1" fill-rule="nonzero"/></g><path fill="#203b79" d="M 47.574219 14.738281 L 43.792969 14.738281 L 45.316406 12.019531 L 49.050781 12.019531 Z M 47.574219 14.738281 " fill-opacity="1" fill-rule="nonzero"/><g clip-path="url(#9aaa428b04)"><path fill="#f6a113" d="M 52.632812 5.644531 L 48.851562 5.644531 L 50.375 2.925781 L 54.15625 2.925781 Z M 52.632812 5.644531 " fill-opacity="1" fill-rule="nonzero"/></g><g clip-path="url(#81d372f61c)"><path fill="#d19703" d="M 47.085938 6.433594 L 48.851562 5.644531 L 50.375 2.925781 L 48.605469 3.714844 Z M 47.085938 6.433594 " fill-opacity="1" fill-rule="nonzero"/></g><path fill="#c01727" d="M 44.429688 11.128906 L 46.25 10.339844 L 47.917969 7.375 L 46.101562 8.113281 Z M 44.429688 11.128906 " fill-opacity="1" fill-rule="nonzero"/><path fill="#de082f" d="M 46.25 10.339844 L 49.980469 10.339844 L 51.652344 7.375 L 47.917969 7.375 Z M 46.25 10.339844 " fill-opacity="1" fill-rule="nonzero"/><g clip-path="url(#4052026e21)"><path fill="#203b79" d="M 13.632812 3.714844 L 9.703125 10.980469 L 8.867188 3.714844 L 5.675781 3.714844 L 7.246094 15.429688 L 10.539062 15.429688 L 17.023438 3.714844 Z M 13.632812 3.714844 " fill-opacity="1" fill-rule="nonzero"/></g><path fill="#203b79" d="M 18.789062 3.714844 L 11.71875 15.429688 L 15.253906 15.429688 L 16.679688 12.960938 L 20.460938 12.960938 L 20.855469 15.429688 L 24.046875 15.429688 L 21.886719 3.714844 Z M 20.019531 10.289062 L 18.203125 10.289062 L 19.625 7.820312 C 19.625 7.867188 19.625 7.867188 19.625 7.917969 Z M 20.019531 10.289062 " fill-opacity="1" fill-rule="nonzero"/><path fill="#203b79" d="M 27.828125 12.710938 L 29.695312 3.765625 L 26.550781 3.714844 L 24.046875 15.480469 L 31.367188 15.480469 L 32.003906 12.710938 Z M 27.828125 12.710938 " fill-opacity="1" fill-rule="nonzero"/><path fill="#203b79" d="M 41.089844 6.433594 L 41.679688 3.765625 L 34.3125 3.765625 L 31.855469 15.480469 L 39.273438 15.480469 L 39.8125 12.8125 L 35.589844 12.8125 L 35.933594 11.128906 L 40.15625 11.128906 L 40.746094 8.113281 L 36.574219 8.113281 L 36.917969 6.433594 Z M 41.089844 6.433594 " fill-opacity="1" fill-rule="nonzero"/><path fill="#203b79" d="M 42.023438 15.480469 L 40.699219 15.480469 L 41.238281 12.8125 L 43.5 12.8125 Z M 42.023438 15.480469 " fill-opacity="1" fill-rule="nonzero"/><path fill="#de082f" d="M 46.101562 8.113281 L 42.222656 8.113281 L 41.582031 11.128906 L 44.429688 11.128906 Z M 46.101562 8.113281 " fill-opacity="1" fill-rule="nonzero"/><path fill="#f6a113" d="M 47.085938 6.433594 L 42.566406 6.433594 L 43.105469 3.714844 L 48.605469 3.714844 Z M 47.085938 6.433594 " fill-opacity="1" fill-rule="nonzero"/><path fill="#233363" d="M 42.023438 15.480469 L 43.792969 14.738281 L 45.316406 12.019531 L 43.5 12.8125 Z M 42.023438 15.480469 " fill-opacity="1" fill-rule="nonzero"/><g clip-path="url(#d66dcc5e84)"><path fill="#203b79" d="M 11.375 25.859375 C 10.832031 26.007812 10.242188 26.105469 9.65625 26.105469 C 7.199219 26.105469 5.527344 24.527344 5.527344 22.203125 C 5.527344 20.621094 6.214844 19.136719 7.347656 18.148438 C 8.230469 17.40625 9.457031 17.011719 10.832031 17.011719 C 11.667969 17.011719 12.355469 17.160156 12.996094 17.40625 L 12.652344 18.496094 C 12.0625 18.25 11.472656 18.101562 10.832031 18.101562 C 8.574219 18.101562 6.902344 19.78125 6.902344 22.054688 C 6.902344 23.832031 8.035156 24.96875 9.851562 24.96875 C 10.488281 24.96875 11.078125 24.871094 11.570312 24.625 Z M 11.375 25.859375 " fill-opacity="1" fill-rule="nonzero"/></g><path fill="#203b79" d="M 17.808594 17.109375 L 19.132812 17.109375 L 21.050781 25.960938 L 19.773438 25.960938 L 19.28125 23.734375 L 14.960938 23.734375 L 13.585938 25.960938 L 12.160156 25.960938 Z M 19.085938 22.746094 L 18.496094 19.632812 C 18.347656 18.839844 18.347656 18.691406 18.300781 18.148438 C 18.203125 18.445312 17.957031 18.890625 17.613281 19.535156 L 15.648438 22.746094 Z M 19.085938 22.746094 " fill-opacity="1" fill-rule="nonzero"/><g clip-path="url(#8e53d375ff)"><path fill="#203b79" d="M 24.046875 17.109375 L 25.617188 17.109375 C 27.042969 17.109375 27.582031 17.210938 28.125 17.507812 C 28.714844 17.804688 29.058594 18.445312 29.058594 19.238281 C 29.058594 20.523438 28.125 21.558594 26.796875 21.707031 C 27.289062 21.90625 27.386719 22.054688 27.582031 22.746094 L 28.417969 26.007812 L 27.140625 26.007812 L 26.453125 23.09375 C 26.257812 22.25 26.0625 22.105469 24.980469 22.105469 L 24.292969 22.105469 L 23.457031 26.007812 L 22.179688 26.007812 Z M 25.226562 20.964844 C 26.011719 20.964844 26.503906 20.867188 26.945312 20.671875 C 27.4375 20.421875 27.730469 19.929688 27.730469 19.386719 C 27.730469 18.988281 27.535156 18.59375 27.238281 18.445312 C 26.945312 18.25 26.550781 18.199219 25.714844 18.199219 L 25.078125 18.199219 L 24.488281 20.964844 Z M 25.226562 20.964844 " fill-opacity="1" fill-rule="nonzero"/></g><g clip-path="url(#476daddcad)"><path fill="#203b79" d="M 31.710938 17.109375 L 33.085938 17.109375 C 34.804688 17.109375 35.785156 17.308594 36.621094 17.851562 C 37.554688 18.445312 38.046875 19.484375 38.046875 20.917969 C 38.046875 22.648438 37.308594 24.277344 36.128906 25.070312 C 35.148438 25.761719 33.917969 26.007812 31.464844 26.007812 L 29.792969 26.007812 Z M 32.152344 24.871094 C 33.574219 24.871094 34.410156 24.675781 35.097656 24.277344 C 36.128906 23.636719 36.769531 22.398438 36.769531 20.964844 C 36.769531 19.039062 35.738281 18.199219 33.28125 18.199219 L 32.789062 18.199219 L 31.367188 24.871094 Z M 32.152344 24.871094 " fill-opacity="1" fill-rule="nonzero"/></g></svg>