<svg xmlns="http://www.w3.org/2000/svg" xmlns:xlink="http://www.w3.org/1999/xlink" width="80" zoomAndPan="magnify" viewBox="0 0 60 30.000001" height="40" preserveAspectRatio="xMidYMid meet" version="1.0"><defs><clipPath id="6a62afa117"><path d="M 0.96875 0 L 59.03125 0 L 59.03125 29.03125 L 0.96875 29.03125 Z M 0.96875 0 " clip-rule="nonzero"/></clipPath></defs><g clip-path="url(#6a62afa117)"><path fill="#ffffff" d="M 0.96875 0 L 59.03125 0 L 59.03125 29.03125 L 0.96875 29.03125 Z M 0.96875 0 " fill-opacity="1" fill-rule="nonzero"/><path fill="#ffffff" d="M 0.96875 0 L 59.03125 0 L 59.03125 29.03125 L 0.96875 29.03125 Z M 0.96875 0 " fill-opacity="1" fill-rule="nonzero"/><path fill="#ffffff" d="M 0.96875 -14.515625 L 59.03125 -14.515625 L 59.03125 43.546875 L 0.96875 43.546875 Z M 0.96875 -14.515625 " fill-opacity="1" fill-rule="nonzero"/></g><path fill="#172b85" d="M 17.660156 21.789062 L 13.558594 21.789062 L 10.480469 10.050781 C 10.335938 9.507812 10.023438 9.03125 9.566406 8.808594 C 8.429688 8.242188 7.175781 7.792969 5.804688 7.566406 L 5.804688 7.113281 L 12.417969 7.113281 C 13.328125 7.113281 14.015625 7.792969 14.128906 8.582031 L 15.726562 17.050781 L 19.828125 7.113281 L 23.816406 7.113281 Z M 26.097656 21.789062 L 22.222656 21.789062 L 25.414062 7.113281 L 29.289062 7.113281 Z M 34.304688 11.179688 C 34.417969 10.386719 35.101562 9.9375 35.898438 9.9375 C 37.15625 9.824219 38.519531 10.050781 39.660156 10.613281 L 40.347656 7.453125 C 39.207031 7 37.949219 6.773438 36.8125 6.773438 C 33.050781 6.773438 30.3125 8.808594 30.3125 11.628906 C 30.3125 13.777344 32.253906 14.902344 33.621094 15.582031 C 35.101562 16.257812 35.671875 16.710938 35.558594 17.386719 C 35.558594 18.402344 34.417969 18.855469 33.277344 18.855469 C 31.910156 18.855469 30.542969 18.515625 29.289062 17.949219 L 28.605469 21.113281 C 29.972656 21.675781 31.453125 21.902344 32.824219 21.902344 C 37.039062 22.015625 39.660156 19.984375 39.660156 16.933594 C 39.660156 13.097656 34.304688 12.871094 34.304688 11.179688 Z M 53.226562 21.789062 L 50.148438 7.113281 L 46.84375 7.113281 C 46.160156 7.113281 45.472656 7.566406 45.246094 8.242188 L 39.546875 21.789062 L 43.539062 21.789062 L 44.332031 19.644531 L 49.234375 19.644531 L 49.691406 21.789062 Z M 47.414062 11.066406 L 48.550781 16.597656 L 45.359375 16.597656 Z M 47.414062 11.066406 " fill-opacity="1" fill-rule="evenodd"/></svg>