<svg xmlns="http://www.w3.org/2000/svg" xmlns:xlink="http://www.w3.org/1999/xlink" width="80" zoomAndPan="magnify" viewBox="0 0 60 30.000001" height="40" preserveAspectRatio="xMidYMid meet" version="1.0"><defs><clipPath id="3c2f833b75"><path d="M 0.96875 0 L 59.03125 0 L 59.03125 29.03125 L 0.96875 29.03125 Z M 0.96875 0 " clip-rule="nonzero"/></clipPath><clipPath id="3ba22cbbf6"><path d="M 12.90625 0 L 47.019531 0 L 47.019531 29.03125 L 12.90625 29.03125 Z M 12.90625 0 " clip-rule="nonzero"/></clipPath></defs><g clip-path="url(#3c2f833b75)"><path fill="#ffffff" d="M 0.96875 0 L 59.03125 0 L 59.03125 29.03125 L 0.96875 29.03125 Z M 0.96875 0 " fill-opacity="1" fill-rule="nonzero"/><path fill="#ffffff" d="M 0.96875 0 L 59.03125 0 L 59.03125 29.03125 L 0.96875 29.03125 Z M 0.96875 0 " fill-opacity="1" fill-rule="nonzero"/></g><g clip-path="url(#3ba22cbbf6)"><path fill="#ffffff" d="M 12.90625 -2.582031 L 47.019531 -2.582031 L 47.019531 31.53125 L 12.90625 31.53125 Z M 12.90625 -2.582031 " fill-opacity="1" fill-rule="nonzero"/></g><path fill="#00be28" d="M 40.699219 24.855469 L 22.53125 24.855469 C 20.707031 24.855469 19.226562 23.386719 19.226562 21.574219 L 19.226562 3.527344 L 37.398438 3.527344 C 39.21875 3.527344 40.699219 4.996094 40.699219 6.804688 Z M 40.699219 24.855469 " fill-opacity="1" fill-rule="nonzero"/><path fill="#ffffff" d="M 29.207031 19.820312 L 25.175781 19.820312 C 24.441406 19.820312 24.019531 19.511719 23.75 18.839844 L 21.21875 12.367188 L 23.929688 12.367188 C 24.664062 12.367188 25.105469 12.6875 25.339844 13.375 L 26.464844 16.664062 L 26.90625 16.664062 L 29.429688 9.773438 L 34.296875 9.773438 C 36.699219 9.773438 38.03125 10.902344 38.03125 12.921875 C 38.03125 14.015625 37.488281 14.917969 36.488281 15.472656 C 36.632812 15.757812 36.808594 16.179688 37.074219 16.886719 C 37.796875 18.785156 38.230469 19.371094 38.6875 19.820312 L 36.121094 19.820312 C 34.964844 19.820312 34.265625 19.3125 33.84375 18.21875 L 32.273438 14.125 C 32.464844 14.167969 32.699219 14.179688 32.921875 14.179688 C 33.886719 14.179688 34.421875 13.847656 34.421875 13.242188 C 34.421875 12.65625 33.988281 12.371094 33.097656 12.371094 L 32.074219 12.371094 Z M 29.207031 19.820312 " fill-opacity="1" fill-rule="nonzero"/></svg>